BasicallyAMono-ExtraLight.ufo
<glyph name="exclam" format="2">
  <advance width="1020"/>
  <unicode hex="0021"/>
  <outline>
    <contour>
      <point x="479.87805" y="310.73171" type="line"/>
      <point x="540.12195" y="310.73171" type="line"/>
      <point x="540.12195" y="1170.0" type="line"/>
      <point x="479.87805" y="1170.0" type="line"/>
    </contour>
    <contour>
      <point x="603.53659" y="93.53659" type="curve" smooth="yes"/>
      <point x="603.53659" y="145.16083"/>
      <point x="561.62425" y="187.07317"/>
      <point x="510.0" y="187.07317" type="curve" smooth="yes"/>
      <point x="458.37575" y="187.07317"/>
      <point x="416.46341" y="145.16083"/>
      <point x="416.46341" y="93.53659" type="curve" smooth="yes"/>
      <point x="416.46341" y="41.91234"/>
      <point x="458.37575" y="0.0"/>
      <point x="510.0" y="0.0" type="curve" smooth="yes"/>
      <point x="561.62425" y="-0.0"/>
      <point x="603.53659" y="41.91234"/>
    </contour>
  </outline>
</glyph>
<glyph name="quotedbl" format="2">
  <advance width="1020"/>
  <unicode hex="0022"/>
  <outline>
    <contour>
      <point x="594.55285" y="982.92683" type="line"/>
      <point x="654.79675" y="982.92683" type="line"/>
      <point x="654.79675" y="1296.82927" type="line"/>
      <point x="594.55285" y="1296.82927" type="line"/>
    </contour>
    <contour>
      <point x="365.20325" y="982.92683" type="line"/>
      <point x="425.44715" y="982.92683" type="line"/>
      <point x="425.44715" y="1296.82927" type="line"/>
      <point x="365.20325" y="1296.82927" type="line"/>
    </contour>
  </outline>
</glyph>
<glyph name="numbersign" format="2">
  <advance width="1020"/>
  <unicode hex="0023"/>
  <outline>
    <contour>
      <point x="195.00220489501953" y="0" type="line"/>
      <point x="256.6661148071289" y="0" type="line"/>
      <point x="326.9526596069336" y="361.5929183959961" type="line"/>
      <point x="605.1117553710938" y="361.5929183959961" type="line"/>
      <point x="534.8252105712891" y="0" type="line"/>
      <point x="596.4891204833984" y="0" type="line"/>
      <point x="666.7756652832031" y="361.5929183959961" type="line"/>
      <point x="864.159294128418" y="361.5929183959961" type="line"/>
      <point x="864.159294128418" y="422.12389373779297" type="line"/>
      <point x="678.5416946411133" y="422.12389373779297" type="line"/>
      <point x="742.9452209472656" y="753.4513244628906" type="line"/>
      <point x="949.1150436401367" y="753.4513244628906" type="line"/>
      <point x="949.1150436401367" y="813.9822998046875" type="line"/>
      <point x="754.7112503051758" y="813.9822998046875" type="line"/>
      <point x="824.9977951049805" y="1175.5752182006836" type="line"/>
      <point x="763.3338851928711" y="1175.5752182006836" type="line"/>
      <point x="693.0473403930664" y="813.9822998046875" type="line"/>
      <point x="414.88824462890625" y="813.9822998046875" type="line"/>
      <point x="485.17478942871094" y="1175.5752182006836" type="line"/>
      <point x="423.51087951660156" y="1175.5752182006836" type="line"/>
      <point x="353.2243347167969" y="813.9822998046875" type="line"/>
      <point x="155.84070587158203" y="813.9822998046875" type="line"/>
      <point x="155.84070587158203" y="753.4513244628906" type="line"/>
      <point x="341.4583053588867" y="753.4513244628906" type="line"/>
      <point x="277.0547790527344" y="422.12389373779297" type="line"/>
      <point x="70.88495635986328" y="422.12389373779297" type="line"/>
      <point x="70.88495635986328" y="361.5929183959961" type="line"/>
      <point x="265.2887496948242" y="361.5929183959961" type="line"/>
    </contour>
    <contour>
      <point x="338.71868896484375" y="422.12389373779297" type="line"/>
      <point x="403.1222152709961" y="753.4513244628906" type="line"/>
      <point x="681.2813110351562" y="753.4513244628906" type="line"/>
      <point x="616.8777847290039" y="422.12389373779297" type="line"/>
    </contour>
  </outline>
</glyph>
<glyph name="dollar" format="2">
  <advance width="980"/>
  <unicode hex="0024"/>
  <outline>
    <contour>
      <point x="429.1740264892578" y="643.1568756103516" type="line"/>
      <point x="309.6310980539113" y="666.9282429393024"/>
      <point x="220.0" y="753.7758873768794"/>
      <point x="220.00000000000003" y="858.75" type="curve"/>
      <point x="220.0" y="973.3944647401934"/>
      <point x="326.6398062323931" y="1067.7900265994285"/>
      <point x="463" y="1078.891830444336" type="curve"/>
      <point x="463" y="636.4305114746094" type="line"/>
    </contour>
    <contour>
      <point x="130" y="326.25" type="line"/>
      <point x="130.0" y="170.2189808608943"/>
      <point x="276.9006214201937" y="42.19983326567797"/>
      <point x="463" y="30.82500457763672" type="curve"/>
      <point x="463" y="-90" type="line"/>
      <point x="517" y="-90" type="line"/>
      <point x="517" y="30.832565307617188" type="line"/>
      <point x="703.0993785798063" y="42.199833265677945"/>
      <point x="850.0" y="170.21898086089416"/>
      <point x="849.9999999999999" y="326.24999999999994" type="curve"/>
      <point x="850.0" y="466.60564809268885"/>
      <point x="730.9106524697785" y="583.1559013439356"/>
      <point x="571.7921752929688" y="614.7969512939453" type="curve"/>
      <point x="517" y="625.6924896240234" type="line"/>
      <point x="517" y="1078.8917694091797" type="line"/>
      <point x="653.3601937676069" y="1067.7900265994285"/>
      <point x="760.0" y="973.3944647401934"/>
      <point x="759.9999999999999" y="858.75" type="curve"/>
      <point x="820" y="858.75" type="line"/>
      <point x="820.0" y="1006.2289199812931"/>
      <point x="686.5235232223008" y="1127.3478062887239"/>
      <point x="517" y="1139.0658264160156" type="curve"/>
      <point x="517" y="1260" type="line"/>
      <point x="463" y="1260" type="line"/>
      <point x="463" y="1139.0589981079102" type="line"/>
      <point x="293.4764767776992" y="1127.3478062887239"/>
      <point x="160.00000000000003" y="1006.2289199812931"/>
      <point x="160.00000000000003" y="858.7499999999998" type="curve"/>
      <point x="160.0" y="724.7554160453137"/>
      <point x="270.3873588520165" y="613.5625435558892"/>
      <point x="417.4790267944336" y="584.3333435058594" type="curve"/>
      <point x="463" y="575.2876815795898" type="line"/>
      <point x="463" y="90.95730590820312" type="line"/>
      <point x="310.05574363684923" y="101.71002009012366"/>
      <point x="189.99999999999994" y="203.02617632926254"/>
      <point x="189.99999999999994" y="326.25000000000006" type="curve"/>
    </contour>
    <contour>
      <point x="790.0" y="326.25" type="curve"/>
      <point x="790.0" y="203.02617632926246"/>
      <point x="669.9442563631505" y="101.71002009012356"/>
      <point x="517" y="90.95585632324219" type="curve"/>
      <point x="517" y="564.5571136474609" type="line"/>
      <point x="560.1009368896484" y="555.9923477172852" type="line"/>
      <point x="691.6625151463741" y="529.8491966907507"/>
      <point x="790.0" y="437.6332451098962"/>
    </contour>
  </outline>
</glyph>
<glyph name="percent" format="2">
  <advance width="980"/>
  <unicode hex="0025"/>
  <outline>
    <contour>
      <point x="565.0" y="915.0" type="curve" smooth="yes"/>
      <point x="565.0" y="1039.1808795"/>
      <point x="464.1808795" y="1140.0"/>
      <point x="340.0" y="1140.0" type="curve" smooth="yes"/>
      <point x="215.8191205" y="1140.0"/>
      <point x="115.0" y="1039.1808795000002"/>
      <point x="115.0" y="915.0" type="curve" smooth="yes"/>
      <point x="114.99999999999997" y="790.8191205"/>
      <point x="215.81912049999997" y="690.0"/>
      <point x="340.0" y="690.0" type="curve" smooth="yes"/>
      <point x="464.18087949999995" y="690.0"/>
      <point x="565.0" y="790.8191204999999"/>
    </contour>
    <contour>
      <point x="505.0" y="915.0" type="curve" smooth="yes"/>
      <point x="505.0" y="823.9340216999999"/>
      <point x="431.0659783" y="750.0"/>
      <point x="340.0" y="750.0" type="curve" smooth="yes"/>
      <point x="248.93402169999996" y="750.0"/>
      <point x="175.0" y="823.9340217"/>
      <point x="175.0" y="915.0" type="curve" smooth="yes"/>
      <point x="175.0" y="1006.0659783"/>
      <point x="248.93402170000002" y="1080.0"/>
      <point x="340.0" y="1080.0" type="curve" smooth="yes"/>
      <point x="431.0659783" y="1080.0"/>
      <point x="505.0" y="1006.0659783"/>
    </contour>
    <contour>
      <point x="115.00000000000003" y="375.0000000000016" type="line"/>
      <point x="865.0" y="733.8695889396541" type="line"/>
      <point x="865.0" y="795.0" type="line"/>
      <point x="115.00000000000003" y="436.1304110603475" type="line"/>
    </contour>
    <contour>
      <point x="865.0" y="255.0" type="curve" smooth="yes"/>
      <point x="865.0" y="379.1808795"/>
      <point x="764.1808795" y="480.0"/>
      <point x="640.0" y="480.0" type="curve" smooth="yes"/>
      <point x="515.8191205" y="480.0"/>
      <point x="415.0" y="379.1808795"/>
      <point x="415.0" y="255.0" type="curve" smooth="yes"/>
      <point x="415.0" y="130.81912050000003"/>
      <point x="515.8191204999999" y="30.00000000000003"/>
      <point x="640.0" y="30.0" type="curve" smooth="yes"/>
      <point x="764.1808795" y="29.99999999999997"/>
      <point x="865.0" y="130.81912049999994"/>
    </contour>
    <contour>
      <point x="805.0" y="255.0" type="curve" smooth="yes"/>
      <point x="805.0" y="163.93402169999996"/>
      <point x="731.0659783" y="89.99999999999997"/>
      <point x="640.0" y="90.0" type="curve" smooth="yes"/>
      <point x="548.9340216999999" y="90.0"/>
      <point x="475.0" y="163.93402170000002"/>
      <point x="475.0" y="255.0" type="curve" smooth="yes"/>
      <point x="475.0" y="346.06597830000004"/>
      <point x="548.9340217" y="420.0"/>
      <point x="640.0" y="420.0" type="curve" smooth="yes"/>
      <point x="731.0659783" y="420.0"/>
      <point x="805.0" y="346.0659783"/>
    </contour>
  </outline>
</glyph>
<glyph name="ampersand" format="2">
  <advance width="1020"/>
  <unicode hex="0026"/>
  <outline>
    <contour>
      <point x="317.1192169189453" y="848.8597946166992" type="line"/>
      <point x="293.61399750981786" y="878.8910498147892"/>
      <point x="280.84279305620953" y="915.9288139239119"/>
      <point x="280.84279305620953" y="954.0650406504066" type="curve"/>
      <point x="280.84279305620953" y="1048.2719987390244"/>
      <point x="357.3268918781608" y="1124.7560975609756"/>
      <point x="451.5338499667787" y="1124.7560975609756" type="curve" smooth="yes"/>
      <point x="545.7408080553965" y="1124.7560975609756"/>
      <point x="622.2249068773478" y="1048.2719987390244"/>
      <point x="622.2249068773478" y="954.0650406504066" type="curve"/>
      <point x="622.2249068773478" y="898.7078644537182"/>
      <point x="595.3794267249998" y="846.7882774963431"/>
      <point x="550.209710292617" y="814.7865013911122" type="curve"/>
      <point x="417.4217529296875" y="720.7090759277344" type="line"/>
    </contour>
    <contour>
      <point x="263.1060488466882" y="537.5485551793956" type="curve"/>
      <point x="405.38218688964844" y="638.3481521606445" type="line"/>
      <point x="756.7092208862305" y="189.4780044555664" type="line"/>
      <point x="677.9908855594286" y="101.00426429038873"/>
      <point x="563.2959208551409" y="45.243902439024374"/>
      <point x="435.68019143019336" y="45.24390243902435" type="curve"/>
      <point x="277.30750337409575" y="45.2439024390244"/>
      <point x="148.7289719179982" y="166.7186476268293"/>
      <point x="148.7289719179982" y="316.34146341463423" type="curve"/>
      <point x="148.7289719179982" y="404.2616844329038"/>
      <point x="191.36591098349197" y="486.72220489461733"/>
    </contour>
    <contour>
      <point x="451.5338499667787" y="1185.0" type="curve" smooth="yes"/>
      <point x="324.0773772586486" y="1185.0"/>
      <point x="220.5988906171852" y="1081.5215133585366"/>
      <point x="220.5988906171852" y="954.0650406504066" type="curve"/>
      <point x="220.5988906171852" y="902.4689691969138"/>
      <point x="237.87757899559645" y="852.359053049277"/>
      <point x="269.6787613921863" y="811.7285301925286" type="curve"/>
      <point x="368.20863342285156" y="685.842643737793" type="line"/>
      <point x="228.2792739868164" y="586.7056884765625" type="line"/>
      <point x="140.59688389235504" y="524.5845918901692"/>
      <point x="88.4850694789738" y="423.7995113258527"/>
      <point x="88.4850694789738" y="316.3414634146342" type="curve"/>
      <point x="88.4850694789738" y="133.46913300731708"/>
      <point x="244.0579887545835" y="-14.999999999999986"/>
      <point x="435.68019143019325" y="-14.999999999999986" type="curve"/>
      <point x="577.2626970914305" y="-14.999999999999986"/>
      <point x="704.897271329053" y="45.193163490948784"/>
      <point x="794.3672256469727" y="141.36456298828125" type="curve"/>
      <point x="905.0121307373047" y="0" type="line"/>
      <point x="981.5149307250977" y="0" type="line"/>
      <point x="833.5022888183594" y="189.10714721679688" type="line"/>
      <point x="891.4260939561358" y="269.55738034898536"/>
      <point x="925.5582402106811" y="368.26317215751806"/>
      <point x="925.5582402106812" y="474.8780487804878" type="curve"/>
      <point x="865.314338684082" y="474.8780517578125" type="line"/>
      <point x="865.3143377716567" y="387.70387198480034"/>
      <point x="839.295201302857" y="306.5588372065957"/>
      <point x="794.6061172485352" y="238.80252838134766" type="curve"/>
      <point x="454.5953063964844" y="673.2145919799805" type="line"/>
      <point x="585.0364837646484" y="765.6293716430664" type="line"/>
      <point x="646.1484538161367" y="808.9258905007912"/>
      <point x="682.4688093163722" y="879.1700375607694"/>
      <point x="682.4688093163722" y="954.0650406504066" type="curve"/>
      <point x="682.4688093163722" y="1081.5215133585366"/>
      <point x="578.9903226749088" y="1185.0"/>
    </contour>
  </outline>
</glyph>
<glyph name="quotesingle" format="2">
  <advance width="1020"/>
  <unicode hex="0027"/>
  <outline>
    <contour>
      <point x="479.7345132743363" y="987.6106194690267" type="line"/>
      <point x="540.2654867256638" y="987.6106194690267" type="line"/>
      <point x="540.2654867256638" y="1303.0088495575224" type="line"/>
      <point x="479.7345132743363" y="1303.0088495575224" type="line"/>
    </contour>
  </outline>
</glyph>
<glyph name="parenleft" format="2">
  <advance width="1020"/>
  <unicode hex="0028"/>
  <outline>
    <contour>
      <point x="660.0236373457476" y="-60.24390243902439" type="line"/>
      <point x="488.62527413733187" y="352.84527192057146"/>
      <point x="488.62527413733164" y="817.1547280794282"/>
      <point x="660.0236392590093" y="1230.243902439024" type="curve"/>
      <point x="594.9947697017245" y="1230.2439024390244" type="line"/>
      <point x="429.9770945274729" y="815.9330373484286"/>
      <point x="429.97636074099074" y="354.0728022713758"/>
      <point x="594.9925683422781" y="-60.24390243902439" type="curve"/>
    </contour>
  </outline>
</glyph>
<glyph name="parenright" format="2">
  <advance width="1020"/>
  <unicode hex="0029"/>
  <outline>
    <contour>
      <point x="359.42825818766266" y="-60.53097345132744" type="curve"/>
      <point x="424.7692097527553" y="-60.53097345132744" type="line"/>
      <point x="590.5717437347159" y="355.7600109956098"/>
      <point x="590.5710064516338" y="819.8210776897758"/>
      <point x="424.7669979035089" y="1236.1061946902655" type="curve"/>
      <point x="359.42825626528406" y="1236.106194690265" type="line"/>
      <point x="531.6433596822999" y="821.0485899559129"/>
      <point x="531.6433596822997" y="354.52663128302487"/>
    </contour>
  </outline>
</glyph>
<glyph name="asterisk" format="2">
  <advance width="1020"/>
  <unicode hex="002A"/>
  <outline>
    <contour>
      <point x="153.07022094726562" y="313.30181884765625" type="line"/>
      <point x="183.19216918945312" y="261.12906646728516" type="line"/>
      <point x="479.8780517578125" y="432.4207458496094" type="line"/>
      <point x="479.8780517578125" y="89.83740234375" type="line"/>
      <point x="540.1219482421875" y="89.83740234375" type="line"/>
      <point x="540.1219482421875" y="432.4207458496094" type="line"/>
      <point x="836.8078308105469" y="261.12906646728516" type="line"/>
      <point x="866.9297790527344" y="313.30181884765625" type="line"/>
      <point x="570.2439041137695" y="484.59349822998047" type="line"/>
      <point x="866.9297790527344" y="655.8851699829102" type="line"/>
      <point x="836.8078308105469" y="708.0579223632812" type="line"/>
      <point x="540.1219482421875" y="536.766242980957" type="line"/>
      <point x="540.1219482421875" y="879.3495864868164" type="line"/>
      <point x="479.8780517578125" y="879.3495864868164" type="line"/>
      <point x="479.8780517578125" y="536.766242980957" type="line"/>
      <point x="183.19216918945312" y="708.0579223632812" type="line"/>
      <point x="153.07022094726562" y="655.8851699829102" type="line"/>
      <point x="449.75609588623047" y="484.59349822998047" type="line"/>
    </contour>
  </outline>
</glyph>
<glyph name="plus" format="2">
  <advance width="980"/>
  <unicode hex="002B"/>
  <outline>
    <contour>
      <point x="130" y="460" type="line"/>
      <point x="460" y="460" type="line"/>
      <point x="460" y="130" type="line"/>
      <point x="520" y="130" type="line"/>
      <point x="520" y="460" type="line"/>
      <point x="850" y="460" type="line"/>
      <point x="850" y="520" type="line"/>
      <point x="520" y="520" type="line"/>
      <point x="520" y="850" type="line"/>
      <point x="460" y="850" type="line"/>
      <point x="460" y="520" type="line"/>
      <point x="130" y="520" type="line"/>
    </contour>
  </outline>
</glyph>
<glyph name="comma" format="2">
  <advance width="1020"/>
  <unicode hex="002C"/>
  <outline>
    <contour>
      <point x="449.9160842895508" y="-332.9203567504883" type="line"/>
      <point x="519.5404464695563" y="-212.32741619169036"/>
      <point x="556.1946902654868" y="-75.53191603226148"/>
      <point x="556.1946902654868" y="63.71681415929204" type="curve"/>
      <point x="556.1946868896484" y="221.41593170166016" type="line"/>
      <point x="463.80531311035156" y="221.41593170166016" type="line"/>
      <point x="463.80531311035156" y="63.71681213378906" type="line"/>
      <point x="463.80530973451334" y="-59.31419243565487"/>
      <point x="431.42003409152255" y="-180.1776865524193"/>
      <point x="369.9045307940491" y="-286.7256637168141" type="curve"/>
    </contour>
  </outline>
</glyph>
<glyph name="hyphen" format="2">
  <advance width="980"/>
  <unicode hex="002D"/>
  <outline>
    <contour>
      <point x="130.0" y="460.0" type="line"/>
      <point x="850.0" y="460.0" type="line"/>
      <point x="850.0" y="520.0" type="line"/>
      <point x="130.0" y="520.0" type="line"/>
    </contour>
  </outline>
</glyph>
<glyph name="period" format="2">
  <advance width="1020"/>
  <unicode hex="002E"/>
  <outline>
    <contour>
      <point x="603.53659" y="93.53659" type="curve" smooth="yes"/>
      <point x="603.53659" y="145.16083"/>
      <point x="561.62425" y="187.07317"/>
      <point x="510.0" y="187.07317" type="curve" smooth="yes"/>
      <point x="458.37575" y="187.07317"/>
      <point x="416.46341" y="145.16083"/>
      <point x="416.46341" y="93.53659" type="curve" smooth="yes"/>
      <point x="416.46341" y="41.91234"/>
      <point x="458.37575" y="0.0"/>
      <point x="510.0" y="0.0" type="curve" smooth="yes"/>
      <point x="561.62425" y="-0.0"/>
      <point x="603.53659" y="41.91234"/>
    </contour>
  </outline>
</glyph>
<glyph name="slash" format="2">
  <advance width="1020"/>
  <unicode hex="002F"/>
  <outline>
    <contour>
      <point x="267.8392111237238" y="0.0" type="line"/>
      <point x="332.254927616956" y="0.0" type="line"/>
      <point x="782.1607888762762" y="1236.1061946902655" type="line"/>
      <point x="717.7450723830439" y="1236.1061946902655" type="line"/>
    </contour>
  </outline>
</glyph>
<glyph name="zero" format="2">
  <advance width="1020"/>
  <unicode hex="0030"/>
  <outline>
    <contour>
      <point x="510.0" y="1130.0442477876106" type="curve" smooth="yes"/>
      <point x="669.1832837661489" y="1130.0442477876106"/>
      <point x="801.3902046745442" y="1013.6260800628446"/>
      <point x="826.0503616333008" y="861.2903518676758" type="curve"/>
      <point x="189.82300567626953" y="415.3134078979492" type="line"/>
      <point x="189.82300567626953" y="809.8672561645508" type="line"/>
      <point x="189.82300884955748" y="986.5777471115046"/>
      <point x="333.2895095256637" y="1130.0442477876106"/>
    </contour>
    <contour>
      <point x="129.2920379638672" y="365.7079620361328" type="line"/>
      <point x="129.29203539823004" y="155.5895207044248"/>
      <point x="299.8815561026547" y="-15.000000000000002"/>
      <point x="509.99999999999994" y="-15.000000000000002" type="curve" smooth="yes"/>
      <point x="720.1184438973451" y="-15.000000000000002"/>
      <point x="890.70796460177" y="155.58952070442467"/>
      <point x="890.70796460177" y="365.7079646017699" type="curve"/>
      <point x="890.7079620361328" y="809.8672561645508" type="line"/>
      <point x="890.70796460177" y="1019.9857005345134"/>
      <point x="720.1184438973452" y="1190.5752212389382"/>
      <point x="510.0" y="1190.5752212389382" type="curve" smooth="yes"/>
      <point x="299.8815561026548" y="1190.5752212389382"/>
      <point x="129.29203539823004" y="1019.9857005345134"/>
      <point x="129.29203539823004" y="809.8672566371682" type="curve"/>
    </contour>
    <contour>
      <point x="830.1769943237305" y="365.7079620361328" type="line"/>
      <point x="830.1769911504425" y="188.99747412743355"/>
      <point x="686.7104904743362" y="45.53097345132744"/>
      <point x="509.99999999999994" y="45.53097345132744" type="curve" smooth="yes"/>
      <point x="341.3149931610461" y="45.53097345132744"/>
      <point x="202.9229275263609" y="176.26204081541474"/>
      <point x="190.70044708251953" y="342.00728607177734" type="curve"/>
      <point x="830.1769943237305" y="790.2618103027344" type="line"/>
    </contour>
  </outline>
</glyph>
<glyph name="one" format="2">
  <advance width="1020"/>
  <unicode hex="0031"/>
  <outline>
    <contour>
      <point x="147.2566375732422" y="0" type="line"/>
      <point x="892.7433624267578" y="0" type="line"/>
      <point x="892.7433624267578" y="60.530975341796875" type="line"/>
      <point x="576.8141555786133" y="60.530975341796875" type="line"/>
      <point x="576.8141555786133" y="1175.5752182006836" type="line"/>
      <point x="516.2831878662109" y="1175.5752182006836" type="line"/>
      <point x="147.2566375732422" y="962.5176467895508" type="line"/>
      <point x="147.2566375732422" y="892.6224975585938" type="line"/>
      <point x="516.2831878662109" y="1105.680076599121" type="line"/>
      <point x="516.2831878662109" y="60.530975341796875" type="line"/>
      <point x="147.2566375732422" y="60.530975341796875" type="line"/>
    </contour>
  </outline>
</glyph>
<glyph name="two" format="2">
  <advance width="1020"/>
  <unicode hex="0032"/>
  <outline>
    <contour>
      <point x="136.38211059570312" y="0" type="line"/>
      <point x="883.6178894042969" y="0" type="line"/>
      <point x="883.6178894042969" y="60.24390411376953" type="line"/>
      <point x="227.08538818359375" y="60.24390411376953" type="line"/>
      <point x="758.1520080566406" y="532.0777893066406" type="line"/>
      <point x="837.9549673415377" y="602.9798927271192"/>
      <point x="883.6178861789058" y="704.631837530537"/>
      <point x="883.6178861789058" y="811.3821138211381" type="curve"/>
      <point x="883.6178861789058" y="1017.5874369439023"/>
      <point x="716.2053231228081" y="1185.0"/>
      <point x="510.00000000004394" y="1185.0" type="curve" smooth="yes"/>
      <point x="303.7946768772797" y="1185.0"/>
      <point x="136.38211382118214" y="1017.5874369439024"/>
      <point x="136.38211382118214" y="811.3821138211381" type="curve"/>
      <point x="196.62601470947266" y="811.3821105957031" type="line"/>
      <point x="196.62601626020654" y="984.3379223243902"/>
      <point x="337.0441914967919" y="1124.7560975609756"/>
      <point x="510.00000000004394" y="1124.7560975609756" type="curve" smooth="yes"/>
      <point x="682.9558085032959" y="1124.7560975609756"/>
      <point x="823.3739837398814" y="984.3379223243901"/>
      <point x="823.3739837398814" y="811.3821138211381" type="curve"/>
      <point x="823.3739837398814" y="721.8447533680597"/>
      <point x="785.0739683642671" y="636.5836454919257"/>
      <point x="718.1388103721763" y="577.1141277414149" type="curve"/>
      <point x="136.38211059570312" y="60.24390411376953" type="line"/>
    </contour>
  </outline>
</glyph>
<glyph name="three" format="2">
  <advance width="1020"/>
  <unicode hex="0033"/>
  <outline>
    <contour>
      <point x="131.09756469726562" y="306.68746185302734" type="line"/>
      <point x="131.09756097560978" y="129.14332111871812"/>
      <point x="300.87805278780485" y="-14.999999999999986"/>
      <point x="509.99999999999994" y="-14.999999999999986" type="curve" smooth="yes"/>
      <point x="719.1219472121951" y="-14.999999999999986"/>
      <point x="888.9024390243902" y="129.143321118718"/>
      <point x="888.9024390243902" y="306.68746454906403" type="curve"/>
      <point x="888.9024390243902" y="436.2570498948095"/>
      <point x="798.4789577648828" y="548.0376737520436"/>
      <point x="668.3305892944336" y="598.9802627563477" type="curve"/>
      <point x="789.4665240576214" y="648.9804849991531"/>
      <point x="873.0487804878048" y="754.5459388769461"/>
      <point x="873.048780487805" y="876.5655133295519" type="curve"/>
      <point x="873.0487804878048" y="1046.795139208962"/>
      <point x="710.3720749439024" y="1185.0000000000002"/>
      <point x="510.0" y="1185.0000000000002" type="curve" smooth="yes"/>
      <point x="309.62792505609764" y="1185.0000000000002"/>
      <point x="146.95121951219514" y="1046.7951392089622"/>
      <point x="146.95121951219514" y="876.5655133295519" type="curve"/>
      <point x="207.19512176513672" y="876.5655136108398" type="line"/>
      <point x="207.19512195121953" y="1013.54562458945"/>
      <point x="342.8774396756098" y="1124.7560975609758"/>
      <point x="510.0" y="1124.7560975609758" type="curve" smooth="yes"/>
      <point x="677.1225603243902" y="1124.7560975609758"/>
      <point x="812.8048780487806" y="1013.5456245894499"/>
      <point x="812.8048780487806" y="876.5655133295519" type="curve"/>
      <point x="812.8048780487806" y="739.585402069654"/>
      <point x="677.1225603243903" y="628.3749290981282"/>
      <point x="510.0" y="628.3749290981282" type="curve"/>
      <point x="447.3780517578125" y="628.3749313354492" type="line"/>
      <point x="447.3780517578125" y="568.1310272216797" type="line"/>
      <point x="510" y="568.1310272216797" type="line"/>
      <point x="685.872432592683" y="568.1310266591038"/>
      <point x="828.6585365853658" y="450.98209335989793"/>
      <point x="828.6585365853658" y="306.6874645490641" type="curve"/>
      <point x="828.6585365853658" y="162.39283573823022"/>
      <point x="685.8724325926829" y="45.243902439024374"/>
      <point x="509.99999999999994" y="45.2439024390244" type="curve" smooth="yes"/>
      <point x="334.12756740731703" y="45.24390243902443"/>
      <point x="191.34146341463418" y="162.3928357382303"/>
      <point x="191.34146341463418" y="306.68746454906415" type="curve"/>
    </contour>
  </outline>
</glyph>
<glyph name="four" format="2">
  <advance width="980"/>
  <unicode hex="0034"/>
  <outline>
    <contour>
      <point x="210.64500427246094" y="390" type="line"/>
      <point x="606.1538467407227" y="1026.3384857177734" type="line"/>
      <point x="606.1538467407227" y="390" type="line"/>
    </contour>
    <contour>
      <point x="140" y="330" type="line"/>
      <point x="606.1538467407227" y="330" type="line"/>
      <point x="606.1538467407227" y="30" type="line"/>
      <point x="666.1538467407227" y="30" type="line"/>
      <point x="666.1538467407227" y="330" type="line"/>
      <point x="860" y="330" type="line"/>
      <point x="860" y="390" type="line"/>
      <point x="666.1538467407227" y="390" type="line"/>
      <point x="666.1538467407227" y="1140" type="line"/>
      <point x="606.1538467407227" y="1140" type="line"/>
      <point x="140" y="390" type="line"/>
    </contour>
  </outline>
</glyph>
<glyph name="five" format="2">
  <advance width="1020"/>
  <unicode hex="0035"/>
  <outline>
    <contour>
      <point x="876.5425345568153" y="363.90243902439016" type="curve" smooth="yes"/>
      <point x="876.5425345568153" y="573.0243862365853"/>
      <point x="706.7620427446202" y="742.8048780487806"/>
      <point x="497.64009553242516" y="742.8048780487806" type="curve" smooth="yes"/>
      <point x="390.64184323859655" y="742.8048780487806"/>
      <point x="293.9428163225922" y="698.3579318910226"/>
      <point x="225.0149383544922" y="626.9231643676758" type="curve"/>
      <point x="275.7627182006836" y="1109.7560958862305" type="line"/>
      <point x="845.7567291259766" y="1109.7560958862305" type="line"/>
      <point x="845.7567291259766" y="1170" type="line"/>
      <point x="221.51886749267578" y="1170" type="line"/>
      <point x="153.45746612548828" y="522.4390258789062" type="line"/>
      <point x="221.22230529785156" y="522.4390258789062" type="line"/>
      <point x="276.242910879208" y="618.102355267195"/>
      <point x="379.47334267016" y="682.5609756097562"/>
      <point x="497.6400955324251" y="682.5609756097563" type="curve" smooth="yes"/>
      <point x="673.512528125108" y="682.5609756097562"/>
      <point x="816.2986321177909" y="539.7748716170731"/>
      <point x="816.2986321177909" y="363.90243902439016" type="curve" smooth="yes"/>
      <point x="816.2986321177909" y="188.03000643170725"/>
      <point x="673.512528125108" y="45.2439024390244"/>
      <point x="497.640095532425" y="45.2439024390244" type="curve" smooth="yes"/>
      <point x="379.46595602799096" y="45.2439024390244"/>
      <point x="276.23000500181433" y="109.71058169212091"/>
      <point x="221.21195475260419" y="205.36585489908853" type="curve"/>
      <point x="153.45746612548828" y="205.36585235595703" type="line"/>
      <point x="213.5155197478876" y="75.31918438097131"/>
      <point x="345.1134482601078" y="-14.999999999999986"/>
      <point x="497.640095532425" y="-15.0" type="curve" smooth="yes"/>
      <point x="706.7620427446202" y="-14.999999999999986"/>
      <point x="876.5425345568153" y="154.780491812195"/>
    </contour>
  </outline>
</glyph>
<glyph name="six" format="2">
  <advance width="1020"/>
  <unicode hex="0036"/>
  <outline>
    <contour>
      <point x="893.3628318584072" y="368.3628318584071" type="curve" smooth="yes"/>
      <point x="893.3628318584072" y="579.9465368707965"/>
      <point x="721.5837050123894" y="751.7256637168142"/>
      <point x="510.0" y="751.7256637168142" type="curve" smooth="yes"/>
      <point x="449.0012641797482" y="751.7256637168142"/>
      <point x="391.3108692998049" y="737.4483131150874"/>
      <point x="340.09107971191406" y="712.0478897094727" type="curve"/>
      <point x="619.1572265625" y="1175.5752182006836" type="line"/>
      <point x="548.5027008056641" y="1175.5752182006836" type="line"/>
      <point x="181.56634521484375" y="566.0959777832031" type="line"/>
      <point x="181.5754165649414" y="566.0905151367188" type="line"/>
      <point x="146.7067062884372" y="508.3547572081144"/>
      <point x="126.63716814159292" y="440.68404648498694"/>
      <point x="126.6371681415929" y="368.36283185840705" type="curve" smooth="yes"/>
      <point x="126.6371681415929" y="156.77912684601776"/>
      <point x="298.4162949876105" y="-15.000000000000002"/>
      <point x="509.99999999999994" y="-15.000000000000002" type="curve" smooth="yes"/>
      <point x="721.5837050123894" y="-15.000000000000062"/>
      <point x="893.3628318584072" y="156.77912684601765"/>
    </contour>
    <contour>
      <point x="832.8318584070796" y="368.3628318584071" type="curve" smooth="yes"/>
      <point x="832.8318584070796" y="190.18708026902647"/>
      <point x="688.1757515893805" y="45.53097345132738"/>
      <point x="509.99999999999994" y="45.53097345132744" type="curve" smooth="yes"/>
      <point x="331.8242484106194" y="45.53097345132744"/>
      <point x="187.16814159292034" y="190.18708026902658"/>
      <point x="187.16814159292034" y="368.3628318584071" type="curve" smooth="yes"/>
      <point x="187.16814159292034" y="546.5385834477877"/>
      <point x="331.8242484106195" y="691.1946902654868"/>
      <point x="510.0" y="691.1946902654868" type="curve" smooth="yes"/>
      <point x="688.1757515893805" y="691.1946902654868"/>
      <point x="832.8318584070796" y="546.5385834477877"/>
    </contour>
  </outline>
</glyph>
<glyph name="seven" format="2">
  <advance width="1020"/>
  <unicode hex="0037"/>
  <outline>
    <contour>
      <point x="314.25450134277344" y="0" type="line"/>
      <point x="380.3231430053711" y="0" type="line"/>
      <point x="879.9847564697266" y="1109.756103515625" type="line"/>
      <point x="879.9847564697266" y="1170" type="line"/>
      <point x="140.01524353027344" y="1170" type="line"/>
      <point x="140.01524353027344" y="1109.756103515625" type="line"/>
      <point x="813.9161071777344" y="1109.756103515625" type="line"/>
    </contour>
  </outline>
</glyph>
<glyph name="eight" format="2">
  <advance width="1020"/>
  <unicode hex="0038"/>
  <outline>
    <contour>
      <point x="896.0176991150443" y="308.0821455110451" type="curve" smooth="yes"/>
      <point x="896.0176991150443" y="438.19672028607295"/>
      <point x="803.9199206209959" y="550.4498114249496"/>
      <point x="671.3551330566406" y="601.6210556030273" type="curve"/>
      <point x="794.8646114951132" y="651.859477985912"/>
      <point x="880.0884955752213" y="757.9618000984653"/>
      <point x="880.0884955752213" y="880.6042694048504" type="curve" smooth="yes"/>
      <point x="880.0884955752213" y="1051.68189348578"/>
      <point x="714.2573994371683" y="1190.5752212389382"/>
      <point x="510.0" y="1190.5752212389382" type="curve" smooth="yes"/>
      <point x="305.74260056283185" y="1190.5752212389382"/>
      <point x="139.9115044247787" y="1051.68189348578"/>
      <point x="139.9115044247787" y="880.6042694048504" type="curve" smooth="yes"/>
      <point x="139.9115044247787" y="757.9612868655933"/>
      <point x="225.1361017943464" y="651.8585899545136"/>
      <point x="348.6461486816406" y="601.6192779541016" type="curve"/>
      <point x="216.0808366660407" y="550.4507344397018"/>
      <point x="123.98230088495565" y="438.19725522773945"/>
      <point x="123.98230088495565" y="308.08214551104516" type="curve" smooth="yes"/>
      <point x="123.98230088495569" y="129.76825670967375"/>
      <point x="296.95103387256626" y="-15.000000000000002"/>
      <point x="509.9999999999999" y="-15.000000000000002" type="curve" smooth="yes"/>
      <point x="723.0489661274337" y="-15.000000000000062"/>
      <point x="896.0176991150443" y="129.76825670967366"/>
    </contour>
    <contour>
      <point x="819.5575221238937" y="880.6042694048504" type="curve" smooth="yes"/>
      <point x="819.5575221238937" y="742.9345987469296"/>
      <point x="680.8494460141592" y="631.1642910220901"/>
      <point x="509.9999999999999" y="631.1642910220901" type="curve" smooth="yes"/>
      <point x="339.1505539858406" y="631.1642910220901"/>
      <point x="200.44247787610612" y="742.9345987469297"/>
      <point x="200.44247787610612" y="880.6042694048504" type="curve" smooth="yes"/>
      <point x="200.44247787610612" y="1018.2739400627711"/>
      <point x="339.1505539858407" y="1130.0442477876106"/>
      <point x="510.0" y="1130.0442477876106" type="curve" smooth="yes"/>
      <point x="680.8494460141594" y="1130.0442477876106"/>
      <point x="819.5575221238937" y="1018.2739400627711"/>
    </contour>
    <contour>
      <point x="835.4867256637169" y="308.0821455110451" type="curve" smooth="yes"/>
      <point x="835.4867256637169" y="163.17621013268254"/>
      <point x="689.6410127044248" y="45.530973451327405"/>
      <point x="509.9999999999999" y="45.53097345132744" type="curve" smooth="yes"/>
      <point x="330.35898729557516" y="45.53097345132744"/>
      <point x="184.51327433628313" y="163.17621013268263"/>
      <point x="184.51327433628313" y="308.0821455110451" type="curve" smooth="yes"/>
      <point x="184.51327433628313" y="452.9880808894076"/>
      <point x="330.3589872955752" y="570.6333175707628"/>
      <point x="510.0" y="570.6333175707628" type="curve" smooth="yes"/>
      <point x="689.6410127044248" y="570.6333175707628"/>
      <point x="835.4867256637169" y="452.98808088940757"/>
    </contour>
  </outline>
</glyph>
<glyph name="nine" format="2">
  <advance width="1020"/>
  <unicode hex="0039"/>
  <outline>
    <contour>
      <point x="891.5447154471544" y="803.4552845528457" type="curve" smooth="yes"/>
      <point x="891.5447154471544" y="1014.0355438097562"/>
      <point x="720.5802592569105" y="1185.0"/>
      <point x="510.0" y="1185.0" type="curve" smooth="yes"/>
      <point x="299.41974074308945" y="1185.0"/>
      <point x="128.4552845528455" y="1014.0355438097562"/>
      <point x="128.4552845528455" y="803.4552845528456" type="curve" smooth="yes"/>
      <point x="128.4552845528455" y="592.8750252959351"/>
      <point x="299.4197407430894" y="421.9105691056911"/>
      <point x="509.99999999999994" y="421.9105691056911" type="curve" smooth="yes"/>
      <point x="570.710078163508" y="421.9105691056911"/>
      <point x="628.1274368236947" y="436.1205044268309"/>
      <point x="679.1047668457031" y="461.40289306640625" type="curve"/>
      <point x="401.317626953125" y="0" type="line"/>
      <point x="471.63707733154297" y="0" type="line"/>
      <point x="836.8760452270508" y="606.6599044799805" type="line"/>
      <point x="836.8662109375" y="606.6658248901367" type="line"/>
      <point x="871.5700074121013" y="664.1260953133219"/>
      <point x="891.5447154471543" y="731.4764249757225"/>
    </contour>
    <contour>
      <point x="831.30081300813" y="803.4552845528456" type="curve" smooth="yes"/>
      <point x="831.30081300813" y="626.124539915447"/>
      <point x="687.3307446373983" y="482.1544715447154"/>
      <point x="509.99999999999994" y="482.1544715447155" type="curve" smooth="yes"/>
      <point x="332.6692553626016" y="482.1544715447155"/>
      <point x="188.6991869918699" y="626.1245399154471"/>
      <point x="188.6991869918699" y="803.4552845528456" type="curve" smooth="yes"/>
      <point x="188.6991869918699" y="980.786029190244"/>
      <point x="332.6692553626016" y="1124.7560975609756"/>
      <point x="510.0" y="1124.7560975609756" type="curve" smooth="yes"/>
      <point x="687.3307446373983" y="1124.7560975609756"/>
      <point x="831.30081300813" y="980.786029190244"/>
    </contour>
  </outline>
</glyph>
<glyph name="colon" format="2">
  <advance width="1020"/>
  <unicode hex="003A"/>
  <outline>
    <contour>
      <point x="603.5365853658536" y="695.9756097560976" type="curve" smooth="yes"/>
      <point x="603.5365853658536" y="747.5998561390244"/>
      <point x="561.6242463829269" y="789.5121951219512"/>
      <point x="510.0" y="789.5121951219512" type="curve" smooth="yes"/>
      <point x="458.3757536170732" y="789.5121951219512"/>
      <point x="416.4634146341464" y="747.5998561390244"/>
      <point x="416.4634146341464" y="695.9756097560976" type="curve" smooth="yes"/>
      <point x="416.4634146341464" y="644.3513633731708"/>
      <point x="458.3757536170732" y="602.4390243902438"/>
      <point x="510.0" y="602.4390243902438" type="curve" smooth="yes"/>
      <point x="561.6242463829269" y="602.4390243902438"/>
      <point x="603.5365853658536" y="644.3513633731708"/>
    </contour>
    <contour>
      <point x="603.5365853658536" y="93.53658536585365" type="curve" smooth="yes"/>
      <point x="603.5365853658536" y="145.16083174878048"/>
      <point x="561.6242463829269" y="187.0731707317073"/>
      <point x="510.0" y="187.0731707317073" type="curve" smooth="yes"/>
      <point x="458.3757536170732" y="187.0731707317073"/>
      <point x="416.4634146341464" y="145.1608317487805"/>
      <point x="416.4634146341464" y="93.53658536585365" type="curve" smooth="yes"/>
      <point x="416.4634146341464" y="41.91233898292684"/>
      <point x="458.3757536170732" y="0.0"/>
      <point x="510.0" y="0.0" type="curve" smooth="yes"/>
      <point x="561.6242463829269" y="-1.5019602544522443e-14"/>
      <point x="603.5365853658536" y="41.91233898292681"/>
    </contour>
  </outline>
</glyph>
<glyph name="semicolon" format="2">
  <advance width="1020"/>
  <unicode hex="003B"/>
  <outline>
    <contour>
      <point x="603.5365853658536" y="695.9756097560976" type="curve" smooth="yes"/>
      <point x="603.5365853658536" y="747.5998561390244"/>
      <point x="561.6242463829268" y="789.5121951219512"/>
      <point x="509.9999999999999" y="789.5121951219512" type="curve" smooth="yes"/>
      <point x="458.37575361707314" y="789.5121951219512"/>
      <point x="416.4634146341463" y="747.5998561390244"/>
      <point x="416.4634146341463" y="695.9756097560976" type="curve" smooth="yes"/>
      <point x="416.4634146341463" y="644.3513633731708"/>
      <point x="458.3757536170731" y="602.4390243902438"/>
      <point x="509.9999999999999" y="602.4390243902438" type="curve" smooth="yes"/>
      <point x="561.6242463829268" y="602.4390243902438"/>
      <point x="603.5365853658536" y="644.3513633731708"/>
    </contour>
    <contour>
      <point x="450.20103454589844" y="-331.3414611816406" type="line"/>
      <point x="519.4952004497142" y="-211.32044335067283"/>
      <point x="555.9756097560975" y="-75.17370233834153"/>
      <point x="555.9756097560975" y="63.41463414634146" type="curve"/>
      <point x="555.9756088256836" y="220.36585235595703" type="line"/>
      <point x="464.0243911743164" y="220.36585235595703" type="line"/>
      <point x="464.0243911743164" y="63.414634704589844" type="line"/>
      <point x="464.0243902439024" y="-59.03289206502506"/>
      <point x="431.79270330653554" y="-179.32318532893217"/>
      <point x="370.5689402008523" y="-285.36585365853654" type="curve"/>
    </contour>
  </outline>
</glyph>
<glyph name="less" format="2">
  <advance width="980"/>
  <unicode hex="003C"/>
  <outline>
    <contour>
      <point x="130" y="522.9499206542969" type="line"/>
      <point x="130" y="457.0500793457031" type="line"/>
      <point x="850" y="130" type="line"/>
      <point x="850" y="195.89984893798828" type="line"/>
      <point x="202.53917694091797" y="490" type="line"/>
      <point x="850" y="784.1001510620117" type="line"/>
      <point x="850" y="850" type="line"/>
    </contour>
  </outline>
</glyph>
<glyph name="equal" format="2">
  <advance width="1020"/>
  <unicode hex="003D"/>
  <outline>
    <contour>
      <point x="115.2439" y="579.71545" type="line"/>
      <point x="904.7561" y="579.71545" type="line"/>
      <point x="904.7561" y="639.95935" type="line"/>
      <point x="115.2439" y="639.95935" type="line"/>
    </contour>
    <contour>
      <point x="115.2439" y="329.22764" type="line"/>
      <point x="904.7561" y="329.22764" type="line"/>
      <point x="904.7561" y="389.47154" type="line"/>
      <point x="115.2439" y="389.47154" type="line"/>
    </contour>
  </outline>
</glyph>
<glyph name="greater" format="2">
  <advance width="1020"/>
  <unicode hex="003E"/>
  <outline>
    <contour>
      <point x="907.2560958862305" y="517.7248611450195" type="line"/>
      <point x="117.74390411376953" y="879.3495941162109" type="line"/>
      <point x="117.74390411376953" y="813.0868682861328" type="line"/>
      <point x="834.9225082397461" y="484.59349822998047" type="line"/>
      <point x="117.74390411376953" y="156.1001205444336" type="line"/>
      <point x="117.74390411376953" y="89.83739471435547" type="line"/>
      <point x="907.2560958862305" y="451.4621353149414" type="line"/>
    </contour>
  </outline>
</glyph>
<glyph name="question" format="2">
  <advance width="980"/>
  <unicode hex="003F"/>
  <outline>
    <contour>
      <point x="455" y="326" type="line"/>
      <point x="515" y="326" type="line"/>
      <point x="515" y="491.3802490234375" type="line"/>
      <point x="680.3318187780656" y="506.5297101910111"/>
      <point x="810.0" y="645.7415302308775"/>
      <point x="809.9999999999999" y="815.0" type="curve"/>
      <point x="810.0" y="994.3723815000001"/>
      <point x="664.3723815000001" y="1140.0"/>
      <point x="485.0" y="1140.0" type="curve" smooth="yes"/>
      <point x="305.62761850000004" y="1140.0"/>
      <point x="160.0" y="994.3723815000001"/>
      <point x="160.0" y="815.0" type="curve"/>
      <point x="220" y="815" type="line"/>
      <point x="220.0" y="961.2574803"/>
      <point x="338.7425197" y="1080.0"/>
      <point x="485.0" y="1080.0" type="curve" smooth="yes"/>
      <point x="631.2574803" y="1080.0"/>
      <point x="750.0" y="961.2574803"/>
      <point x="750.0" y="815.0" type="curve"/>
      <point x="750.0" y="668.7425197"/>
      <point x="631.2574803" y="550.0"/>
      <point x="485.0" y="550.0" type="curve"/>
      <point x="455" y="550" type="line"/>
    </contour>
    <contour>
      <point x="575.0" y="120.0" type="curve" smooth="yes"/>
      <point x="575.0" y="169.6723518"/>
      <point x="534.6723518" y="210.0"/>
      <point x="485.0" y="210.0" type="curve" smooth="yes"/>
      <point x="435.3276482" y="210.0"/>
      <point x="395.0" y="169.6723518"/>
      <point x="395.0" y="120.0" type="curve" smooth="yes"/>
      <point x="395.0" y="70.32764820000001"/>
      <point x="435.3276482" y="30.0"/>
      <point x="485.0" y="30.0" type="curve" smooth="yes"/>
      <point x="534.6723518" y="29.999999999999986"/>
      <point x="575.0" y="70.32764819999998"/>
    </contour>
  </outline>
</glyph>
<glyph name="at" format="2">
  <advance width="1020"/>
  <unicode hex="0040"/>
  <outline>
    <contour>
      <point x="115.24390411376953" y="379.75609588623047" type="line"/>
      <point x="115.2439024390244" y="161.88427808048786"/>
      <point x="292.1281805195121" y="-14.999999999999986"/>
      <point x="509.99999999999994" y="-14.999999999999986" type="curve" smooth="yes"/>
      <point x="677.2405873514173" y="-14.999999999999986"/>
      <point x="820.3302860267162" y="89.22465858070295"/>
      <point x="877.8037733372634" y="236.21951219512195" type="curve"/>
      <point x="812.1886367797852" y="236.21951293945312" type="line"/>
      <point x="758.4243793019972" y="123.33517264732728"/>
      <point x="643.2598257817375" y="45.24390243902439"/>
      <point x="509.9999999999999" y="45.24390243902439" type="curve" smooth="yes"/>
      <point x="325.37769513902435" y="45.2439024390244"/>
      <point x="175.4878048780488" y="195.13379270000001"/>
      <point x="175.4878048780488" y="379.75609756097566" type="curve"/>
      <point x="175.48780822753906" y="790.2439041137695" type="line"/>
      <point x="175.4878048780488" y="974.8662073000002"/>
      <point x="325.3776951390244" y="1124.7560975609756"/>
      <point x="510.0" y="1124.7560975609756" type="curve" smooth="yes"/>
      <point x="694.6223048609755" y="1124.7560975609756"/>
      <point x="844.5121951219512" y="974.8662073"/>
      <point x="844.5121951219512" y="790.2439024390244" type="curve"/>
      <point x="844.5121917724609" y="585.8536605834961" type="line"/>
      <point x="844.5121951219512" y="479.10521686341474"/>
      <point x="757.8460026487805" y="392.43902439024396"/>
      <point x="651.0975609756098" y="392.43902439024396" type="curve"/>
      <point x="571.8077392578125" y="392.43902587890625" type="line"/>
      <point x="571.8292694091797" y="394.0243911743164" type="line"/>
      <point x="571.8292694091797" y="775.9756088256836" type="line"/>
      <point x="571.8292682926829" y="810.1001116024391"/>
      <point x="544.1245018463414" y="837.8048780487806"/>
      <point x="510.0" y="837.8048780487806" type="curve" smooth="yes"/>
      <point x="475.87549815365855" y="837.8048780487806"/>
      <point x="448.1707317073171" y="810.1001116024391"/>
      <point x="448.1707317073171" y="775.9756097560976" type="curve" smooth="yes"/>
      <point x="448.1707305908203" y="394.0243911743164" type="line"/>
      <point x="448.1707317073171" y="359.89988839756097"/>
      <point x="475.8754981536585" y="332.1951219512195"/>
      <point x="510.0" y="332.1951219512195" type="curve" smooth="yes"/>
      <point x="651.0975646972656" y="332.1951217651367" type="line"/>
      <point x="791.0955172682927" y="332.19512195121956"/>
      <point x="904.7560975609756" y="445.85570224390256"/>
      <point x="904.7560975609756" y="585.8536585365854" type="curve"/>
      <point x="904.7560958862305" y="790.2439041137695" type="line"/>
      <point x="904.7560975609756" y="1008.1157219195122"/>
      <point x="727.8718194804878" y="1185.0"/>
      <point x="510.0" y="1185.0" type="curve" smooth="yes"/>
      <point x="292.12818051951217" y="1185.0"/>
      <point x="115.2439024390244" y="1008.1157219195123"/>
      <point x="115.2439024390244" y="790.2439024390244" type="curve"/>
    </contour>
  </outline>
</glyph>
<glyph name="A" format="2">
  <advance width="980"/>
  <unicode hex="0041"/>
  <outline>
    <contour>
      <point x="100" y="30" type="line"/>
      <point x="163.05130767822266" y="30" type="line"/>
      <point x="280.23596954345703" y="392.85713958740234" type="line"/>
      <point x="699.764030456543" y="392.85713958740234" type="line"/>
      <point x="816.9486923217773" y="30" type="line"/>
      <point x="880" y="30" type="line"/>
      <point x="521.5256576538086" y="1140" type="line"/>
      <point x="458.4743423461914" y="1140" type="line"/>
    </contour>
    <contour>
      <point x="299.6129608154297" y="452.85713958740234" type="line"/>
      <point x="490" y="1042.382194519043" type="line"/>
      <point x="680.3870391845703" y="452.85713958740234" type="line"/>
    </contour>
  </outline>
</glyph>
<glyph name="B" format="2">
  <advance width="1020"/>
  <unicode hex="0042"/>
  <outline>
    <contour>
      <point x="128.36283111572266" y="0" type="line"/>
      <point x="612.6106185913086" y="0" type="line"/>
      <point x="783.1670132601771" y="0.0"/>
      <point x="921.637168141593" y="138.47015488141597"/>
      <point x="921.637168141593" y="309.0265486725664" type="curve" smooth="yes"/>
      <point x="921.637168141593" y="442.01602061088425"/>
      <point x="837.4482959872756" y="555.4972868438074"/>
      <point x="719.5047836303711" y="599.0252838134766" type="curve"/>
      <point x="811.7517068774238" y="652.5052978504942"/>
      <point x="873.849557522124" y="752.332342892646"/>
      <point x="873.849557522124" y="866.548672566372" type="curve" smooth="yes"/>
      <point x="873.849557522124" y="1037.1050663575222"/>
      <point x="735.3794026407079" y="1175.5752212389382"/>
      <point x="564.8230088495575" y="1175.5752212389382" type="curve"/>
      <point x="128.36283111572266" y="1175.5752182006836" type="line"/>
    </contour>
    <contour>
      <point x="564.8230056762695" y="1115.0442504882812" type="line"/>
      <point x="701.9714492176992" y="1115.0442477876106"/>
      <point x="813.3185840707965" y="1003.6971129345134"/>
      <point x="813.3185840707965" y="866.5486725663718" type="curve" smooth="yes"/>
      <point x="813.3185840707965" y="729.4002321982302"/>
      <point x="701.9714492176992" y="618.0530973451328"/>
      <point x="564.8230088495575" y="618.0530973451328" type="curve"/>
      <point x="188.89380645751953" y="618.0531005859375" type="line"/>
      <point x="188.89380645751953" y="1115.0442504882812" type="line"/>
    </contour>
    <contour>
      <point x="612.6106185913086" y="557.5221252441406" type="line"/>
      <point x="749.7590598371683" y="557.5221238938053"/>
      <point x="861.1061946902655" y="446.17498904070806"/>
      <point x="861.1061946902655" y="309.0265486725664" type="curve" smooth="yes"/>
      <point x="861.1061946902655" y="171.8781083044248"/>
      <point x="749.7590598371683" y="60.53097345132744"/>
      <point x="612.6106194690266" y="60.53097345132744" type="curve"/>
      <point x="188.89380645751953" y="60.530975341796875" type="line"/>
      <point x="188.89380645751953" y="557.5221252441406" type="line"/>
    </contour>
  </outline>
</glyph>
<glyph name="C" format="2">
  <advance width="980"/>
  <unicode hex="0043"/>
  <outline>
    <contour>
      <point x="130" y="390" type="line"/>
      <point x="130.0" y="191.31059280000005"/>
      <point x="291.31059279999994" y="30.0"/>
      <point x="489.99999999999994" y="30.0" type="curve" smooth="yes"/>
      <point x="688.6894071999999" y="30.0"/>
      <point x="850.0" y="191.3105927999999"/>
      <point x="850.0" y="389.99999999999994" type="curve"/>
      <point x="790" y="390" type="line"/>
      <point x="790.0" y="224.42549399999993"/>
      <point x="655.5745059999999" y="90.0"/>
      <point x="489.99999999999994" y="90.0" type="curve" smooth="yes"/>
      <point x="324.42549399999996" y="90.0"/>
      <point x="190.0" y="224.42549400000001"/>
      <point x="190.0" y="390.00000000000006" type="curve"/>
      <point x="190" y="780" type="line"/>
      <point x="190.0" y="945.574506"/>
      <point x="324.425494" y="1080.0"/>
      <point x="490.0" y="1080.0" type="curve" smooth="yes"/>
      <point x="655.574506" y="1080.0"/>
      <point x="790.0" y="945.574506"/>
      <point x="790.0" y="780.0" type="curve"/>
      <point x="850" y="780" type="line"/>
      <point x="850.0" y="978.6894072"/>
      <point x="688.6894072" y="1140.0"/>
      <point x="490.0" y="1140.0" type="curve" smooth="yes"/>
      <point x="291.3105928" y="1140.0"/>
      <point x="130.0" y="978.6894072"/>
      <point x="130.0" y="780.0" type="curve"/>
    </contour>
  </outline>
</glyph>
<glyph name="D" format="2">
  <advance width="980"/>
  <unicode hex="0044"/>
  <outline>
    <contour>
      <point x="135" y="30" type="line"/>
      <point x="495" y="30" type="line"/>
      <point x="693.6894072" y="30.0"/>
      <point x="855.0" y="191.31059280000002"/>
      <point x="855.0" y="390.0" type="curve"/>
      <point x="855" y="780" type="line"/>
      <point x="855.0" y="978.6894072"/>
      <point x="693.6894072" y="1140.0"/>
      <point x="495.0" y="1140.0" type="curve"/>
      <point x="135" y="1140" type="line"/>
    </contour>
    <contour>
      <point x="795" y="390" type="line"/>
      <point x="795.0" y="224.42549400000001"/>
      <point x="660.574506" y="90.0"/>
      <point x="495.0" y="90.0" type="curve"/>
      <point x="195" y="90" type="line"/>
      <point x="195" y="1080" type="line"/>
      <point x="495" y="1080" type="line"/>
      <point x="660.574506" y="1080.0"/>
      <point x="795.0" y="945.574506"/>
      <point x="795.0" y="780.0" type="curve"/>
    </contour>
  </outline>
</glyph>
<glyph name="E" format="2">
  <advance width="980"/>
  <unicode hex="0045"/>
  <outline>
    <contour>
      <point x="145" y="30" type="line"/>
      <point x="865" y="30" type="line"/>
      <point x="865" y="90" type="line"/>
      <point x="205" y="90" type="line"/>
      <point x="205" y="555" type="line"/>
      <point x="805" y="555" type="line"/>
      <point x="805" y="615" type="line"/>
      <point x="205" y="615" type="line"/>
      <point x="205" y="1080" type="line"/>
      <point x="865" y="1080" type="line"/>
      <point x="865" y="1140" type="line"/>
      <point x="145" y="1140" type="line"/>
    </contour>
  </outline>
</glyph>
<glyph name="F" format="2">
  <advance width="1020"/>
  <unicode hex="0046"/>
  <outline>
    <contour>
      <point x="151.9512176513672" y="0" type="line"/>
      <point x="212.19512176513672" y="0" type="line"/>
      <point x="212.19512176513672" y="554.8780517578125" type="line"/>
      <point x="814.634147644043" y="554.8780517578125" type="line"/>
      <point x="814.634147644043" y="615.1219482421875" type="line"/>
      <point x="212.19512176513672" y="615.1219482421875" type="line"/>
      <point x="212.19512176513672" y="1109.7560958862305" type="line"/>
      <point x="878.0487823486328" y="1109.7560958862305" type="line"/>
      <point x="878.0487823486328" y="1170" type="line"/>
      <point x="151.9512176513672" y="1170" type="line"/>
    </contour>
  </outline>
</glyph>
<glyph name="H" format="2">
  <advance width="1020"/>
  <unicode hex="0048"/>
  <outline>
    <contour>
      <point x="129.2920379638672" y="0" type="line"/>
      <point x="189.82300567626953" y="0" type="line"/>
      <point x="189.82300567626953" y="557.5221252441406" type="line"/>
      <point x="830.1769943237305" y="557.5221252441406" type="line"/>
      <point x="830.1769943237305" y="0" type="line"/>
      <point x="890.7079620361328" y="0" type="line"/>
      <point x="890.7079620361328" y="1175.5752182006836" type="line"/>
      <point x="830.1769943237305" y="1175.5752182006836" type="line"/>
      <point x="830.1769943237305" y="618.0531005859375" type="line"/>
      <point x="189.82300567626953" y="618.0531005859375" type="line"/>
      <point x="189.82300567626953" y="1175.5752182006836" type="line"/>
      <point x="129.2920379638672" y="1175.5752182006836" type="line"/>
    </contour>
  </outline>
</glyph>
<glyph name="I" format="2">
  <advance width="980"/>
  <unicode hex="0049"/>
  <outline>
    <contour>
      <point x="160" y="30" type="line"/>
      <point x="820" y="30" type="line"/>
      <point x="820" y="90" type="line"/>
      <point x="520" y="90" type="line"/>
      <point x="520" y="1080" type="line"/>
      <point x="820" y="1080" type="line"/>
      <point x="820" y="1140" type="line"/>
      <point x="160" y="1140" type="line"/>
      <point x="160" y="1080" type="line"/>
      <point x="460" y="1080" type="line"/>
      <point x="460" y="90" type="line"/>
      <point x="160" y="90" type="line"/>
    </contour>
  </outline>
</glyph>
<glyph name="J" format="2">
  <advance width="1020"/>
  <unicode hex="004A"/>
  <outline>
    <contour>
      <point x="126.0975570678711" y="358.9024429321289" type="line"/>
      <point x="126.09756" y="149.78049"/>
      <point x="295.87805" y="-20.0"/>
      <point x="505.0" y="-20.0" type="curve" smooth="yes"/>
      <point x="714.12195" y="-20.0"/>
      <point x="883.90244" y="149.78049"/>
      <point x="883.90244" y="358.90244" type="curve"/>
      <point x="883.9024429321289" y="1170" type="line"/>
      <point x="823.6585388183594" y="1170" type="line"/>
      <point x="823.6585388183594" y="358.9024429321289" type="line"/>
      <point x="823.65854" y="183.03001"/>
      <point x="680.87243" y="40.2439"/>
      <point x="505.0" y="40.2439" type="curve" smooth="yes"/>
      <point x="329.12757" y="40.2439"/>
      <point x="186.34146" y="183.03001"/>
      <point x="186.34146" y="358.90244" type="curve"/>
    </contour>
  </outline>
</glyph>
<glyph name="K" format="2">
  <advance width="1020"/>
  <unicode hex="004B"/>
  <outline>
    <contour>
      <point x="176.03659057617188" y="0" type="line"/>
      <point x="236.28048706054688" y="0" type="line"/>
      <point x="236.28048706054688" y="556.9918670654297" type="line"/>
      <point x="872.5049667358398" y="0" type="line"/>
      <point x="963.9634094238281" y="0" type="line"/>
      <point x="293.3320999145508" y="587.1138229370117" type="line"/>
      <point x="959.134391784668" y="1170" type="line"/>
      <point x="867.6759414672852" y="1170" type="line"/>
      <point x="236.28048706054688" y="617.2357788085938" type="line"/>
      <point x="236.28048706054688" y="1170" type="line"/>
      <point x="176.03659057617188" y="1170" type="line"/>
    </contour>
  </outline>
</glyph>
<glyph name="L" format="2">
  <advance width="1020"/>
  <unicode hex="004C"/>
  <outline>
    <contour>
      <point x="171.15044403076172" y="0" type="line"/>
      <point x="868.8495559692383" y="0" type="line"/>
      <point x="868.8495559692383" y="60.530975341796875" type="line"/>
      <point x="231.6814193725586" y="60.530975341796875" type="line"/>
      <point x="231.6814193725586" y="1175.5752182006836" type="line"/>
      <point x="171.15044403076172" y="1175.5752182006836" type="line"/>
    </contour>
  </outline>
</glyph>
<glyph name="M" format="2">
  <advance width="980"/>
  <unicode hex="004D"/>
  <outline>
    <contour>
      <point x="100" y="30" type="line"/>
      <point x="160" y="30" type="line"/>
      <point x="160" y="1015" type="line"/>
      <point x="460" y="390" type="line"/>
      <point x="520" y="390" type="line"/>
      <point x="820" y="1015" type="line"/>
      <point x="820" y="30" type="line"/>
      <point x="880" y="30" type="line"/>
      <point x="880" y="1140" type="line"/>
      <point x="813.4459609985352" y="1140" type="line"/>
      <point x="490" y="466.1542510986328" type="line"/>
      <point x="166.55403900146484" y="1140" type="line"/>
      <point x="100" y="1140" type="line"/>
    </contour>
  </outline>
</glyph>
<glyph name="N" format="2">
  <advance width="1020"/>
  <unicode hex="004E"/>
  <outline>
    <contour>
      <point x="129.2920379638672" y="0" type="line"/>
      <point x="189.82300567626953" y="0" type="line"/>
      <point x="189.82300567626953" y="1058.6231994628906" type="line"/>
      <point x="830.1769943237305" y="0" type="line"/>
      <point x="890.7079620361328" y="0" type="line"/>
      <point x="890.7079620361328" y="1175.5752182006836" type="line"/>
      <point x="830.1769943237305" y="1175.5752182006836" type="line"/>
      <point x="830.1769943237305" y="116.95201873779297" type="line"/>
      <point x="189.82300567626953" y="1175.5752182006836" type="line"/>
      <point x="129.2920379638672" y="1175.5752182006836" type="line"/>
    </contour>
  </outline>
</glyph>
<glyph name="P" format="2">
  <advance width="1020"/>
  <unicode hex="0050"/>
  <outline>
    <contour>
      <point x="158.5975570678711" y="0" type="line"/>
      <point x="218.84146118164062" y="0" type="line"/>
      <point x="218.84146118164062" y="443.9024429321289" type="line"/>
      <point x="553.3536605834961" y="443.9024429321289" type="line"/>
      <point x="753.72573" y="443.90244"/>
      <point x="916.40244" y="606.57914"/>
      <point x="916.40244" y="806.95122" type="curve" smooth="yes"/>
      <point x="916.40244" y="1007.32329"/>
      <point x="753.72573" y="1170.0"/>
      <point x="553.35366" y="1170.0" type="curve"/>
      <point x="158.5975570678711" y="1170" type="line"/>
    </contour>
    <contour>
      <point x="553.3536605834961" y="1109.756103515625" type="line"/>
      <point x="720.47622" y="1109.7561"/>
      <point x="856.15854" y="974.07378"/>
      <point x="856.15854" y="806.95122" type="curve" smooth="yes"/>
      <point x="856.15854" y="639.82866"/>
      <point x="720.47622" y="504.14634"/>
      <point x="553.35366" y="504.14634" type="curve"/>
      <point x="218.84146118164062" y="504.1463394165039" type="line"/>
      <point x="218.84146118164062" y="1109.756103515625" type="line"/>
    </contour>
  </outline>
</glyph>
<glyph name="Q" format="2">
  <advance width="980"/>
  <unicode hex="0051"/>
  <outline>
    <contour>
      <point x="790" y="390" type="line"/>
      <point x="790.0" y="331.1546549930939"/>
      <point x="773.0207332204994" y="276.2437376674867"/>
      <point x="743.6983947753906" y="229.92424774169922" type="curve"/>
      <point x="610.7307586669922" y="480" type="line"/>
      <point x="542.7765502929688" y="480" type="line"/>
      <point x="702.9415893554688" y="178.77338409423828" type="line"/>
      <point x="648.572439507039" y="123.95922078541153"/>
      <point x="573.2207270567079" y="90.00000000000001"/>
      <point x="489.99999999999983" y="90.00000000000001" type="curve" smooth="yes"/>
      <point x="324.42549399999996" y="90.0"/>
      <point x="190.0" y="224.42549400000001"/>
      <point x="190.0" y="390.00000000000006" type="curve"/>
      <point x="190" y="780" type="line"/>
      <point x="190.0" y="945.574506"/>
      <point x="324.425494" y="1080.0"/>
      <point x="490.0" y="1080.0" type="curve" smooth="yes"/>
      <point x="655.574506" y="1080.0"/>
      <point x="790.0" y="945.574506"/>
      <point x="790.0" y="780.0" type="curve"/>
    </contour>
    <contour>
      <point x="130" y="390" type="line"/>
      <point x="130.0" y="191.31059280000005"/>
      <point x="291.31059279999994" y="30.0"/>
      <point x="489.99999999999994" y="30.0" type="curve" smooth="yes"/>
      <point x="583.2310305404559" y="30.0"/>
      <point x="668.2321136039155" y="65.5168489835018"/>
      <point x="732.1993942260742" y="123.74744415283203" type="curve"/>
      <point x="782.0457992553711" y="30" type="line"/>
      <point x="850" y="30" type="line"/>
      <point x="775.2848434448242" y="170.5187759399414" type="line"/>
      <point x="822.127969503665" y="231.27845244978428"/>
      <point x="850.0" y="307.4099793515471"/>
      <point x="850.0" y="389.99999999999994" type="curve"/>
      <point x="850" y="780" type="line"/>
      <point x="850.0" y="978.6894072"/>
      <point x="688.6894072" y="1140.0"/>
      <point x="490.0" y="1140.0" type="curve" smooth="yes"/>
      <point x="291.3105928" y="1140.0"/>
      <point x="130.0" y="978.6894072"/>
      <point x="130.0" y="780.0" type="curve"/>
    </contour>
  </outline>
</glyph>
<glyph name="R" format="2">
  <advance width="1020"/>
  <unicode hex="0052"/>
  <outline>
    <contour>
      <point x="136.32743072509766" y="0" type="line"/>
      <point x="196.85840606689453" y="0" type="line"/>
      <point x="196.85840606689453" y="414.15929412841797" type="line"/>
      <point x="532.964599609375" y="414.15929412841797" type="line"/>
      <point x="535.8648666509984" y="414.15929203539827"/>
      <point x="538.7576003706299" y="414.1917932300688"/>
      <point x="541.6425628662109" y="414.26634979248047" type="curve"/>
      <point x="839.1494979858398" y="0" type="line"/>
      <point x="913.6725692749023" y="0" type="line"/>
      <point x="610.5457305908203" y="422.0918197631836" type="line"/>
      <point x="783.5144643786455" y="457.9534507457314"/>
      <point x="913.6725663716534" y="611.3302667219444"/>
      <point x="913.6725663716533" y="794.8672566371682" type="curve" smooth="yes"/>
      <point x="913.6725663716534" y="1004.9857005345134"/>
      <point x="743.0830456672286" y="1175.5752212389382"/>
      <point x="532.9646017698833" y="1175.5752212389382" type="curve"/>
      <point x="136.32743072509766" y="1175.5752182006836" type="line"/>
    </contour>
    <contour>
      <point x="532.964599609375" y="1115.0442504882812" type="line"/>
      <point x="709.6750922442197" y="1115.0442477876106"/>
      <point x="853.1415929203258" y="971.5777471115046"/>
      <point x="853.1415929203258" y="794.8672566371682" type="curve" smooth="yes"/>
      <point x="853.1415929203258" y="618.1567661628319"/>
      <point x="709.6750922442197" y="474.6902654867257"/>
      <point x="532.9646017698833" y="474.6902654867257" type="curve"/>
      <point x="196.85840606689453" y="474.6902618408203" type="line"/>
      <point x="196.85840606689453" y="1115.0442504882812" type="line"/>
    </contour>
  </outline>
</glyph>
<glyph name="S" format="2">
  <advance width="1020"/>
  <unicode hex="0053"/>
  <outline>
    <contour>
      <point x="109.9593505859375" y="301.5243911743164" type="line"/>
      <point x="109.95935" y="124.27617"/>
      <point x="288.95527" y="-20.0"/>
      <point x="510.0" y="-20.0" type="curve" smooth="yes"/>
      <point x="731.04473" y="-20.0"/>
      <point x="910.04065" y="124.27617"/>
      <point x="910.04065" y="301.52439" type="curve"/>
      <point x="910.04065" y="454.07254"/>
      <point x="777.25918" y="581.14607"/>
      <point x="599.58919" y="614.93731" type="curve"/>
      <point x="441.26251220703125" y="645.0496292114258" type="line"/>
      <point x="304.35353" y="671.08849"/>
      <point x="201.91057" y="767.81728"/>
      <point x="201.91057" y="884.32927" type="curve"/>
      <point x="201.91057" y="1019.62034"/>
      <point x="339.7553" y="1129.7561"/>
      <point x="510.0" y="1129.7561" type="curve" smooth="yes"/>
      <point x="680.2447" y="1129.7561"/>
      <point x="818.08943" y="1019.62034"/>
      <point x="818.08943" y="884.32927" type="curve"/>
      <point x="878.3333282470703" y="884.3292694091797" type="line"/>
      <point x="878.33333" y="1052.86598"/>
      <point x="713.56788" y="1190.0"/>
      <point x="510.0" y="1190.0" type="curve" smooth="yes"/>
      <point x="306.43212" y="1190.0"/>
      <point x="141.66667" y="1052.86598"/>
      <point x="141.66667" y="884.32927" type="curve"/>
      <point x="141.66667" y="738.54552"/>
      <point x="265.12866" y="617.22714"/>
      <point x="429.98483" y="585.90246" type="curve"/>
      <point x="588.3167114257812" y="555.8174667358398" type="line"/>
      <point x="738.07777" y="527.36104"/>
      <point x="849.79675" y="424.85703"/>
      <point x="849.79675" y="301.52439" type="curve"/>
      <point x="849.79675" y="157.52058"/>
      <point x="697.80009" y="40.2439"/>
      <point x="510.0" y="40.2439" type="curve" smooth="yes"/>
      <point x="322.19991" y="40.2439"/>
      <point x="170.20325" y="157.52058"/>
      <point x="170.20325" y="301.52439" type="curve"/>
    </contour>
  </outline>
</glyph>
<glyph name="T" format="2">
  <advance width="980"/>
  <unicode hex="0054"/>
  <outline>
    <contour>
      <point x="460" y="30" type="line"/>
      <point x="520" y="30" type="line"/>
      <point x="520" y="1080" type="line"/>
      <point x="850" y="1080" type="line"/>
      <point x="850" y="1140" type="line"/>
      <point x="130" y="1140" type="line"/>
      <point x="130" y="1080" type="line"/>
      <point x="460" y="1080" type="line"/>
    </contour>
  </outline>
</glyph>
<glyph name="U" format="2">
  <advance width="1020"/>
  <unicode hex="0055"/>
  <outline>
    <contour>
      <point x="120.52845764160156" y="369.47154235839844" type="line"/>
      <point x="120.52846" y="154.51635"/>
      <point x="295.0448" y="-20.0"/>
      <point x="510.0" y="-20.0" type="curve" smooth="yes"/>
      <point x="724.9552" y="-20.0"/>
      <point x="899.47154" y="154.51635"/>
      <point x="899.47154" y="369.47154" type="curve"/>
      <point x="899.4715423583984" y="1170" type="line"/>
      <point x="839.2276382446289" y="1170" type="line"/>
      <point x="839.2276382446289" y="369.47154235839844" type="line"/>
      <point x="839.22764" y="187.76586"/>
      <point x="691.70568" y="40.2439"/>
      <point x="510.0" y="40.2439" type="curve" smooth="yes"/>
      <point x="328.29432" y="40.2439"/>
      <point x="180.77236" y="187.76586"/>
      <point x="180.77236" y="369.47154" type="curve"/>
      <point x="180.7723617553711" y="1170" type="line"/>
      <point x="120.52845764160156" y="1170" type="line"/>
    </contour>
  </outline>
</glyph>
<glyph name="V" format="2">
  <advance width="980"/>
  <unicode hex="0056"/>
  <outline>
    <contour>
      <point x="458.4743423461914" y="30" type="line"/>
      <point x="521.5256576538086" y="30" type="line"/>
      <point x="880" y="1140" type="line"/>
      <point x="816.9486923217773" y="1140" type="line"/>
      <point x="490" y="127.61780548095703" type="line"/>
      <point x="163.05130767822266" y="1140" type="line"/>
      <point x="100" y="1140" type="line"/>
    </contour>
  </outline>
</glyph>
<glyph name="W" format="2">
  <advance width="980"/>
  <unicode hex="0057"/>
  <outline>
    <contour>
      <point x="272.28797912597656" y="30" type="line"/>
      <point x="333.1360626220703" y="30" type="line"/>
      <point x="490" y="959.6857757568359" type="line"/>
      <point x="646.8639373779297" y="30" type="line"/>
      <point x="707.7120208740234" y="30" type="line"/>
      <point x="895" y="1140" type="line"/>
      <point x="834.1519241333008" y="1140" type="line"/>
      <point x="677.2879791259766" y="210.31421661376953" type="line"/>
      <point x="520.4240417480469" y="1140" type="line"/>
      <point x="459.5759582519531" y="1140" type="line"/>
      <point x="302.71202087402344" y="210.31421661376953" type="line"/>
      <point x="145.84807586669922" y="1140" type="line"/>
      <point x="85" y="1140" type="line"/>
    </contour>
  </outline>
</glyph>
<glyph name="X" format="2">
  <advance width="1020"/>
  <unicode hex="0058"/>
  <outline>
    <contour>
      <point x="116.03658294677734" y="0" type="line"/>
      <point x="186.70001220703125" y="0" type="line"/>
      <point x="510" y="527.3669128417969" type="line"/>
      <point x="833.2999877929688" y="0" type="line"/>
      <point x="903.9634170532227" y="0" type="line"/>
      <point x="545.3317184448242" y="585" type="line"/>
      <point x="903.9634170532227" y="1170" type="line"/>
      <point x="833.2999877929688" y="1170" type="line"/>
      <point x="510" y="642.6330871582031" type="line"/>
      <point x="186.70001220703125" y="1170" type="line"/>
      <point x="116.03658294677734" y="1170" type="line"/>
      <point x="474.6682891845703" y="585" type="line"/>
    </contour>
  </outline>
</glyph>
<glyph name="Y" format="2">
  <advance width="980"/>
  <unicode hex="0059"/>
  <outline>
    <contour>
      <point x="460" y="30" type="line"/>
      <point x="520" y="30" type="line"/>
      <point x="520" y="510" type="line"/>
      <point x="880" y="1140" type="line"/>
      <point x="810.8949356079102" y="1140" type="line"/>
      <point x="490" y="578.4338607788086" type="line"/>
      <point x="169.10506439208984" y="1140" type="line"/>
      <point x="100" y="1140" type="line"/>
      <point x="460" y="510" type="line"/>
    </contour>
  </outline>
</glyph>
<glyph name="Z" format="2">
  <advance width="1020"/>
  <unicode hex="005A"/>
  <outline>
    <contour>
      <point x="145.2212371826172" y="0" type="line"/>
      <point x="874.7787628173828" y="0" type="line"/>
      <point x="874.7787628173828" y="60.530975341796875" type="line"/>
      <point x="216.57585906982422" y="60.530975341796875" type="line"/>
      <point x="874.7787628173828" y="1115.0442504882812" type="line"/>
      <point x="874.7787628173828" y="1175.5752182006836" type="line"/>
      <point x="145.2212371826172" y="1175.5752182006836" type="line"/>
      <point x="145.2212371826172" y="1115.0442504882812" type="line"/>
      <point x="803.4241409301758" y="1115.0442504882812" type="line"/>
      <point x="145.2212371826172" y="60.530975341796875" type="line"/>
    </contour>
  </outline>
</glyph>
<glyph name="bracketleft" format="2">
  <advance width="980"/>
  <unicode hex="005B"/>
  <outline>
    <contour>
      <point x="315" y="-30" type="line"/>
      <point x="735" y="-30" type="line"/>
      <point x="735" y="30" type="line"/>
      <point x="375" y="30" type="line"/>
      <point x="375" y="1140" type="line"/>
      <point x="735" y="1140" type="line"/>
      <point x="735" y="1200" type="line"/>
      <point x="315" y="1200" type="line"/>
    </contour>
  </outline>
</glyph>
<glyph name="backslash" format="2">
  <advance width="1020"/>
  <unicode hex="005C"/>
  <outline>
    <contour>
      <point x="752.1607888762762" y="0.0" type="line"/>
      <point x="302.2549276169561" y="1236.1061946902655" type="line"/>
      <point x="237.83921112372383" y="1236.1061946902655" type="line"/>
      <point x="687.7450723830439" y="0.0" type="line"/>
    </contour>
  </outline>
</glyph>
<glyph name="bracketright" format="2">
  <advance width="1020"/>
  <unicode hex="005D"/>
  <outline>
    <contour>
      <point x="696.4159317016602" y="-60.530975341796875" type="line"/>
      <point x="696.4159317016602" y="1236.1061935424805" type="line"/>
      <point x="253.58406829833984" y="1236.1061935424805" type="line"/>
      <point x="253.58406829833984" y="1175.5752182006836" type="line"/>
      <point x="635.8849563598633" y="1175.5752182006836" type="line"/>
      <point x="635.8849563598633" y="0" type="line"/>
      <point x="253.58406829833984" y="0" type="line"/>
      <point x="253.58406829833984" y="-60.530975341796875" type="line"/>
    </contour>
  </outline>
</glyph>
<glyph name="asciicircum" format="2">
  <advance width="980"/>
  <unicode hex="005E"/>
  <outline>
    <contour>
      <point x="287.5" y="720" type="line"/>
      <point x="352.2357177734375" y="720" type="line"/>
      <point x="490" y="1060.0944595336914" type="line"/>
      <point x="627.7642822265625" y="720" type="line"/>
      <point x="692.5" y="720" type="line"/>
      <point x="522.3678588867188" y="1140" type="line"/>
      <point x="457.63214111328125" y="1140" type="line"/>
    </contour>
  </outline>
</glyph>
<glyph name="underscore" format="2">
  <advance width="1020"/>
  <unicode hex="005F"/>
  <outline>
    <contour>
      <point x="115.2439" y="-156.95122" type="line"/>
      <point x="904.7561" y="-156.95122" type="line"/>
      <point x="904.7561" y="-96.70732" type="line"/>
      <point x="115.2439" y="-96.70732" type="line"/>
    </contour>
  </outline>
</glyph>
<glyph name="grave" format="2">
  <advance width="980"/>
  <unicode hex="0060"/>
  <outline>
    <contour>
      <point x="598.0191274119527" y="1000.0" type="line"/>
      <point x="450.9182050831324" y="1260.0" type="line"/>
      <point x="381.9808725880474" y="1260.0" type="line"/>
      <point x="529.0817949168677" y="1000.0" type="line"/>
    </contour>
  </outline>
</glyph>
<glyph name="a" format="2">
  <advance width="1020"/>
  <unicode hex="0061"/>
  <outline>
    <contour>
      <point x="488.14159292035396" y="398.2300884955753" type="curve"/>
      <point x="848.1415939331055" y="398.23008728027344" type="line"/>
      <point x="848.141592920354" y="203.57014936194693"/>
      <point x="672.555726421239" y="45.53097345132744"/>
      <point x="456.283185840708" y="45.53097345132744" type="curve"/>
      <point x="310.3431787823008" y="45.53097345132747"/>
      <point x="191.85840707964599" y="124.5505614066372"/>
      <point x="191.85840707964599" y="221.88053097345139" type="curve"/>
      <point x="191.85840707964599" y="319.2105005402655"/>
      <point x="324.6184524814159" y="398.2300884955753"/>
    </contour>
    <contour>
      <point x="848.1415939331055" y="0" type="line"/>
      <point x="908.6725692749023" y="0" type="line"/>
      <point x="908.6725692749023" y="507.67699432373047" type="line"/>
      <point x="908.6725663716815" y="673.5811809013276"/>
      <point x="742.6332891588496" y="808.2743362831859"/>
      <point x="538.1194690265486" y="808.2743362831859" type="curve"/>
      <point x="321.8835599738938" y="808.2743362831859"/>
      <point x="146.32743362831854" y="680.718817750885"/>
      <point x="146.32743362831854" y="523.6061946902655" type="curve"/>
      <point x="206.85840606689453" y="523.6061935424805" type="line"/>
      <point x="206.85840707964599" y="647.3108643278762"/>
      <point x="355.2915133969026" y="747.7433628318585"/>
      <point x="538.1194690265486" y="747.7433628318585" type="curve"/>
      <point x="709.2253357358406" y="747.7433628318585"/>
      <point x="848.141592920354" y="640.1732274783187"/>
      <point x="848.141592920354" y="507.6769911504425" type="curve"/>
      <point x="848.1415939331055" y="458.7610626220703" type="line"/>
      <point x="488.14159393310547" y="458.7610626220703" type="line"/>
      <point x="291.21049905840704" y="458.7610619469027"/>
      <point x="131.32743362831854" y="352.61845396327436"/>
      <point x="131.32743362831854" y="221.88053097345139" type="curve"/>
      <point x="131.32743362831854" y="91.14260798362837"/>
      <point x="276.93522535929196" y="-14.999999999999972"/>
      <point x="456.283185840708" y="-15.000000000000002" type="curve"/>
      <point x="623.6385280004126" y="-15.000000000000002"/>
      <point x="769.8908140707225" y="68.18830068829563"/>
      <point x="848.1415939331055" y="191.72938537597656" type="curve"/>
    </contour>
  </outline>
</glyph>
<glyph name="b" format="2">
  <advance width="1020"/>
  <unicode hex="0062"/>
  <outline>
    <contour>
      <point x="105.243896484375" y="0" type="line"/>
      <point x="165.48780059814453" y="0" type="line"/>
      <point x="165.48780059814453" y="179.50328063964844" type="line"/>
      <point x="238.29748893138526" y="59.918194654008815"/>
      <point x="369.88944188855993" y="-20.0"/>
      <point x="520.0" y="-20.00000000000003" type="curve" smooth="yes"/>
      <point x="748.91012" y="-20.0"/>
      <point x="934.7561" y="165.84598"/>
      <point x="934.7561" y="394.7561" type="curve" smooth="yes"/>
      <point x="934.7561" y="623.66622"/>
      <point x="748.91012" y="809.5122"/>
      <point x="520.0" y="809.5122" type="curve" smooth="yes"/>
      <point x="369.88944188856" y="809.5122"/>
      <point x="238.2974889313853" y="729.5940053459911"/>
      <point x="165.48780059814453" y="610.0056762695312" type="curve"/>
      <point x="165.48780059814453" y="1170" type="line"/>
      <point x="105.243896484375" y="1170" type="line"/>
    </contour>
    <contour>
      <point x="874.5122" y="394.7561" type="curve" smooth="yes"/>
      <point x="874.5122" y="199.09549"/>
      <point x="715.66061" y="40.2439"/>
      <point x="520.0" y="40.2439" type="curve" smooth="yes"/>
      <point x="324.33939" y="40.2439"/>
      <point x="165.4878" y="199.09549"/>
      <point x="165.4878" y="394.7561" type="curve" smooth="yes"/>
      <point x="165.4878" y="590.4167"/>
      <point x="324.33939" y="749.26829"/>
      <point x="520.0" y="749.26829" type="curve" smooth="yes"/>
      <point x="715.66061" y="749.26829"/>
      <point x="874.5122" y="590.4167"/>
    </contour>
  </outline>
</glyph>
<glyph name="c" format="2">
  <advance width="1020"/>
  <unicode hex="0063"/>
  <outline>
    <contour>
      <point x="531.0049370959796" y="45.53097345132748" type="curve" smooth="yes"/>
      <point x="337.2241546313778" y="45.53097345132744"/>
      <point x="179.89874240571413" y="202.85638567699118"/>
      <point x="179.89874240571413" y="396.63716814159295" type="curve" smooth="yes"/>
      <point x="179.89874240571413" y="590.4179506061948"/>
      <point x="337.22415463137787" y="747.7433628318585"/>
      <point x="531.0049370959796" y="747.7433628318585" type="curve" smooth="yes"/>
      <point x="667.4514118912148" y="747.7433628318585"/>
      <point x="785.8234511801777" y="669.7420149335115"/>
      <point x="843.924834664944" y="555.9292035398231" type="curve"/>
      <point x="910.6295735857127" y="555.9292035398231" type="line"/>
      <point x="848.3057850011296" y="704.1252424723643"/>
      <point x="701.7220504702148" y="808.2743362831859"/>
      <point x="531.0049370959796" y="808.2743362831859" type="curve" smooth="yes"/>
      <point x="303.816201208369" y="808.2743362831859"/>
      <point x="119.36776895438669" y="623.8259040292037"/>
      <point x="119.36776895438669" y="396.63716814159295" type="curve" smooth="yes"/>
      <point x="119.36776895438669" y="169.44843225398236"/>
      <point x="303.81620120836897" y="-15.000000000000002"/>
      <point x="531.0049370959796" y="-15.000000000000002" type="curve" smooth="yes"/>
      <point x="701.7243223575733" y="-15.000000000000046"/>
      <point x="848.3096864420818" y="89.1518658420423"/>
      <point x="910.6322310456133" y="237.34513274336285" type="curve"/>
      <point x="843.9262768230608" y="237.34513274336285" type="line"/>
      <point x="785.8254685172917" y="123.53365068207246"/>
      <point x="667.4525745759095" y="45.53097345132739"/>
    </contour>
  </outline>
</glyph>
<glyph name="d" format="2">
  <advance width="1020"/>
  <unicode hex="0064"/>
  <outline>
    <contour>
      <point x="849.5121917724609" y="0" type="line"/>
      <point x="909.7560958862305" y="0" type="line"/>
      <point x="909.7560958862305" y="1170" type="line"/>
      <point x="849.5121917724609" y="1170" type="line"/>
      <point x="849.5121917724609" y="608.6125869750977" type="line"/>
      <point x="777.4336002419218" y="726.0865556359195"/>
      <point x="647.8031761972805" y="804.5121951219511"/>
      <point x="500.0" y="804.5121951219511" type="curve" smooth="yes"/>
      <point x="273.8494552195122" y="804.5121951219511"/>
      <point x="90.2439024390244" y="620.9066423414635"/>
      <point x="90.2439024390244" y="394.7560975609756" type="curve" smooth="yes"/>
      <point x="90.2439024390244" y="168.60555278048784"/>
      <point x="273.8494552195121" y="-14.999999999999986"/>
      <point x="499.99999999999994" y="-14.999999999999986" type="curve" smooth="yes"/>
      <point x="647.8031761972803" y="-15.000000000000025"/>
      <point x="777.4336002419216" y="63.42563948603161"/>
      <point x="849.5121917724609" y="180.910888671875" type="curve"/>
    </contour>
    <contour>
      <point x="849.5121951219512" y="394.7560975609756" type="curve" smooth="yes"/>
      <point x="849.5121951219511" y="201.85506739999994"/>
      <point x="692.9010301609756" y="45.243902439024346"/>
      <point x="499.99999999999994" y="45.2439024390244" type="curve" smooth="yes"/>
      <point x="307.09896983902433" y="45.2439024390244"/>
      <point x="150.4878048780488" y="201.85506740000002"/>
      <point x="150.4878048780488" y="394.7560975609756" type="curve" smooth="yes"/>
      <point x="150.4878048780488" y="587.6571277219513"/>
      <point x="307.0989698390244" y="744.2682926829267"/>
      <point x="500.0" y="744.2682926829267" type="curve" smooth="yes"/>
      <point x="692.9010301609757" y="744.2682926829267"/>
      <point x="849.5121951219512" y="587.6571277219513"/>
    </contour>
  </outline>
</glyph>
<glyph name="f" format="2">
  <advance width="1020"/>
  <unicode hex="0066"/>
  <outline>
    <contour>
      <point x="349.8729705810547" y="0" type="line"/>
      <point x="410.1168670654297" y="0" type="line"/>
      <point x="410.1168670654297" y="729.2682876586914" type="line"/>
      <point x="885.990852355957" y="729.2682876586914" type="line"/>
      <point x="885.990852355957" y="789.5121994018555" type="line"/>
      <point x="410.1168670654297" y="789.5121994018555" type="line"/>
      <point x="410.1168670654297" y="843.8675994873047" type="line"/>
      <point x="410.11687" y="990.61545"/>
      <point x="529.25751" y="1109.7561"/>
      <point x="676.00537" y="1109.7561" type="curve"/>
      <point x="885.990852355957" y="1109.756103515625" type="line"/>
      <point x="885.990852355957" y="1170" type="line"/>
      <point x="676.00537109375" y="1170" type="line"/>
      <point x="496.008" y="1170.0"/>
      <point x="349.87297" y="1023.86497"/>
      <point x="349.87297" y="843.8676" type="curve"/>
      <point x="349.8729705810547" y="789.5121994018555" type="line"/>
      <point x="104.00914764404297" y="789.5121994018555" type="line"/>
      <point x="104.00914764404297" y="729.2682876586914" type="line"/>
      <point x="349.8729705810547" y="729.2682876586914" type="line"/>
    </contour>
  </outline>
</glyph>
<glyph name="g" format="2">
  <advance width="1020"/>
  <unicode hex="0067"/>
  <outline>
    <contour>
      <point x="100.8130111694336" y="-75.52845764160156" type="line"/>
      <point x="100.8130081300813" y="-298.76237597560976"/>
      <point x="282.0506321544715" y="-480.0"/>
      <point x="505.2845528455284" y="-480.0" type="curve" smooth="yes"/>
      <point x="728.5184735365852" y="-480.0"/>
      <point x="909.7560975609756" y="-298.76237597560987"/>
      <point x="909.7560975609756" y="-75.52845528455298" type="curve"/>
      <point x="909.7560958862305" y="789.5121917724609" type="line"/>
      <point x="849.5121917724609" y="789.5121917724609" type="line"/>
      <point x="849.5121917724609" y="608.6125869750977" type="line"/>
      <point x="777.4336002419218" y="726.0865556359195"/>
      <point x="647.8031761972805" y="804.5121951219511"/>
      <point x="500.0" y="804.5121951219511" type="curve" smooth="yes"/>
      <point x="273.8494552195122" y="804.5121951219511"/>
      <point x="90.2439024390244" y="620.9066423414635"/>
      <point x="90.2439024390244" y="394.7560975609756" type="curve" smooth="yes"/>
      <point x="90.2439024390244" y="168.60555278048784"/>
      <point x="273.8494552195121" y="-14.999999999999986"/>
      <point x="499.99999999999994" y="-14.999999999999986" type="curve" smooth="yes"/>
      <point x="647.8031761972803" y="-15.000000000000025"/>
      <point x="777.4336002419216" y="63.42563948603161"/>
      <point x="849.5121917724609" y="180.910888671875" type="curve"/>
      <point x="849.5121917724609" y="-75.52845764160156" type="line"/>
      <point x="849.5121951219512" y="-265.5128613560977"/>
      <point x="695.2689589170731" y="-419.75609756097566"/>
      <point x="505.2845528455284" y="-419.75609756097566" type="curve" smooth="yes"/>
      <point x="315.30014677398367" y="-419.75609756097566"/>
      <point x="161.0569105691057" y="-265.5128613560976"/>
      <point x="161.0569105691057" y="-75.52845528455285" type="curve"/>
    </contour>
    <contour>
      <point x="849.5121951219512" y="394.7560975609756" type="curve" smooth="yes"/>
      <point x="849.5121951219511" y="201.85506739999994"/>
      <point x="692.9010301609756" y="45.243902439024346"/>
      <point x="499.99999999999994" y="45.2439024390244" type="curve" smooth="yes"/>
      <point x="307.09896983902433" y="45.2439024390244"/>
      <point x="150.4878048780488" y="201.85506740000002"/>
      <point x="150.4878048780488" y="394.7560975609756" type="curve" smooth="yes"/>
      <point x="150.4878048780488" y="587.6571277219513"/>
      <point x="307.0989698390244" y="744.2682926829267"/>
      <point x="500.0" y="744.2682926829267" type="curve" smooth="yes"/>
      <point x="692.9010301609757" y="744.2682926829267"/>
      <point x="849.5121951219512" y="587.6571277219513"/>
    </contour>
  </outline>
</glyph>
<glyph name="h" format="2">
  <advance width="1020"/>
  <unicode hex="0068"/>
  <outline>
    <contour>
      <point x="148.18584442138672" y="0" type="line"/>
      <point x="208.71681213378906" y="0" type="line"/>
      <point x="208.71681213378906" y="436.4601745605469" type="line"/>
      <point x="208.71681415929203" y="608.2620427300886"/>
      <point x="348.19813426106197" y="747.7433628318585"/>
      <point x="520.0" y="747.7433628318585" type="curve" smooth="yes"/>
      <point x="691.8018657389382" y="747.7433628318585"/>
      <point x="831.283185840708" y="608.2620427300885"/>
      <point x="831.283185840708" y="436.4601769911505" type="curve"/>
      <point x="831.2831878662109" y="0" type="line"/>
      <point x="891.8141555786133" y="0" type="line"/>
      <point x="891.8141555786133" y="436.4601745605469" type="line"/>
      <point x="891.8141592920354" y="641.6699961530974"/>
      <point x="725.2098191619468" y="808.2743362831859"/>
      <point x="520.0" y="808.2743362831859" type="curve" smooth="yes"/>
      <point x="389.8013468755962" y="808.2743362831859"/>
      <point x="275.1432175786277" y="741.2082414573932"/>
      <point x="208.71681213378906" y="639.7586975097656" type="curve"/>
      <point x="208.71681213378906" y="1175.5752182006836" type="line"/>
      <point x="148.18584442138672" y="1175.5752182006836" type="line"/>
    </contour>
  </outline>
</glyph>
<glyph name="i" format="2">
  <advance width="980"/>
  <unicode hex="0069"/>
  <outline>
    <contour>
      <point x="601.0" y="936.0" type="curve" smooth="yes"/>
      <point x="601.0" y="972.42639132"/>
      <point x="571.42639132" y="1002.0"/>
      <point x="535.0" y="1002.0" type="curve" smooth="yes"/>
      <point x="498.57360868" y="1002.0"/>
      <point x="469.0" y="972.42639132"/>
      <point x="469.0" y="936.0" type="curve" smooth="yes"/>
      <point x="469.0" y="899.57360868"/>
      <point x="498.57360868" y="870.0"/>
      <point x="535.0" y="870.0" type="curve" smooth="yes"/>
      <point x="571.42639132" y="870.0"/>
      <point x="601.0" y="899.57360868"/>
    </contour>
    <contour>
      <point x="190" y="30" type="line"/>
      <point x="820" y="30" type="line"/>
      <point x="820" y="90" type="line"/>
      <point x="565" y="90" type="line"/>
      <point x="565" y="750" type="line"/>
      <point x="240" y="750" type="line"/>
      <point x="240" y="690" type="line"/>
      <point x="505" y="690" type="line"/>
      <point x="505" y="90" type="line"/>
      <point x="190" y="90" type="line"/>
    </contour>
  </outline>
</glyph>
<glyph name="j" format="2">
  <advance width="1020"/>
  <unicode hex="006A"/>
  <outline>
    <contour>
      <point x="729.76423" y="1036.34146" type="curve" smooth="yes"/>
      <point x="729.76423" y="1073.96591"/>
      <point x="699.21795" y="1104.5122"/>
      <point x="661.5935" y="1104.5122" type="curve" smooth="yes"/>
      <point x="623.96905" y="1104.5122"/>
      <point x="593.42276" y="1073.96591"/>
      <point x="593.42276" y="1036.34146" type="curve" smooth="yes"/>
      <point x="593.42276" y="998.71701"/>
      <point x="623.96905" y="968.17073"/>
      <point x="661.5935" y="968.17073" type="curve" smooth="yes"/>
      <point x="699.21795" y="968.17073"/>
      <point x="729.76423" y="998.71701"/>
    </contour>
    <contour>
      <point x="182.28455352783203" y="-294.3495864868164" type="line"/>
      <point x="354.61585235595703" y="-294.3495864868164" type="line"/>
      <point x="675.028712204511" y="-294.3495864868164"/>
      <point x="691.7154502726938" y="-61.02759596892086"/>
      <point x="691.7154498089773" y="42.75" type="curve"/>
      <point x="691.715446472168" y="789.5121994018555" type="line"/>
      <point x="309.1138229370117" y="789.5121994018555" type="line"/>
      <point x="309.1138229370117" y="729.2682876586914" type="line"/>
      <point x="631.4715423583984" y="729.2682876586914" type="line"/>
      <point x="631.4715423583984" y="42.75" type="line"/>
      <point x="631.4715423583984" y="-222.7732714892428"/>
      <point x="454.81108307809404" y="-234.10568999934796"/>
      <point x="354.61585" y="-234.10569000048525" type="curve"/>
      <point x="182.28455352783203" y="-234.1056900024414" type="line"/>
    </contour>
  </outline>
</glyph>
<glyph name="k" format="2">
  <advance width="980"/>
  <unicode hex="006B"/>
  <outline>
    <contour>
      <point x="195" y="30" type="line"/>
      <point x="255" y="30" type="line"/>
      <point x="255" y="360" type="line"/>
      <point x="773.286018371582" y="30" type="line"/>
      <point x="885" y="30" type="line"/>
      <point x="319.5970687866211" y="390" type="line"/>
      <point x="885" y="750" type="line"/>
      <point x="773.286018371582" y="750" type="line"/>
      <point x="255" y="420" type="line"/>
      <point x="255" y="1140" type="line"/>
      <point x="195" y="1140" type="line"/>
    </contour>
  </outline>
</glyph>
<glyph name="l" format="2">
  <advance width="1020"/>
  <unicode hex="006C"/>
  <outline>
    <contour>
      <point x="172.80487823486328" y="0" type="line"/>
      <point x="867.1951217651367" y="0" type="line"/>
      <point x="867.1951217651367" y="60.243896484375" type="line"/>
      <point x="581.8292694091797" y="60.243896484375" type="line"/>
      <point x="581.8292694091797" y="1170" type="line"/>
      <point x="204.51219940185547" y="1170" type="line"/>
      <point x="204.51219940185547" y="1109.756103515625" type="line"/>
      <point x="521.5853729248047" y="1109.756103515625" type="line"/>
      <point x="521.5853729248047" y="60.243896484375" type="line"/>
      <point x="172.80487823486328" y="60.243896484375" type="line"/>
    </contour>
  </outline>
</glyph>
<glyph name="m" format="2">
  <advance width="1020"/>
  <unicode hex="006D"/>
  <outline>
    <contour>
      <point x="88.53658294677734" y="0" type="line"/>
      <point x="148.78048706054688" y="0" type="line"/>
      <point x="148.78048706054688" y="576.2195129394531" type="line"/>
      <point x="148.78048780487808" y="668.9681582390245"/>
      <point x="224.0806222487805" y="744.2682926829268"/>
      <point x="316.82926829268297" y="744.2682926829268" type="curve" smooth="yes"/>
      <point x="409.57791433658537" y="744.2682926829268"/>
      <point x="484.8780487804878" y="668.9681582390245"/>
      <point x="484.8780487804878" y="576.219512195122" type="curve"/>
      <point x="484.8780517578125" y="0" type="line"/>
      <point x="545.1219482421875" y="0" type="line"/>
      <point x="545.1219482421875" y="576.2195129394531" type="line"/>
      <point x="545.1219512195122" y="668.9681582390245"/>
      <point x="620.4220856634147" y="744.2682926829268"/>
      <point x="713.1707317073171" y="744.2682926829268" type="curve" smooth="yes"/>
      <point x="805.9193777512194" y="744.2682926829268"/>
      <point x="881.219512195122" y="668.9681582390245"/>
      <point x="881.219512195122" y="576.219512195122" type="curve"/>
      <point x="881.2195129394531" y="0" type="line"/>
      <point x="941.4634170532227" y="0" type="line"/>
      <point x="941.4634170532227" y="576.2195129394531" type="line"/>
      <point x="941.4634146341464" y="702.2176728585367"/>
      <point x="839.1688923707318" y="804.5121951219512"/>
      <point x="713.1707317073171" y="804.5121951219512" type="curve" smooth="yes"/>
      <point x="628.4171869499467" y="804.5121951219512"/>
      <point x="554.3887667697899" y="758.2272545433065"/>
      <point x="515.0049438476562" y="689.5468368530273" type="curve"/>
      <point x="475.6237792798271" y="758.2194099705348"/>
      <point x="401.5899949452113" y="804.5121951219512"/>
      <point x="316.82926829268297" y="804.5121951219512" type="curve" smooth="yes"/>
      <point x="250.37620038270944" y="804.5121951219512"/>
      <point x="190.51664254623822" y="776.0574932898506"/>
      <point x="148.78048706054688" y="730.6583786010742" type="curve"/>
      <point x="148.78048706054688" y="789.5121917724609" type="line"/>
      <point x="88.53658294677734" y="789.5121917724609" type="line"/>
    </contour>
  </outline>
</glyph>
<glyph name="n" format="2">
  <advance width="980"/>
  <unicode hex="006E"/>
  <outline>
    <contour>
      <point x="135" y="30" type="line"/>
      <point x="195" y="30" type="line"/>
      <point x="195" y="390" type="line"/>
      <point x="195.0" y="555.574506"/>
      <point x="329.425494" y="690.0"/>
      <point x="495.0" y="690.0" type="curve" smooth="yes"/>
      <point x="660.574506" y="690.0"/>
      <point x="795.0" y="555.574506"/>
      <point x="795.0" y="390.0" type="curve"/>
      <point x="795" y="30" type="line"/>
      <point x="855" y="30" type="line"/>
      <point x="855" y="390" type="line"/>
      <point x="855.0" y="588.6894072"/>
      <point x="693.6894072" y="750.0"/>
      <point x="495.0" y="750.0" type="curve" smooth="yes"/>
      <point x="369.8433568212408" y="750.0"/>
      <point x="259.51817371367235" y="685.9939138098154"/>
      <point x="195" y="588.9489059448242" type="curve"/>
      <point x="195" y="750" type="line"/>
      <point x="135" y="750" type="line"/>
    </contour>
  </outline>
</glyph>
<glyph name="o" format="2">
  <advance width="980"/>
  <unicode hex="006F"/>
  <outline>
    <contour>
      <point x="850.0" y="390.0" type="curve" smooth="yes"/>
      <point x="850.0" y="588.6894072"/>
      <point x="688.6894072" y="750.0"/>
      <point x="490.0" y="750.0" type="curve" smooth="yes"/>
      <point x="291.3105928" y="750.0"/>
      <point x="130.0" y="588.6894072"/>
      <point x="130.0" y="390.0" type="curve" smooth="yes"/>
      <point x="130.0" y="191.31059280000005"/>
      <point x="291.31059279999994" y="30.0"/>
      <point x="489.99999999999994" y="30.0" type="curve" smooth="yes"/>
      <point x="688.6894072" y="29.999999999999943"/>
      <point x="850.0" y="191.31059279999994"/>
    </contour>
    <contour>
      <point x="790.0" y="390.0" type="curve" smooth="yes"/>
      <point x="790.0" y="224.42549399999993"/>
      <point x="655.5745059999999" y="89.99999999999994"/>
      <point x="489.99999999999994" y="90.0" type="curve" smooth="yes"/>
      <point x="324.42549399999996" y="90.0"/>
      <point x="190.0" y="224.42549400000001"/>
      <point x="190.0" y="390.0" type="curve" smooth="yes"/>
      <point x="190.0" y="555.574506"/>
      <point x="324.425494" y="690.0"/>
      <point x="490.0" y="690.0" type="curve" smooth="yes"/>
      <point x="655.574506" y="690.0"/>
      <point x="790.0" y="555.574506"/>
    </contour>
  </outline>
</glyph>
<glyph name="q" format="2">
  <advance width="1020"/>
  <unicode hex="0071"/>
  <outline>
    <contour>
      <point x="851.1061935424805" y="-480" type="line"/>
      <point x="911.6371688842773" y="-480" type="line"/>
      <point x="911.6371688842773" y="793.2743377685547" type="line"/>
      <point x="851.1061935424805" y="793.2743377685547" type="line"/>
      <point x="851.1061935424805" y="611.4833755493164" type="line"/>
      <point x="778.6944644946549" y="729.4963824917788"/>
      <point x="648.4744273758943" y="808.2743362831859"/>
      <point x="500.0000000000001" y="808.2743362831859" type="curve" smooth="yes"/>
      <point x="272.8112641123894" y="808.2743362831859"/>
      <point x="88.36283185840705" y="623.8259040292037"/>
      <point x="88.36283185840705" y="396.63716814159295" type="curve" smooth="yes"/>
      <point x="88.36283185840705" y="169.44843225398236"/>
      <point x="272.81126411238927" y="-15.000000000000002"/>
      <point x="499.99999999999994" y="-15.000000000000002" type="curve" smooth="yes"/>
      <point x="648.4744273758943" y="-15.00000000000004"/>
      <point x="778.6944644946549" y="63.77795379140706"/>
      <point x="851.1061935424805" y="181.7942123413086" type="curve"/>
    </contour>
    <contour>
      <point x="851.1061946902655" y="396.63716814159295" type="curve" smooth="yes"/>
      <point x="851.1061946902655" y="202.8563856769911"/>
      <point x="693.7807824646018" y="45.53097345132738"/>
      <point x="499.99999999999994" y="45.53097345132744" type="curve" smooth="yes"/>
      <point x="306.2192175353982" y="45.53097345132744"/>
      <point x="148.8938053097345" y="202.85638567699118"/>
      <point x="148.8938053097345" y="396.63716814159295" type="curve" smooth="yes"/>
      <point x="148.8938053097345" y="590.4179506061948"/>
      <point x="306.21921753539823" y="747.7433628318585"/>
      <point x="500.0" y="747.7433628318585" type="curve" smooth="yes"/>
      <point x="693.7807824646019" y="747.7433628318585"/>
      <point x="851.1061946902655" y="590.4179506061948"/>
    </contour>
  </outline>
</glyph>
<glyph name="r" format="2">
  <advance width="980"/>
  <unicode hex="0072"/>
  <outline>
    <contour>
      <point x="175" y="30" type="line"/>
      <point x="655" y="30" type="line"/>
      <point x="655" y="90" type="line"/>
      <point x="385" y="90" type="line"/>
      <point x="385" y="360" type="line"/>
      <point x="385.0" y="542.1319566000001"/>
      <point x="532.8680434" y="690.0"/>
      <point x="715.0" y="690.0" type="curve"/>
      <point x="865" y="690" type="line"/>
      <point x="865" y="750" type="line"/>
      <point x="715" y="750" type="line"/>
      <point x="576.1233730880134" y="750.0"/>
      <point x="454.1034364479828" y="677.253907218223"/>
      <point x="385" y="567.8053283691406" type="curve"/>
      <point x="385" y="750" type="line"/>
      <point x="175" y="750" type="line"/>
      <point x="175" y="690" type="line"/>
      <point x="325" y="690" type="line"/>
      <point x="325" y="90" type="line"/>
      <point x="175" y="90" type="line"/>
    </contour>
  </outline>
</glyph>
<glyph name="t" format="2">
  <advance width="980"/>
  <unicode hex="0074"/>
  <outline>
    <contour>
      <point x="345" y="310" type="line"/>
      <point x="345.0" y="155.4637944"/>
      <point x="470.4637944" y="30.0"/>
      <point x="625.0" y="30.0" type="curve"/>
      <point x="810" y="30" type="line"/>
      <point x="810" y="90" type="line"/>
      <point x="625" y="90" type="line"/>
      <point x="503.57869559999995" y="90.00000000000003"/>
      <point x="405.0" y="188.5786956"/>
      <point x="405.0" y="310.0" type="curve"/>
      <point x="405" y="690" type="line"/>
      <point x="810" y="690" type="line"/>
      <point x="810" y="750" type="line"/>
      <point x="405" y="750" type="line"/>
      <point x="405" y="970" type="line"/>
      <point x="345" y="970" type="line"/>
      <point x="345" y="750" type="line"/>
      <point x="120" y="750" type="line"/>
      <point x="120" y="690" type="line"/>
      <point x="345" y="690" type="line"/>
    </contour>
  </outline>
</glyph>
<glyph name="u" format="2">
  <advance width="1020"/>
  <unicode hex="0075"/>
  <outline>
    <contour>
      <point x="135.68584442138672" y="356.8141555786133" type="line"/>
      <point x="135.6858407079646" y="151.60434013008853"/>
      <point x="302.290180838053" y="-15.000000000000002"/>
      <point x="507.49999999999994" y="-15.000000000000002" type="curve" smooth="yes"/>
      <point x="637.6986531244038" y="-15.000000000000002"/>
      <point x="752.3567824213724" y="52.06609482579266"/>
      <point x="818.7831878662109" y="153.51564025878906" type="curve"/>
      <point x="818.7831878662109" y="0" type="line"/>
      <point x="879.3141555786133" y="0" type="line"/>
      <point x="879.3141555786133" y="793.2743377685547" type="line"/>
      <point x="818.7831878662109" y="793.2743377685547" type="line"/>
      <point x="818.7831878662109" y="356.8141555786133" type="line"/>
      <point x="818.783185840708" y="185.0122935530973"/>
      <point x="679.301865738938" y="45.53097345132744"/>
      <point x="507.49999999999994" y="45.53097345132744" type="curve" smooth="yes"/>
      <point x="335.6981342610619" y="45.53097345132744"/>
      <point x="196.21681415929203" y="185.01229355309738"/>
      <point x="196.21681415929203" y="356.81415929203547" type="curve"/>
      <point x="196.21681213378906" y="793.2743377685547" type="line"/>
      <point x="135.68584442138672" y="793.2743377685547" type="line"/>
    </contour>
  </outline>
</glyph>
<glyph name="v" format="2">
  <advance width="1020"/>
  <unicode hex="0076"/>
  <outline>
    <contour>
      <point x="476.75618743896484" y="0" type="line"/>
      <point x="543.2438125610352" y="0" type="line"/>
      <point x="911.8902435302734" y="789.5121917724609" type="line"/>
      <point x="845.4026184082031" y="789.5121917724609" type="line"/>
      <point x="510" y="71.19666290283203" type="line"/>
      <point x="174.59738159179688" y="789.5121917724609" type="line"/>
      <point x="108.10975646972656" y="789.5121917724609" type="line"/>
    </contour>
  </outline>
</glyph>
<glyph name="w" format="2">
  <advance width="1020"/>
  <unicode hex="0077"/>
  <outline>
    <contour>
      <point x="273.6764373779297" y="0" type="line"/>
      <point x="335.9218978881836" y="0" type="line"/>
      <point x="510" y="669.7671737670898" type="line"/>
      <point x="684.0781021118164" y="0" type="line"/>
      <point x="746.3235626220703" y="0" type="line"/>
      <point x="951.5243911743164" y="789.5121917724609" type="line"/>
      <point x="889.2789306640625" y="789.5121917724609" type="line"/>
      <point x="715.2008361816406" y="119.74501037597656" type="line"/>
      <point x="541.1227340698242" y="789.5121917724609" type="line"/>
      <point x="478.8772659301758" y="789.5121917724609" type="line"/>
      <point x="304.7991714477539" y="119.74501037597656" type="line"/>
      <point x="130.7210693359375" y="789.5121917724609" type="line"/>
      <point x="68.4756088256836" y="789.5121917724609" type="line"/>
    </contour>
  </outline>
</glyph>
<glyph name="x" format="2">
  <advance width="1020"/>
  <unicode hex="0078"/>
  <outline>
    <contour>
      <point x="116.03658294677734" y="0" type="line"/>
      <point x="196.90777587890625" y="0" type="line"/>
      <point x="510" y="349.60491943359375" type="line"/>
      <point x="823.0922241210938" y="0" type="line"/>
      <point x="903.9634170532227" y="0" type="line"/>
      <point x="550.4356002807617" y="394.75609588623047" type="line"/>
      <point x="903.9634170532227" y="789.5121917724609" type="line"/>
      <point x="823.0922241210938" y="789.5121917724609" type="line"/>
      <point x="510" y="439.9072723388672" type="line"/>
      <point x="196.90777587890625" y="789.5121917724609" type="line"/>
      <point x="116.03658294677734" y="789.5121917724609" type="line"/>
      <point x="469.5644073486328" y="394.75609588623047" type="line"/>
    </contour>
  </outline>
</glyph>
<glyph name="y" format="2">
  <advance width="980"/>
  <unicode hex="0079"/>
  <outline>
    <contour>
      <point x="218.84117126464844" y="-450" type="line"/>
      <point x="285.79415130615234" y="-450" type="line"/>
      <point x="880" y="750" type="line"/>
      <point x="813.0470199584961" y="750" type="line"/>
      <point x="490" y="97.60584259033203" type="line"/>
      <point x="166.9529800415039" y="750" type="line"/>
      <point x="100" y="750" type="line"/>
      <point x="456.5235137939453" y="30" type="line"/>
    </contour>
  </outline>
</glyph>
<glyph name="z" format="2">
  <advance width="1020"/>
  <unicode hex="007A"/>
  <outline>
    <contour>
      <point x="150.68584442138672" y="0" type="line"/>
      <point x="864.3141555786133" y="0" type="line"/>
      <point x="864.3141555786133" y="60.530975341796875" type="line"/>
      <point x="233.6841278076172" y="60.530975341796875" type="line"/>
      <point x="864.3141555786133" y="732.7433624267578" type="line"/>
      <point x="864.3141555786133" y="793.2743377685547" type="line"/>
      <point x="150.68584442138672" y="793.2743377685547" type="line"/>
      <point x="150.68584442138672" y="732.7433624267578" type="line"/>
      <point x="781.3158721923828" y="732.7433624267578" type="line"/>
      <point x="150.68584442138672" y="60.530975341796875" type="line"/>
    </contour>
  </outline>
</glyph>
<glyph name="braceleft" format="2">
  <advance width="1020"/>
  <unicode hex="007B"/>
  <outline>
    <contour>
      <point x="479.73451232910156" y="149.73451232910156" type="line"/>
      <point x="479.7345132743363" y="33.68583296283188"/>
      <point x="573.9513196884955" y="-60.53097345132744"/>
      <point x="690.0" y="-60.53097345132744" type="curve"/>
      <point x="795.1327438354492" y="-60.530975341796875" type="line"/>
      <point x="795.1327438354492" y="0" type="line"/>
      <point x="690" y="0" type="line"/>
      <point x="607.3592731115044" y="0.0"/>
      <point x="540.2654867256638" y="67.09378638584073"/>
      <point x="540.2654867256638" y="149.73451327433634" type="curve"/>
      <point x="540.2654876708984" y="407.78761291503906" type="line"/>
      <point x="540.2654867256638" y="484.0852080744314"/>
      <point x="499.53968033555003" y="550.945840901573"/>
      <point x="438.65916442871094" y="587.7934799194336" type="curve"/>
      <point x="499.5396803355501" y="624.6293803373651"/>
      <point x="540.2654867256638" y="691.4900131645068"/>
      <point x="540.2654867256639" y="767.787610619469" type="curve"/>
      <point x="540.2654876708984" y="1025.840705871582" type="line"/>
      <point x="540.2654867256638" y="1108.4814348530974"/>
      <point x="607.3592731115045" y="1175.5752212389382"/>
      <point x="690.0" y="1175.5752212389382" type="curve"/>
      <point x="795.1327438354492" y="1175.5752182006836" type="line"/>
      <point x="795.1327438354492" y="1236.1061935424805" type="line"/>
      <point x="690" y="1236.1061935424805" type="line"/>
      <point x="573.9513196884956" y="1236.1061946902655"/>
      <point x="479.7345132743363" y="1141.8893882761063"/>
      <point x="479.7345132743363" y="1025.840707964602" type="curve"/>
      <point x="479.73451232910156" y="767.7876129150391" type="line"/>
      <point x="479.7345132743363" y="685.1468837309735"/>
      <point x="412.6407268884956" y="618.0530973451328"/>
      <point x="330.0" y="618.0530973451328" type="curve"/>
      <point x="224.86725616455078" y="618.0531005859375" type="line"/>
      <point x="224.86725616455078" y="557.5221252441406" type="line"/>
      <point x="330" y="557.5221252441406" type="line"/>
      <point x="412.6407268884956" y="557.5221238938053"/>
      <point x="479.7345132743363" y="490.4283375079646"/>
      <point x="479.7345132743363" y="407.7876106194691" type="curve"/>
    </contour>
  </outline>
</glyph>
<glyph name="bar" format="2">
  <advance width="1020"/>
  <unicode hex="007C"/>
  <outline>
    <contour>
      <point x="479.8780487804878" y="-60.24390243902439" type="line"/>
      <point x="540.1219512195122" y="-60.24390243902439" type="line"/>
      <point x="540.1219512195122" y="1230.2439024390244" type="line"/>
      <point x="479.8780487804878" y="1230.2439024390244" type="line"/>
    </contour>
  </outline>
</glyph>
<glyph name="braceright" format="2">
  <advance width="1020"/>
  <unicode hex="007D"/>
  <outline>
    <contour>
      <point x="330.8536605834961" y="-30.1219482421875" type="line"/>
      <point x="446.35197" y="-30.12195"/>
      <point x="540.12195" y="63.64803"/>
      <point x="540.12195" y="179.14634" type="curve"/>
      <point x="540.1219482421875" y="405.8536605834961" type="line"/>
      <point x="540.12195" y="488.10246"/>
      <point x="606.89754" y="554.87805"/>
      <point x="689.14634" y="554.87805" type="curve"/>
      <point x="793.7804870605469" y="554.8780517578125" type="line"/>
      <point x="793.7804870605469" y="615.1219482421875" type="line"/>
      <point x="689.1463394165039" y="615.1219482421875" type="line"/>
      <point x="606.89754" y="615.12195"/>
      <point x="540.12195" y="681.89754"/>
      <point x="540.12195" y="764.14634" type="curve"/>
      <point x="540.1219482421875" y="990.8536605834961" type="line"/>
      <point x="540.12195" y="1106.35197"/>
      <point x="446.35197" y="1200.12195"/>
      <point x="330.85366" y="1200.12195" type="curve"/>
      <point x="226.21951293945312" y="1200.1219482421875" type="line"/>
      <point x="226.21951293945312" y="1139.8780517578125" type="line"/>
      <point x="330.8536605834961" y="1139.8780517578125" type="line"/>
      <point x="413.10246" y="1139.87805"/>
      <point x="479.87805" y="1073.10246"/>
      <point x="479.87805" y="990.85366" type="curve"/>
      <point x="479.8780517578125" y="764.1463394165039" type="line"/>
      <point x="479.87805" y="688.2082801445799"/>
      <point x="520.4131789113299" y="621.6629988476914"/>
      <point x="581.0078811645508" y="585.0007705688477" type="curve"/>
      <point x="520.4131789113299" y="548.3370011523086"/>
      <point x="479.87805000000003" y="481.79171985542"/>
      <point x="479.8780500000001" y="405.85366" type="curve"/>
      <point x="479.8780517578125" y="179.1463394165039" type="line"/>
      <point x="479.87805" y="96.89754"/>
      <point x="413.10246" y="30.12195"/>
      <point x="330.85366" y="30.12195" type="curve"/>
      <point x="226.21951293945312" y="30.1219482421875" type="line"/>
      <point x="226.21951293945312" y="-30.1219482421875" type="line"/>
    </contour>
  </outline>
</glyph>
<glyph name="tilde" format="2">
  <advance width="1020"/>
  <unicode hex="007E"/>
  <outline>
    <contour>
      <point x="615.5529004674111" y="460.90923318508516" type="curve"/>
      <point x="434.71258544921875" y="565.3174362182617" type="line"/>
      <point x="402.1450290934852" y="584.1203251700061"/>
      <point x="365.20177725015833" y="594.0192396672053"/>
      <point x="327.5960014583042" y="594.0192396672053" type="curve"/>
      <point x="209.35749737391356" y="594.0192396672053"/>
      <point x="113.36283185840705" y="498.02457415169874"/>
      <point x="113.36283185840705" y="379.7860700673081" type="curve"/>
      <point x="173.89380645751953" y="379.78607177734375" type="line"/>
      <point x="173.8938053097345" y="464.6166207286899"/>
      <point x="242.7654507969224" y="533.4882662158778"/>
      <point x="327.59600145830416" y="533.4882662158778" type="curve"/>
      <point x="354.5763721351402" y="533.4882662158778"/>
      <point x="381.08141312292827" y="526.3862618878461"/>
      <point x="404.44709953258905" y="512.8960765494281" type="curve"/>
      <point x="585.2874145507812" y="408.4878692626953" type="line"/>
      <point x="617.8549709065148" y="389.6849845645071"/>
      <point x="654.7982227498417" y="379.7860700673081"/>
      <point x="692.4039985416958" y="379.7860700673081" type="curve"/>
      <point x="810.6425026260864" y="379.7860700673081"/>
      <point x="906.637168141593" y="475.7807355828146"/>
      <point x="906.637168141593" y="594.0192396672053" type="curve"/>
      <point x="846.1061935424805" y="594.0192413330078" type="line"/>
      <point x="846.1061946902655" y="509.18868900582345"/>
      <point x="777.2345492030776" y="440.31704351863556"/>
      <point x="692.4039985416958" y="440.31704351863556" type="curve"/>
      <point x="665.4236278648598" y="440.31704351863556"/>
      <point x="638.9185868770718" y="447.4190478466672"/>
    </contour>
  </outline>
</glyph>
<glyph name="invertedexclam" format="2">
  <advance width="1020"/>
  <unicode hex="00A1"/>
  <outline>
    <contour>
      <point x="416.4634146341463" y="695.9756097560976" type="curve" smooth="yes"/>
      <point x="416.4634146341463" y="644.3513633731708"/>
      <point x="458.37575361707314" y="602.4390243902438"/>
      <point x="509.99999999999994" y="602.4390243902438" type="curve" smooth="yes"/>
      <point x="561.6242463829268" y="602.4390243902438"/>
      <point x="603.5365853658536" y="644.3513633731708"/>
      <point x="603.5365853658536" y="695.9756097560976" type="curve" smooth="yes"/>
      <point x="603.5365853658536" y="747.5998561390244"/>
      <point x="561.6242463829268" y="789.5121951219512"/>
      <point x="510.0" y="789.5121951219512" type="curve" smooth="yes"/>
      <point x="458.3757536170732" y="789.5121951219512"/>
      <point x="416.4634146341463" y="747.5998561390244"/>
    </contour>
    <contour>
      <point x="540.1219512195121" y="478.780487804878" type="line"/>
      <point x="479.87804878048775" y="478.780487804878" type="line"/>
      <point x="479.87804878048763" y="-380.4878048780488" type="line"/>
      <point x="540.1219512195121" y="-380.4878048780488" type="line"/>
    </contour>
  </outline>
</glyph>
<glyph name="cent" format="2">
  <advance width="1020"/>
  <unicode hex="00A2"/>
  <outline>
    <contour>
      <point x="498.4566192626953" y="-126.82926940917969" type="line"/>
      <point x="552.9773483276367" y="-126.82926940917969" type="line"/>
      <point x="552.9773483276367" y="-19.11292266845703" type="line"/>
      <point x="713.9569333139859" y="-8.651001083201452"/>
      <point x="850.02031382523" y="93.83125492025002"/>
      <point x="909.0391099999999" y="236.21951" type="curve"/>
      <point x="842.8359909057617" y="236.21951293945312" type="line"/>
      <point x="788.44957439538" y="127.73650441421"/>
      <point x="680.030940444966" y="50.959083043868176"/>
      <point x="552.9773483276367" y="41.28327178955078" type="curve"/>
      <point x="552.9773483276367" y="748.2296524047852" type="line"/>
      <point x="680.0245863682511" y="738.5535326877208"/>
      <point x="788.43877537368" y="661.7822850378401"/>
      <point x="842.82807" y="553.29268" type="curve"/>
      <point x="909.0375595092773" y="553.2926788330078" type="line"/>
      <point x="850.0179967657599" y="695.68253548778"/>
      <point x="713.9554544390828" y="798.1633697359069"/>
      <point x="552.9773483276367" y="808.6211547851562" type="curve"/>
      <point x="552.9773483276367" y="916.3414611816406" type="line"/>
      <point x="498.4566192626953" y="916.3414611816406" type="line"/>
      <point x="498.4566192626953" y="808.6259307861328" type="line"/>
      <point x="282.2329769437686" y="794.5718676007816"/>
      <point x="110.96089000000003" y="614.5075260988"/>
      <point x="110.96089000000003" y="394.75610000000006" type="curve" smooth="yes"/>
      <point x="110.96089" y="175.0046739012"/>
      <point x="282.23297694376856" y="-5.059667600781552"/>
      <point x="498.4566192626953" y="-19.113014221191406" type="curve"/>
    </contour>
    <contour>
      <point x="171.20478999999995" y="394.75609999999995" type="curve" smooth="yes"/>
      <point x="171.20479" y="581.2449137144"/>
      <point x="315.512779764999" y="734.2947531110752"/>
      <point x="498.4566192626953" y="748.2318725585938" type="curve"/>
      <point x="498.4566192626953" y="41.28162384033203" type="line"/>
      <point x="315.512779764999" y="55.21743691089837"/>
      <point x="171.20478999999995" y="208.26727675436"/>
    </contour>
  </outline>
</glyph>
<glyph name="pound" format="2">
  <advance width="980"/>
  <unicode hex="00A3"/>
  <outline>
    <contour>
      <point x="130" y="30" type="line"/>
      <point x="850" y="30" type="line"/>
      <point x="850" y="90" type="line"/>
      <point x="310" y="90" type="line"/>
      <point x="310" y="493" type="line"/>
      <point x="670" y="493" type="line"/>
      <point x="670" y="547" type="line"/>
      <point x="310" y="547" type="line"/>
      <point x="310" y="840" type="line"/>
      <point x="310.0" y="972.4596048000001"/>
      <point x="417.54039520000003" y="1080.0"/>
      <point x="550.0" y="1080.0" type="curve" smooth="yes"/>
      <point x="682.4596048000001" y="1080.0"/>
      <point x="790.0" y="972.4596048000001"/>
      <point x="790.0" y="840.0" type="curve"/>
      <point x="850" y="840" type="line"/>
      <point x="850.0" y="1005.574506"/>
      <point x="715.574506" y="1140.0"/>
      <point x="550.0" y="1140.0" type="curve" smooth="yes"/>
      <point x="384.425494" y="1140.0"/>
      <point x="250.0" y="1005.574506"/>
      <point x="250.0" y="840.0" type="curve"/>
      <point x="250" y="547" type="line"/>
      <point x="130" y="547" type="line"/>
      <point x="130" y="493" type="line"/>
      <point x="250" y="493" type="line"/>
      <point x="250" y="90" type="line"/>
      <point x="130" y="90" type="line"/>
    </contour>
  </outline>
</glyph>
<glyph name="currency" format="2">
  <advance width="1020"/>
  <unicode hex="00A4"/>
  <outline>
    <contour>
      <point x="795.762195121951" y="585.0" type="curve" smooth="yes"/>
      <point x="795.762195121951" y="653.022788432501"/>
      <point x="771.9433857728029" y="715.5262936087893"/>
      <point x="732.1982650756836" y="764.5993957519531" type="curve"/>
      <point x="919.4536285400391" y="951.8547592163086" type="line"/>
      <point x="876.8547592163086" y="994.4536285400391" type="line"/>
      <point x="689.6042098999023" y="807.2030792236328" type="line"/>
      <point x="640.5146999985959" y="846.9478036379139"/>
      <point x="578.0164797745956" y="870.7621951219512"/>
      <point x="510.0" y="870.7621951219512" type="curve" smooth="yes"/>
      <point x="441.9857282556713" y="870.7621951219512"/>
      <point x="379.4893577874027" y="846.9493497939001"/>
      <point x="330.4006042480469" y="807.1982650756836" type="curve"/>
      <point x="143.1452407836914" y="994.4536285400391" type="line"/>
      <point x="100.54637145996094" y="951.8547592163086" type="line"/>
      <point x="287.7969207763672" y="764.6042098999023" type="line"/>
      <point x="248.05473658445885" y="715.5213663360585"/>
      <point x="224.23780487804873" y="653.0201072528913"/>
      <point x="224.23780487804868" y="585.0" type="curve" smooth="yes"/>
      <point x="224.23780487804873" y="516.977211567499"/>
      <point x="248.0566142271968" y="454.4737063912107"/>
      <point x="287.8017349243164" y="405.4006042480469" type="curve"/>
      <point x="100.54637145996094" y="218.1452407836914" type="line"/>
      <point x="143.1452407836914" y="175.54637145996094" type="line"/>
      <point x="330.39579010009766" y="362.7969207763672" type="line"/>
      <point x="379.4853000014039" y="323.05219636208614"/>
      <point x="441.9835202254043" y="299.2378048780488"/>
      <point x="509.9999999999999" y="299.2378048780488" type="curve" smooth="yes"/>
      <point x="578.0142717443285" y="299.2378048780488"/>
      <point x="640.5106422125971" y="323.05065020609993"/>
      <point x="689.5993957519531" y="362.8017349243164" type="curve"/>
      <point x="876.8547592163086" y="175.54637145996094" type="line"/>
      <point x="919.4536285400391" y="218.1452407836914" type="line"/>
      <point x="732.2030792236328" y="405.39579010009766" type="line"/>
      <point x="771.9452634155408" y="454.47863366394165"/>
      <point x="795.7621951219509" y="516.9798927471088"/>
    </contour>
    <contour>
      <point x="735.5182926829266" y="585.0" type="curve" smooth="yes"/>
      <point x="735.5182926829266" y="460.5330669835365"/>
      <point x="634.4669330164634" y="359.4817073170732"/>
      <point x="509.99999999999994" y="359.4817073170732" type="curve" smooth="yes"/>
      <point x="385.53306698353646" y="359.4817073170732"/>
      <point x="284.4817073170731" y="460.53306698353657"/>
      <point x="284.4817073170731" y="585.0" type="curve" smooth="yes"/>
      <point x="284.4817073170731" y="709.4669330164635"/>
      <point x="385.5330669835365" y="810.5182926829268"/>
      <point x="509.99999999999994" y="810.5182926829268" type="curve" smooth="yes"/>
      <point x="634.4669330164634" y="810.5182926829268"/>
      <point x="735.5182926829266" y="709.4669330164635"/>
    </contour>
  </outline>
</glyph>
<glyph name="yen" format="2">
  <advance width="980"/>
  <unicode hex="00A5"/>
  <outline>
    <contour>
      <point x="130" y="309" type="line"/>
      <point x="460" y="309" type="line"/>
      <point x="460" y="30" type="line"/>
      <point x="520" y="30" type="line"/>
      <point x="520" y="309" type="line"/>
      <point x="850" y="309" type="line"/>
      <point x="850" y="363" type="line"/>
      <point x="520" y="363" type="line"/>
      <point x="520" y="510" type="line"/>
      <point x="850" y="510" type="line"/>
      <point x="850" y="564" type="line"/>
      <point x="550.8571395874023" y="564" type="line"/>
      <point x="880" y="1140" type="line"/>
      <point x="810.8949356079102" y="1140" type="line"/>
      <point x="490" y="578.4338607788086" type="line"/>
      <point x="169.10506439208984" y="1140" type="line"/>
      <point x="100" y="1140" type="line"/>
      <point x="429.14286041259766" y="564" type="line"/>
      <point x="130" y="564" type="line"/>
      <point x="130" y="510" type="line"/>
      <point x="460" y="510" type="line"/>
      <point x="460" y="363" type="line"/>
      <point x="130" y="363" type="line"/>
    </contour>
  </outline>
</glyph>
<glyph name="brokenbar" format="2">
  <advance width="1020"/>
  <unicode hex="00A6"/>
  <outline>
    <contour>
      <point x="479.8780487804878" y="640.0914634146342" type="line"/>
      <point x="540.1219512195122" y="640.0914634146342" type="line"/>
      <point x="540.1219512195122" y="1230.2439024390244" type="line"/>
      <point x="479.8780487804878" y="1230.2439024390244" type="line"/>
    </contour>
    <contour>
      <point x="479.8780487804878" y="-60.24390243902439" type="line"/>
      <point x="540.1219512195122" y="-60.24390243902439" type="line"/>
      <point x="540.1219512195122" y="529.9085365853658" type="line"/>
      <point x="479.8780487804878" y="529.9085365853658" type="line"/>
    </contour>
  </outline>
</glyph>
<glyph name="section" format="2">
  <advance width="1020"/>
  <unicode hex="00A7"/>
  <outline>
    <contour>
      <point x="509.99999999999994" y="310.646017699115" type="curve" smooth="yes"/>
      <point x="478.86537938665197" y="310.646017699115"/>
      <point x="449.0175457351009" y="314.9326448920548"/>
      <point x="421.3938980102539" y="322.7892379760742" type="curve"/>
      <point x="421.23487091064453" y="322.83785247802734" type="line"/>
      <point x="328.8387134563576" y="351.08497189467124"/>
      <point x="260.6421147460601" y="416.267274728845"/>
      <point x="253.7891082763672" y="495.66504669189453" type="curve"/>
      <point x="253.7794647216797" y="495.76383209228516" type="line"/>
      <point x="253.46829986572266" y="500.25860595703125" type="line"/>
      <point x="253.43387603759766" y="500.77655029296875" type="line"/>
      <point x="253.2549057006836" y="505.6847686767578" type="line"/>
      <point x="253.25244903564453" y="505.7541961669922" type="line"/>
      <point x="253.2212371826172" y="508.85840606689453" type="line"/>
      <point x="253.22123893805306" y="618.2548019288496"/>
      <point x="368.27994495292035" y="707.070796460177"/>
      <point x="510.0" y="707.070796460177" type="curve" smooth="yes"/>
      <point x="542.8674317264087" y="707.070796460177"/>
      <point x="574.3008572342445" y="702.293743044284"/>
      <point x="603.1975021362305" y="693.5785446166992" type="curve"/>
      <point x="687.3542595460502" y="667.4703774885147"/>
      <point x="750.3517767350792" y="609.0684083408328"/>
      <point x="764.0123443603516" y="537.9328079223633" type="curve"/>
      <point x="764.0821914672852" y="537.5684967041016" type="line"/>
      <point x="764.8048553466797" y="533.4175567626953" type="line"/>
      <point x="764.9579391479492" y="532.4622039794922" type="line"/>
      <point x="765.4695281982422" y="528.8376235961914" type="line"/>
      <point x="765.6519241333008" y="527.422492980957" type="line"/>
      <point x="766.0023193359375" y="524.187858581543" type="line"/>
      <point x="766.1744155883789" y="522.4253616333008" type="line"/>
      <point x="766.398567199707" y="519.461051940918" type="line"/>
      <point x="766.5320129394531" y="517.4533996582031" type="line"/>
      <point x="766.6527862548828" y="514.6435775756836" type="line"/>
      <point x="766.7311782836914" y="512.4258651733398" type="line"/>
      <point x="766.7787628173828" y="508.85840606689453" type="line"/>
      <point x="766.7787610619469" y="399.46201223044244"/>
      <point x="651.7200550470797" y="310.64601769911496"/>
    </contour>
    <contour>
      <point x="201.18584442138672" y="51.90265655517578" type="line"/>
      <point x="201.1858407079646" y="-72.14635113238946"/>
      <point x="339.5608270980531" y="-172.85840707964613"/>
      <point x="509.99999999999994" y="-172.85840707964613" type="curve" smooth="yes"/>
      <point x="680.4391729019469" y="-172.85840707964613"/>
      <point x="818.8141592920354" y="-72.14635113238958"/>
      <point x="818.8141592920354" y="51.90265486725658" type="curve"/>
      <point x="818.8141592920354" y="146.17431722171753"/>
      <point x="738.5557469695585" y="225.82732207024944"/>
      <point x="625.7259229811947" y="260.32136900235065" type="curve"/>
      <point x="613.2170562744141" y="264.14554595947266" type="line"/>
      <point x="737.73894714648" y="299.0926752678347"/>
      <point x="827.3097345132742" y="395.5133106168565"/>
      <point x="827.3097345132744" y="508.8584070796459" type="curve"/>
      <point x="827.3097345132743" y="510.5766289980573"/>
      <point x="827.2891510035644" y="512.2909616483275"/>
      <point x="827.248176574707" y="513.9548873901367" type="curve"/>
      <point x="827.3097345132743" y="511.10828239761827"/>
      <point x="827.2742970579112" y="513.351011205671"/>
      <point x="827.203857421875" y="515.2236785888672" type="curve"/>
      <point x="827.1670807454985" y="516.7711456837538"/>
      <point x="827.1207634286976" y="517.9390444060814"/>
      <point x="827.0649566650391" y="519.0540008544922" type="curve"/>
      <point x="827.043097653923" y="519.5370509507641"/>
      <point x="827.0197762043803" y="519.9924572914764"/>
      <point x="826.9949951171875" y="520.2553176879883" type="curve"/>
      <point x="826.9270962286984" y="521.7255214350191"/>
      <point x="826.8482808973683" y="522.9739199982342"/>
      <point x="826.7586364746094" y="524.1634292602539" type="curve"/>
      <point x="826.7353142625856" y="524.5056954350819"/>
      <point x="826.7112693874668" y="524.8286364381926"/>
      <point x="826.6864929199219" y="525.0479354858398" type="curve"/>
      <point x="826.5801371027654" y="526.5811240646956"/>
      <point x="826.4602952793743" y="527.9678035609837"/>
      <point x="826.3270721435547" y="529.2898788452148" type="curve"/>
      <point x="826.3117874926024" y="529.4573975839734"/>
      <point x="826.2963237536575" y="529.6156603061687"/>
      <point x="826.2806777954102" y="529.7320022583008" type="curve"/>
      <point x="816.1872116498548" y="632.2528495292605"/>
      <point x="732.8083962813832" y="717.9250986022157"/>
      <point x="618.9836730957031" y="751.9046173095703" type="curve"/>
      <point x="414.6822967529297" y="815.0976333618164" type="line"/>
      <point x="329.98975156006406" y="841.294111953946"/>
      <point x="270.2123893805309" y="898.3662486076556"/>
      <point x="270.2123893805309" y="965.8141592920354" type="curve"/>
      <point x="270.2123893805309" y="1056.4552118686727"/>
      <point x="377.65761608920354" y="1130.0442477876106"/>
      <point x="510.0" y="1130.0442477876106" type="curve" smooth="yes"/>
      <point x="642.3423839107965" y="1130.0442477876106"/>
      <point x="749.787610619469" y="1056.4552118686727"/>
      <point x="749.787610619469" y="965.8141592920354" type="curve"/>
      <point x="810.3185806274414" y="965.8141555786133" type="line"/>
      <point x="810.3185840707964" y="1089.8631652916815"/>
      <point x="675.7503373338053" y="1190.5752212389382"/>
      <point x="510.0" y="1190.5752212389382" type="curve" smooth="yes"/>
      <point x="344.2496626661947" y="1190.5752212389382"/>
      <point x="209.68141592920352" y="1089.8631652916815"/>
      <point x="209.68141592920352" y="965.8141592920354" type="curve"/>
      <point x="209.68141592920352" y="871.1674967924375"/>
      <point x="288.36803730895474" y="791.2542243567963"/>
      <point x="398.77248902447457" y="757.0016938606195" type="curve"/>
      <point x="408.38866424560547" y="754.0183181762695" type="line"/>
      <point x="283.03166938796124" y="719.4515992029615"/>
      <point x="192.6902654867256" y="622.6900379569989"/>
      <point x="192.69026548672554" y="508.85840707964616" type="curve"/>
      <point x="192.69026548672562" y="507.14118479167274"/>
      <point x="192.71082505317506" y="505.42784724774504"/>
      <point x="192.7517547607422" y="503.7640075683594" type="curve"/>
      <point x="192.69026548672562" y="506.6010272814991"/>
      <point x="192.72592933303972" y="504.3508142485816"/>
      <point x="192.79681396484375" y="502.4738006591797" type="curve"/>
      <point x="192.83340995328768" y="500.933769356412"/>
      <point x="192.8793950494212" y="499.77523105129166"/>
      <point x="192.93470001220703" y="498.6687698364258" type="curve"/>
      <point x="192.95726584972235" y="498.1701492459927"/>
      <point x="192.98138565947426" y="497.69973845131466"/>
      <point x="193.0070571899414" y="497.4263000488281" type="curve"/>
      <point x="193.0742279089284" y="495.9709955602445"/>
      <point x="193.15201430227984" y="494.73995641711826"/>
      <point x="193.2403335571289" y="493.5659942626953" type="curve"/>
      <point x="193.26530643751187" y="493.1995798866805"/>
      <point x="193.2911287449268" y="492.8531591317937"/>
      <point x="193.3177947998047" y="492.6163101196289" type="curve"/>
      <point x="193.42247530443524" y="491.1063825477577"/>
      <point x="193.54011344277382" y="489.74638530987755"/>
      <point x="193.6706314086914" y="488.4488067626953" type="curve"/>
      <point x="193.68897694185338" y="488.24772726717345"/>
      <point x="193.70757025576984" y="488.05762163553504"/>
      <point x="193.72643280029297" y="487.91699981689453" type="curve"/>
      <point x="193.87751092336734" y="486.2892226504699"/>
      <point x="194.04489733528268" y="484.7651661257033"/>
      <point x="194.22844696044922" y="483.30924224853516" type="curve"/>
      <point x="194.22916213154437" y="483.3029613244198"/>
      <point x="194.22986221070457" y="483.2971827016492"/>
      <point x="194.2305450439453" y="483.29283905029297" type="curve"/>
      <point x="206.40358812991997" y="382.4772264438187"/>
      <point x="289.56993049309676" y="298.62098161695627"/>
      <point x="402.3330078125" y="265.4168395996094" type="curve"/>
      <point x="606.8794021606445" y="203.13407135009766" type="line"/>
      <point x="695.267457465347" y="176.22059897760784"/>
      <point x="758.2831858407079" y="119.81346940714533"/>
      <point x="758.2831858407079" y="51.90265486725658" type="curve"/>
      <point x="758.2831858407079" y="-38.7383977093806"/>
      <point x="647.0312194789379" y="-112.32743362831869"/>
      <point x="510.0" y="-112.32743362831869" type="curve" smooth="yes"/>
      <point x="372.96878052106194" y="-112.32743362831869"/>
      <point x="261.71681415929197" y="-38.73839770938048"/>
      <point x="261.71681415929197" y="51.90265486725658" type="curve"/>
    </contour>
  </outline>
</glyph>
<glyph name="diaeresis" format="2">
  <advance width="980"/>
  <unicode hex="00A8"/>
  <outline>
    <contour>
      <point x="399.3" y="1046.8" type="curve" smooth="yes"/>
      <point x="399.3" y="1072.629622936"/>
      <point x="378.329622936" y="1093.6"/>
      <point x="352.5" y="1093.6" type="curve" smooth="yes"/>
      <point x="326.67037706400004" y="1093.6"/>
      <point x="305.7" y="1072.629622936"/>
      <point x="305.7" y="1046.8" type="curve" smooth="yes"/>
      <point x="305.7" y="1020.970377064"/>
      <point x="326.670377064" y="1000.0"/>
      <point x="352.5" y="1000.0" type="curve" smooth="yes"/>
      <point x="378.32962293599996" y="1000.0"/>
      <point x="399.3" y="1020.970377064"/>
    </contour>
    <contour>
      <point x="674.3" y="1046.8" type="curve" smooth="yes"/>
      <point x="674.3" y="1072.629622936"/>
      <point x="653.3296229360001" y="1093.6"/>
      <point x="627.5" y="1093.6" type="curve" smooth="yes"/>
      <point x="601.6703770639999" y="1093.6"/>
      <point x="580.7" y="1072.629622936"/>
      <point x="580.7" y="1046.8" type="curve" smooth="yes"/>
      <point x="580.7" y="1020.970377064"/>
      <point x="601.6703770639999" y="1000.0"/>
      <point x="627.5" y="1000.0" type="curve" smooth="yes"/>
      <point x="653.3296229360001" y="1000.0"/>
      <point x="674.3" y="1020.970377064"/>
    </contour>
  </outline>
</glyph>
<glyph name="copyright" format="2">
  <advance width="1020"/>
  <unicode hex="00A9"/>
  <outline>
    <contour>
      <point x="904.7561" y="585.0" type="curve" smooth="yes"/>
      <point x="904.7561" y="802.87182"/>
      <point x="727.87182" y="979.7561"/>
      <point x="510.0" y="979.7561" type="curve" smooth="yes"/>
      <point x="292.12818" y="979.7561"/>
      <point x="115.2439" y="802.87182"/>
      <point x="115.2439" y="585.0" type="curve" smooth="yes"/>
      <point x="115.2439" y="367.12818"/>
      <point x="292.12818" y="190.2439"/>
      <point x="510.0" y="190.2439" type="curve" smooth="yes"/>
      <point x="727.87182" y="190.2439"/>
      <point x="904.7561" y="367.12818"/>
    </contour>
    <contour>
      <point x="860.77805" y="585.0" type="curve" smooth="yes"/>
      <point x="860.77805" y="391.40033"/>
      <point x="703.59967" y="234.22195"/>
      <point x="510.0" y="234.22195" type="curve" smooth="yes"/>
      <point x="316.40033" y="234.22195"/>
      <point x="159.22195" y="391.40033"/>
      <point x="159.22195" y="585.0" type="curve" smooth="yes"/>
      <point x="159.22195" y="778.59967"/>
      <point x="316.40033" y="935.77805"/>
      <point x="510.0" y="935.77805" type="curve" smooth="yes"/>
      <point x="703.59967" y="935.77805"/>
      <point x="860.77805" y="778.59967"/>
    </contour>
    <contour>
      <point x="510.0" y="418.07161" type="curve" smooth="yes"/>
      <point x="417.86972" y="418.07161"/>
      <point x="343.07161" y="492.86972"/>
      <point x="343.07161" y="585.0" type="curve" smooth="yes"/>
      <point x="343.07161" y="677.13028"/>
      <point x="417.86972" y="751.92839"/>
      <point x="510.0" y="751.92839" type="curve" smooth="yes"/>
      <point x="573.44524" y="751.92839"/>
      <point x="628.67097" y="716.45653"/>
      <point x="656.90999" y="664.26829" type="curve"/>
      <point x="713.58212" y="664.26829" type="line"/>
      <point x="681.81859" y="745.69287"/>
      <point x="602.59951" y="803.43692"/>
      <point x="510.0" y="803.43692" type="curve" smooth="yes"/>
      <point x="389.44138" y="803.43692"/>
      <point x="291.56308" y="705.55862"/>
      <point x="291.56308" y="585.0" type="curve" smooth="yes"/>
      <point x="291.56308" y="464.44138"/>
      <point x="389.44138" y="366.56308"/>
      <point x="510.0" y="366.56308" type="curve" smooth="yes"/>
      <point x="602.60373" y="366.56308"/>
      <point x="681.82581" y="424.31239"/>
      <point x="713.58651" y="505.73171" type="curve"/>
      <point x="656.91364" y="505.73171" type="line"/>
      <point x="628.67578" y="453.54656"/>
      <point x="573.44801" y="418.07161"/>
    </contour>
  </outline>
</glyph>
<glyph name="ordinalfeminine" format="2">
  <advance width="1020"/>
  <unicode hex="00AA"/>
  <outline>
    <contour>
      <point x="536.89634" y="930.2505404359247" type="curve"/>
      <point x="659.5871963500977" y="930.2505416870117" type="line"/>
      <point x="659.5872" y="849.84332"/>
      <point x="581.99178" y="784.42873"/>
      <point x="486.21951" y="784.42873" type="curve"/>
      <point x="422.401867936597" y="784.42873"/>
      <point x="360.4128" y="811.9027140060538"/>
      <point x="360.4128" y="857.33963" type="curve"/>
      <point x="360.4128" y="929.0764473117563"/>
      <point x="480.27525553154913" y="930.2505398585556"/>
    </contour>
    <contour>
      <point x="302.87988" y="569.16171" type="line"/>
      <point x="717.12012" y="569.16171" type="line"/>
      <point x="717.12012" y="625.43238" type="line"/>
      <point x="302.87988" y="625.43238" type="line"/>
    </contour>
    <contour>
      <point x="659.5871963500977" y="737.3643569946289" type="line"/>
      <point x="717.1201171875" y="737.3643569946289" type="line"/>
      <point x="717.1201171875" y="954.5297393798828" type="line"/>
      <point x="717.1201171875" y="1014.3532202455787"/>
      <point x="705.9282284449687" y="1170.0"/>
      <point x="516.29119" y="1170.0" type="curve"/>
      <point x="404.13102999999995" y="1170.0"/>
      <point x="313.34844" y="1099.59215"/>
      <point x="313.34844" y="1013.1334" type="curve"/>
      <point x="370.8813705444336" y="1013.1333999633789" type="line"/>
      <point x="370.88137" y="1067.84709"/>
      <point x="435.87605999999994" y="1112.46707"/>
      <point x="516.29119" y="1112.46707" type="curve"/>
      <point x="595.45044" y="1112.46707"/>
      <point x="659.5872" y="1065.4558"/>
      <point x="659.5872" y="997.27974" type="curve"/>
      <point x="659.5871963500977" y="987.7834701538086" type="line"/>
      <point x="536.8963394165039" y="987.7834701538086" type="line"/>
      <point x="476.65782806039704" y="987.7834701538086"/>
      <point x="302.87988" y="985.3594278806142"/>
      <point x="302.87988" y="857.33963" type="curve"/>
      <point x="302.87988" y="783.27577"/>
      <point x="384.86330999999996" y="726.8958"/>
      <point x="486.21951" y="726.8958" type="curve"/>
      <point x="555.2525251731106" y="726.8958"/>
      <point x="617.2571154367809" y="753.6620414967516"/>
      <point x="659.5871963500977" y="796.0372772216797" type="curve"/>
    </contour>
  </outline>
</glyph>
<glyph name="angledblleft" format="2">
  <advance width="1020"/>
  <unicode hex="00AB"/>
  <outline>
    <contour>
      <point x="782.4796752929688" y="221.42276763916016" type="line"/>
      <point x="521.6840744018555" y="484.59349822998047" type="line"/>
      <point x="782.4796752929688" y="747.7642288208008" type="line"/>
      <point x="697.6655197143555" y="747.7642288208008" type="line"/>
      <point x="436.8699188232422" y="484.59349822998047" type="line"/>
      <point x="697.6655197143555" y="221.42276763916016" type="line"/>
    </contour>
    <contour>
      <point x="553.1300811767578" y="221.42276763916016" type="line"/>
      <point x="292.33448028564453" y="484.59349822998047" type="line"/>
      <point x="553.1300811767578" y="747.7642288208008" type="line"/>
      <point x="468.31592559814453" y="747.7642288208008" type="line"/>
      <point x="207.52032470703125" y="484.59349822998047" type="line"/>
      <point x="468.31592559814453" y="221.42276763916016" type="line"/>
    </contour>
  </outline>
</glyph>
<glyph name="logicalnot" format="2">
  <advance width="1020"/>
  <unicode hex="00AC"/>
  <outline>
    <contour>
      <point x="115.24390411376953" y="454.47154235839844" type="line"/>
      <point x="844.5121917724609" y="454.47154235839844" type="line"/>
      <point x="844.5121917724609" y="0" type="line"/>
      <point x="904.7560958862305" y="0" type="line"/>
      <point x="904.7560958862305" y="514.715446472168" type="line"/>
      <point x="115.24390411376953" y="514.715446472168" type="line"/>
    </contour>
  </outline>
</glyph>
<glyph name="registered" format="2">
  <advance width="1020"/>
  <unicode hex="00AE"/>
  <outline>
    <contour>
      <point x="904.7561" y="775.2439" type="curve" smooth="yes"/>
      <point x="904.7561" y="993.11572"/>
      <point x="727.87182" y="1170.0"/>
      <point x="510.0" y="1170.0" type="curve" smooth="yes"/>
      <point x="292.12818" y="1170.0"/>
      <point x="115.2439" y="993.11572"/>
      <point x="115.2439" y="775.2439" type="curve" smooth="yes"/>
      <point x="115.2439" y="557.37208"/>
      <point x="292.12818" y="380.4878"/>
      <point x="510.0" y="380.4878" type="curve" smooth="yes"/>
      <point x="727.87182" y="380.4878"/>
      <point x="904.7561" y="557.37208"/>
    </contour>
    <contour>
      <point x="860.77805" y="775.2439" type="curve" smooth="yes"/>
      <point x="860.77805" y="581.64423"/>
      <point x="703.59967" y="424.46585"/>
      <point x="510.0" y="424.46585" type="curve" smooth="yes"/>
      <point x="316.40033" y="424.46585"/>
      <point x="159.22195" y="581.64423"/>
      <point x="159.22195" y="775.2439" type="curve" smooth="yes"/>
      <point x="159.22195" y="968.84358"/>
      <point x="316.40033" y="1126.02195"/>
      <point x="510.0" y="1126.02195" type="curve" smooth="yes"/>
      <point x="703.59967" y="1126.02195"/>
      <point x="860.77805" y="968.84358"/>
    </contour>
    <contour>
      <point x="358.8995666503906" y="567.0515518188477" type="line"/>
      <point x="410.4081115722656" y="567.0515518188477" type="line"/>
      <point x="410.4081115722656" y="720.904182434082" type="line"/>
      <point x="523.7394485473633" y="720.904182434082" type="line"/>
      <point x="640.6401290893555" y="567.0515518188477" type="line"/>
      <point x="702.3096313476562" y="567.0515518188477" type="line"/>
      <point x="580.174430847168" y="727.793327331543" type="line"/>
      <point x="643.5953551886848" y="745.8616265961724"/>
      <point x="689.4325" y="797.6338046766"/>
      <point x="689.4324999999999" y="858.60916" type="curve" smooth="yes"/>
      <point x="689.4325" y="914.2693800572695"/>
      <point x="660.4936801217011" y="996.3141279621066"/>
      <point x="487.75750000000005" y="996.3141306702247" type="curve"/>
      <point x="358.8995666503906" y="996.3141326904297" type="line"/>
    </contour>
    <contour>
      <point x="494.48004376707" y="951.6831283569336" type="line"/>
      <point x="533.4717377106463" y="951.6831283569336"/>
      <point x="637.92396" y="949.597721157468"/>
      <point x="637.92396" y="858.60916" type="curve" smooth="yes"/>
      <point x="637.92396" y="767.620598342532"/>
      <point x="533.4717380005633" y="765.5351800212709"/>
      <point x="494.48004329079765" y="765.535179741472" type="curve"/>
      <point x="410.4081115722656" y="765.5351791381836" type="line"/>
      <point x="410.4081115722656" y="951.6831283569336" type="line"/>
    </contour>
  </outline>
</glyph>
<glyph name="macron" format="2">
  <advance width="1020"/>
  <unicode hex="00AF"/>
  <outline>
    <contour>
      <point x="246.82927" y="1126.70732" type="line"/>
      <point x="773.17073" y="1126.70732" type="line"/>
      <point x="773.17073" y="1186.95122" type="line"/>
      <point x="246.82927" y="1186.95122" type="line"/>
    </contour>
  </outline>
</glyph>
<glyph name="degree" format="2">
  <advance width="980"/>
  <unicode hex="00B0"/>
  <outline>
    <contour>
      <point x="700.0" y="930.0" type="curve" smooth="yes"/>
      <point x="700.0" y="1045.9021542"/>
      <point x="605.9021542" y="1140.0"/>
      <point x="490.0" y="1140.0" type="curve" smooth="yes"/>
      <point x="374.0978458" y="1140.0"/>
      <point x="280.0" y="1045.9021542"/>
      <point x="280.0" y="930.0" type="curve" smooth="yes"/>
      <point x="280.0" y="814.0978458"/>
      <point x="374.09784579999996" y="720.0"/>
      <point x="490.0" y="720.0" type="curve" smooth="yes"/>
      <point x="605.9021542" y="720.0"/>
      <point x="700.0" y="814.0978458"/>
    </contour>
    <contour>
      <point x="640.0" y="930.0" type="curve" smooth="yes"/>
      <point x="640.0" y="847.2127469999999"/>
      <point x="572.787253" y="780.0"/>
      <point x="490.0" y="780.0" type="curve" smooth="yes"/>
      <point x="407.212747" y="780.0"/>
      <point x="340.0" y="847.212747"/>
      <point x="340.0" y="930.0" type="curve" smooth="yes"/>
      <point x="340.0" y="1012.787253"/>
      <point x="407.21274700000004" y="1080.0"/>
      <point x="490.0" y="1080.0" type="curve" smooth="yes"/>
      <point x="572.787253" y="1080.0"/>
      <point x="640.0" y="1012.787253"/>
    </contour>
  </outline>
</glyph>
<glyph name="plusminus" format="2">
  <advance width="1020"/>
  <unicode hex="00B1"/>
  <outline>
    <contour>
      <point x="479.73451232910156" y="236.81415557861328" type="line"/>
      <point x="540.2654876708984" y="236.81415557861328" type="line"/>
      <point x="540.2654876708984" y="529.911506652832" type="line"/>
      <point x="833.3628311157227" y="529.911506652832" type="line"/>
      <point x="833.3628311157227" y="590.4424743652344" type="line"/>
      <point x="540.2654876708984" y="590.4424743652344" type="line"/>
      <point x="540.2654876708984" y="883.5398254394531" type="line"/>
      <point x="479.73451232910156" y="883.5398254394531" type="line"/>
      <point x="479.73451232910156" y="590.4424743652344" type="line"/>
      <point x="186.63716888427734" y="590.4424743652344" type="line"/>
      <point x="186.63716888427734" y="529.911506652832" type="line"/>
      <point x="479.73451232910156" y="529.911506652832" type="line"/>
    </contour>
    <contour>
      <point x="186.6371681415929" y="90.26548672566372" type="line"/>
      <point x="833.3628318584072" y="90.26548672566372" type="line"/>
      <point x="833.3628318584072" y="150.79646017699116" type="line"/>
      <point x="186.6371681415929" y="150.79646017699116" type="line"/>
    </contour>
  </outline>
</glyph>
<glyph name="sup_two" format="2">
  <advance width="1020"/>
  <unicode hex="00B2"/>
  <outline>
    <contour>
      <point x="279.5741882324219" y="419.94000244140625" type="line"/>
      <point x="746.8457336425781" y="419.94000244140625" type="line"/>
      <point x="746.8457336425781" y="477.4729309082031" type="line"/>
      <point x="362.6737594604492" y="477.4729309082031" type="line"/>
      <point x="643.129827226545" y="746.5654329386799" type="line"/>
      <point x="697.2859074048602" y="798.5272080267483"/>
      <point x="746.84573" y="853.5619453327355"/>
      <point x="746.84573" y="947.06459" type="curve"/>
      <point x="746.84573" y="1077.78331"/>
      <point x="640.7187200000001" y="1183.91033"/>
      <point x="510.0" y="1183.91033" type="curve" smooth="yes"/>
      <point x="379.28128" y="1183.91033"/>
      <point x="273.15427" y="1077.78331"/>
      <point x="273.15427" y="947.06459" type="curve"/>
      <point x="330.6872024536133" y="947.0645904541016" type="line"/>
      <point x="330.6872" y="1046.03002"/>
      <point x="411.03457" y="1126.3774"/>
      <point x="510.0" y="1126.3774" type="curve" smooth="yes"/>
      <point x="608.96543" y="1126.3774"/>
      <point x="689.3128" y="1046.03002"/>
      <point x="689.3128" y="947.06459" type="curve"/>
      <point x="689.3128" y="880.1337074369061"/>
      <point x="655.3964972102805" y="838.0676128919443"/>
      <point x="603.2976379451984" y="788.0797033410114" type="curve"/>
      <point x="279.5741882324219" y="477.4729309082031" type="line"/>
    </contour>
  </outline>
</glyph>
<glyph name="sup_three" format="2">
  <advance width="1020"/>
  <unicode hex="00B3"/>
  <outline>
    <contour>
      <point x="262.06990814208984" y="622.8330917358398" type="line"/>
      <point x="262.0699115044248" y="505.7611975483609"/>
      <point x="373.1636602493628" y="410.71367256637166"/>
      <point x="510.0" y="410.71367256637166" type="curve" smooth="yes"/>
      <point x="646.8363397506372" y="410.71367256637166"/>
      <point x="757.9300884955753" y="505.7611975483607"/>
      <point x="757.9300884955753" y="622.8330901420046" type="curve"/>
      <point x="757.9300884955753" y="701.4440562932141"/>
      <point x="707.8401369977802" y="770.1246751665561"/>
      <point x="633.5008392333984" y="806.756706237793" type="curve"/>
      <point x="702.114551651636" y="842.5143374592997"/>
      <point x="747.974336283186" y="907.1754997116891"/>
      <point x="747.974336283186" y="980.9368512039514" type="curve"/>
      <point x="747.974336283186" y="1093.4123985778608"/>
      <point x="641.3416105692213" y="1184.7282743362832"/>
      <point x="510.0" y="1184.7282743362832" type="curve" smooth="yes"/>
      <point x="378.6583894307788" y="1184.7282743362832"/>
      <point x="272.02566371681417" y="1093.4123985778608"/>
      <point x="272.02566371681417" y="980.9368512039515" type="curve"/>
      <point x="329.8327407836914" y="980.9368515014648" type="line"/>
      <point x="329.8327433628319" y="1061.5078030588875"/>
      <point x="410.56298494975226" y="1126.9211946902656"/>
      <point x="510.0" y="1126.9211946902656" type="curve" smooth="yes"/>
      <point x="609.4370150502477" y="1126.9211946902656"/>
      <point x="690.1672566371682" y="1061.5078030588875"/>
      <point x="690.1672566371682" y="980.9368512039515" type="curve"/>
      <point x="690.1672566371682" y="900.3658993490156"/>
      <point x="609.4370150502477" y="834.9525077176374"/>
      <point x="510.0" y="834.9525077176374" type="curve"/>
      <point x="465.6809768676758" y="834.952507019043" type="line"/>
      <point x="465.6809768676758" y="777.1454315185547" type="line"/>
      <point x="510" y="777.1454315185547" type="line"/>
      <point x="614.9317442316639" y="777.1454280716198"/>
      <point x="700.1230088495576" y="708.0003872166749"/>
      <point x="700.1230088495576" y="622.8330901420046" type="curve"/>
      <point x="700.1230088495576" y="537.6657930673342"/>
      <point x="614.9317442316637" y="468.5207522123893"/>
      <point x="510.0" y="468.5207522123894" type="curve" smooth="yes"/>
      <point x="405.06825576833626" y="468.5207522123894"/>
      <point x="319.8769911504425" y="537.6657930673342"/>
      <point x="319.8769911504425" y="622.8330901420046" type="curve"/>
    </contour>
  </outline>
</glyph>
<glyph name="acute" format="2">
  <advance width="1020"/>
  <unicode hex="00B4"/>
  <outline>
    <contour>
      <point x="397.6549574557332" y="1022.0325203252032" type="line"/>
      <point x="466.87252300974137" y="1022.0325203252032" type="line"/>
      <point x="622.3450425442668" y="1296.8292682926829" type="line"/>
      <point x="553.1274769902587" y="1296.8292682926829" type="line"/>
    </contour>
  </outline>
</glyph>
<glyph name="mu" format="2">
  <advance width="1020"/>
  <unicode hex="00B5"/>
  <outline>
    <contour>
      <point x="171.15463256835938" y="-225" type="line"/>
      <point x="231.3985366821289" y="-225" type="line"/>
      <point x="231.3985366821289" y="104.24508666992188" type="line"/>
      <point x="287.3069124816586" y="28.873162993198818"/>
      <point x="376.93108466560005" y="-19.999999999999964"/>
      <point x="477.88012000000003" y="-19.999999999999957" type="curve" smooth="yes"/>
      <point x="588.60883720331" y="-20.0"/>
      <point x="685.712150820617" y="38.80125377822725"/>
      <point x="739.6410140991211" y="126.87521362304688" type="curve"/>
      <point x="770.2383978935089" y="52.43979531124647"/>
      <point x="843.46621802519" y="7.105427357601002e-15"/>
      <point x="928.84537" y="-1.4210854715202004e-14" type="curve"/>
      <point x="928.8453674316406" y="60.243896484375" type="line"/>
      <point x="849.23728" y="60.2439"/>
      <point x="784.60561" y="124.87557"/>
      <point x="784.60561" y="204.48366" type="curve"/>
      <point x="784.6056137084961" y="789.5121994018555" type="line"/>
      <point x="724.3617095947266" y="789.5121994018555" type="line"/>
      <point x="724.3617095947266" y="286.7254867553711" type="line"/>
      <point x="724.36171" y="150.6886"/>
      <point x="613.91701" y="40.2439"/>
      <point x="477.88012" y="40.2439" type="curve" smooth="yes"/>
      <point x="341.84323" y="40.2439"/>
      <point x="231.39854" y="150.6886"/>
      <point x="231.39854" y="286.72549" type="curve"/>
      <point x="231.3985366821289" y="789.5121994018555" type="line"/>
      <point x="171.15463256835938" y="789.5121994018555" type="line"/>
    </contour>
  </outline>
</glyph>
<glyph name="pilcrow" format="2">
  <advance width="1020"/>
  <unicode hex="00B6"/>
  <outline>
    <contour>
      <point x="496.3138198852539" y="-127.43363189697266" type="line"/>
      <point x="556.8447952270508" y="-127.43363189697266" type="line"/>
      <point x="556.8447952270508" y="1115.0442504882812" type="line"/>
      <point x="684.2784194946289" y="1115.0442504882812" type="line"/>
      <point x="684.2784194946289" y="-127.43363189697266" type="line"/>
      <point x="744.8093948364258" y="-127.43363189697266" type="line"/>
      <point x="744.8093948364258" y="1115.0442504882812" type="line"/>
      <point x="838.7916946411133" y="1115.0442504882812" type="line"/>
      <point x="838.7916946411133" y="1175.5752182006836" type="line"/>
      <point x="496.3138198852539" y="1175.5752182006836" type="line"/>
      <point x="327.9215030878148" y="1175.5752212389382"/>
      <point x="191.20830496936685" y="1038.8620231204902"/>
      <point x="191.20830496936685" y="870.4697072838666" type="curve" smooth="yes"/>
      <point x="191.20830496936685" y="702.077391447243"/>
      <point x="327.9215030878147" y="565.364193328795"/>
      <point x="496.3138189244383" y="565.364193328795" type="curve"/>
    </contour>
  </outline>
</glyph>
<glyph name="periodcentered" format="2">
  <advance width="980"/>
  <unicode hex="00B7"/>
  <outline>
    <contour>
      <point x="580.0" y="400.0" type="curve" smooth="yes"/>
      <point x="580.0" y="449.6723518"/>
      <point x="539.6723518" y="490.0"/>
      <point x="490.0" y="490.0" type="curve" smooth="yes"/>
      <point x="440.3276482" y="490.0"/>
      <point x="400.0" y="449.6723518"/>
      <point x="400.0" y="400.0" type="curve" smooth="yes"/>
      <point x="400.0" y="350.3276482"/>
      <point x="440.3276482" y="310.0"/>
      <point x="490.0" y="310.0" type="curve" smooth="yes"/>
      <point x="539.6723518" y="310.0"/>
      <point x="580.0" y="350.3276482"/>
    </contour>
  </outline>
</glyph>
<glyph name="cedilla" format="2">
  <advance width="980"/>
  <unicode hex="00B8"/>
  <outline>
    <contour>
      <point x="440" y="-90" type="line"/>
      <point x="470" y="-90" type="line"/>
      <point x="503.1149012" y="-90.0"/>
      <point x="530.0" y="-116.88509879999998"/>
      <point x="530.0" y="-150.0" type="curve" smooth="yes"/>
      <point x="530.0" y="-183.1149012"/>
      <point x="503.1149012" y="-210.0"/>
      <point x="470.0" y="-210.0" type="curve"/>
      <point x="390" y="-210" type="line"/>
      <point x="390" y="-270" type="line"/>
      <point x="470" y="-270" type="line"/>
      <point x="536.2298024" y="-270.0"/>
      <point x="590.0" y="-216.22980239999998"/>
      <point x="590.0" y="-150.0" type="curve" smooth="yes"/>
      <point x="590.0" y="-94.1276114781264"/>
      <point x="551.7325794509719" y="-47.12253157771655"/>
      <point x="500" y="-33.790283203125" type="curve"/>
      <point x="500" y="60" type="line"/>
      <point x="440" y="60" type="line"/>
    </contour>
  </outline>
</glyph>
<glyph name="sup_one" format="2">
  <advance width="1020"/>
  <unicode hex="00B9"/>
  <outline>
    <contour>
      <point x="267.04779052734375" y="420.36610412597656" type="line"/>
      <point x="752.9522094726562" y="420.36610412597656" type="line"/>
      <point x="752.9522094726562" y="478.1731872558594" type="line"/>
      <point x="555.4964599609375" y="478.1731872558594" type="line"/>
      <point x="555.4964599609375" y="1175.0758438110352" type="line"/>
      <point x="497.6893768310547" y="1175.0758438110352" type="line"/>
      <point x="267.04779052734375" y="1041.9148559570312" type="line"/>
      <point x="267.04779052734375" y="975.1649856567383" type="line"/>
      <point x="497.6893768310547" y="1108.3259735107422" type="line"/>
      <point x="497.6893768310547" y="478.1731872558594" type="line"/>
      <point x="267.04779052734375" y="478.1731872558594" type="line"/>
    </contour>
  </outline>
</glyph>
<glyph name="ordinalmasculine" format="2">
  <advance width="980"/>
  <unicode hex="00BA"/>
  <outline>
    <contour>
      <point x="670.0" y="960.0" type="curve" smooth="yes"/>
      <point x="670.0" y="1059.3447036"/>
      <point x="589.3447036" y="1140.0"/>
      <point x="490.0" y="1140.0" type="curve" smooth="yes"/>
      <point x="390.6552964" y="1140.0"/>
      <point x="310.0" y="1059.3447036"/>
      <point x="310.0" y="960.0" type="curve" smooth="yes"/>
      <point x="310.0" y="860.6552964"/>
      <point x="390.6552964" y="780.0"/>
      <point x="490.0" y="780.0" type="curve" smooth="yes"/>
      <point x="589.3447036" y="780.0"/>
      <point x="670.0" y="860.6552964"/>
    </contour>
    <contour>
      <point x="613.0" y="960.0" type="curve" smooth="yes"/>
      <point x="613.0" y="892.11445254"/>
      <point x="557.88554746" y="837.0"/>
      <point x="490.0" y="837.0" type="curve" smooth="yes"/>
      <point x="422.11445254" y="837.0"/>
      <point x="367.0" y="892.11445254"/>
      <point x="367.0" y="960.0" type="curve" smooth="yes"/>
      <point x="367.0" y="1027.88554746"/>
      <point x="422.11445254" y="1083.0"/>
      <point x="490.0" y="1083.0" type="curve" smooth="yes"/>
      <point x="557.88554746" y="1083.0"/>
      <point x="613.0" y="1027.88554746"/>
    </contour>
    <contour>
      <point x="310.0" y="628.8571428571428" type="line"/>
      <point x="670.0" y="628.8571428571428" type="line"/>
      <point x="670.0" y="684.0" type="line"/>
      <point x="310.0" y="684.0" type="line"/>
    </contour>
  </outline>
</glyph>
<glyph name="angledblright" format="2">
  <advance width="1020"/>
  <unicode hex="00BB"/>
  <outline>
    <contour>
      <point x="466.8699188232422" y="221.42276763916016" type="line"/>
      <point x="551.6840744018555" y="221.42276763916016" type="line"/>
      <point x="812.4796752929688" y="484.59349822998047" type="line"/>
      <point x="551.6840744018555" y="747.7642288208008" type="line"/>
      <point x="466.8699188232422" y="747.7642288208008" type="line"/>
      <point x="727.6655197143555" y="484.59349822998047" type="line"/>
    </contour>
    <contour>
      <point x="237.52032470703125" y="221.42276763916016" type="line"/>
      <point x="322.33448028564453" y="221.42276763916016" type="line"/>
      <point x="583.1300811767578" y="484.59349822998047" type="line"/>
      <point x="322.33448028564453" y="747.7642288208008" type="line"/>
      <point x="237.52032470703125" y="747.7642288208008" type="line"/>
      <point x="498.31592559814453" y="484.59349822998047" type="line"/>
    </contour>
  </outline>
</glyph>
<glyph name="one_over_four" format="2">
  <advance width="980"/>
  <unicode hex="00BC"/>
  <outline>
    <contour>
      <point x="129.25" y="612.75" type="line"/>
      <point x="452.25" y="612.75" type="line"/>
      <point x="452.25" y="669.75" type="line"/>
      <point x="319.25" y="669.75" type="line"/>
      <point x="319.25" y="1140" type="line"/>
      <point x="262.25" y="1140" type="line"/>
      <point x="129.25" y="1064.1381378173828" type="line"/>
      <point x="129.25" y="998.5176773071289" type="line"/>
      <point x="262.25" y="1074.379539489746" type="line"/>
      <point x="262.25" y="669.75" type="line"/>
      <point x="129.25" y="669.75" type="line"/>
    </contour>
    <contour>
      <point x="115.00000000000003" y="375.0000000000016" type="line"/>
      <point x="865.0" y="733.8695889396541" type="line"/>
      <point x="865.0" y="795.0" type="line"/>
      <point x="115.00000000000003" y="436.1304110603475" type="line"/>
    </contour>
    <contour>
      <point x="590.1073608398438" y="218.53845977783203" type="line"/>
      <point x="733.461540222168" y="449.2490921020508" type="line"/>
      <point x="733.461540222168" y="218.53845977783203" type="line"/>
    </contour>
    <contour>
      <point x="523" y="161.53845977783203" type="line"/>
      <point x="733.461540222168" y="161.53845977783203" type="line"/>
      <point x="733.461540222168" y="30" type="line"/>
      <point x="790.461540222168" y="30" type="line"/>
      <point x="790.461540222168" y="161.53845977783203" type="line"/>
      <point x="865" y="161.53845977783203" type="line"/>
      <point x="865" y="218.53845977783203" type="line"/>
      <point x="790.461540222168" y="218.53845977783203" type="line"/>
      <point x="790.461540222168" y="557.25" type="line"/>
      <point x="733.461540222168" y="557.25" type="line"/>
      <point x="523" y="218.53845977783203" type="line"/>
    </contour>
  </outline>
</glyph>
<glyph name="one_over_two" format="2">
  <advance width="1020"/>
  <unicode hex="00BD"/>
  <outline>
    <contour>
      <point x="113.77362823486328" y="643.5" type="line"/>
      <point x="478.07484436035156" y="643.5" type="line"/>
      <point x="478.07484436035156" y="701.0329284667969" type="line"/>
      <point x="336.58094787597656" y="701.0329284667969" type="line"/>
      <point x="336.58094787597656" y="1200.4231719970703" type="line"/>
      <point x="279.0480194091797" y="1200.4231719970703" type="line"/>
      <point x="113.77362823486328" y="1105.0019607543945" type="line"/>
      <point x="113.77362823486328" y="1038.5686569213867" type="line"/>
      <point x="279.0480194091797" y="1133.9898681640625" type="line"/>
      <point x="279.0480194091797" y="701.0329284667969" type="line"/>
      <point x="113.77362823486328" y="701.0329284667969" type="line"/>
    </contour>
    <contour>
      <point x="97.87637195121957" y="364.63414634149296" type="line"/>
      <point x="919.0958841463415" y="743.3984403010285" type="line"/>
      <point x="919.0958841463415" y="805.3658536585366" type="line"/>
      <point x="97.87637195121957" y="426.60155969900103" type="line"/>
    </contour>
    <contour>
      <point x="565.4443588256836" y="0" type="line"/>
      <point x="932.1236267089844" y="0" type="line"/>
      <point x="932.1236267089844" y="57.532928466796875" type="line"/>
      <point x="653.7716903686523" y="57.532928466796875" type="line"/>
      <point x="868.2041702270508" y="241.61123657226562" type="line"/>
      <point x="908.7780959957922" y="276.4416882209606"/>
      <point x="932.1236280487805" y="327.250185420389"/>
      <point x="932.1236280487805" y="380.7235772357724" type="curve"/>
      <point x="932.1236280487805" y="481.91147508244313"/>
      <point x="849.9718917491097" y="564.0632113821139"/>
      <point x="748.7839939024391" y="564.0632113821139" type="curve" smooth="yes"/>
      <point x="647.5960960557684" y="564.0632113821139"/>
      <point x="565.4443597560976" y="481.9114750824432"/>
      <point x="565.4443597560976" y="380.7235772357724" type="curve"/>
      <point x="622.9772872924805" y="380.7235794067383" type="line"/>
      <point x="622.9772865853658" y="450.158188620809"/>
      <point x="679.3493825174024" y="506.53028455284556"/>
      <point x="748.7839939024391" y="506.53028455284556" type="curve" smooth="yes"/>
      <point x="818.2186052874756" y="506.53028455284556"/>
      <point x="874.5907012195122" y="450.158188620809"/>
      <point x="874.5907012195122" y="380.7235772357724" type="curve"/>
      <point x="874.5907012195122" y="344.0304127452216"/>
      <point x="858.5711180463107" y="309.1658851369321"/>
      <point x="830.7295007542324" y="285.2654109388735" type="curve"/>
      <point x="565.4443588256836" y="57.532928466796875" type="line"/>
    </contour>
  </outline>
</glyph>
<glyph name="three_over_four" format="2">
  <advance width="1020"/>
  <unicode hex="00BE"/>
  <outline>
    <contour>
      <point x="110.4679183959961" y="800.3258056640625" type="line"/>
      <point x="110.46792035398227" y="711.5039171664305"/>
      <point x="194.08176722812385" y="639.3918141592922"/>
      <point x="297.07057522123887" y="639.3918141592922" type="curve" smooth="yes"/>
      <point x="400.059383214354" y="639.3918141592922"/>
      <point x="483.6732300884956" y="711.5039171664304"/>
      <point x="483.6732300884956" y="800.3258026342869" type="curve"/>
      <point x="483.6732300884956" y="855.4069184694688"/>
      <point x="451.51858738488545" y="904.0621000274226"/>
      <point x="402.5288391113281" y="933.0748901367188" type="curve"/>
      <point x="447.35026828532426" y="961.235202224407"/>
      <point x="476.5050884955752" y="1006.8936390811159"/>
      <point x="476.5050884955753" y="1058.3853159086234" type="curve"/>
      <point x="476.5050884955752" y="1143.8949473897358"/>
      <point x="396.1031782037345" y="1213.3179203539823"/>
      <point x="297.0705752212389" y="1213.3179203539823" type="curve" smooth="yes"/>
      <point x="198.03797223874335" y="1213.3179203539823"/>
      <point x="117.63606194690263" y="1143.8949473897358"/>
      <point x="117.63606194690263" y="1058.3853159086234" type="curve"/>
      <point x="175.4431381225586" y="1058.3853149414062" type="line"/>
      <point x="175.4431415929203" y="1111.9903518707622"/>
      <point x="229.9425677577168" y="1155.5108407079647"/>
      <point x="297.0705752212389" y="1155.5108407079647" type="curve" smooth="yes"/>
      <point x="364.1985826847611" y="1155.5108407079647"/>
      <point x="418.69800884955754" y="1111.9903518707622"/>
      <point x="418.69800884955754" y="1058.3853159086234" type="curve"/>
      <point x="418.69800884955754" y="1004.7802799464843"/>
      <point x="364.1985826847611" y="961.2597911092819"/>
      <point x="297.0705752212389" y="961.2597911092819" type="curve"/>
      <point x="261.1143798828125" y="961.2597885131836" type="line"/>
      <point x="261.1143798828125" y="903.4527130126953" type="line"/>
      <point x="297.07057189941406" y="903.4527130126953" type="line"/>
      <point x="368.15478769538055" y="903.4527114632642"/>
      <point x="425.8661504424779" y="857.24309258317"/>
      <point x="425.8661504424779" y="800.3258026342869" type="curve"/>
      <point x="425.8661504424779" y="743.4085126854037"/>
      <point x="368.1547876953805" y="697.1988938053098"/>
      <point x="297.0705752212389" y="697.1988938053098" type="curve" smooth="yes"/>
      <point x="225.9863627470973" y="697.1988938053098"/>
      <point x="168.27499999999998" y="743.4085126854039"/>
      <point x="168.27499999999998" y="800.325802634287" type="curve"/>
    </contour>
    <contour>
      <point x="94.49491150442478" y="366.37168141595896" type="line"/>
      <point x="919.6276548672566" y="746.9408426714215" type="line"/>
      <point x="919.6276548672566" y="809.2035398230089" type="line"/>
      <point x="94.49491150442478" y="428.6343785675463" type="line"/>
    </contour>
    <contour>
      <point x="636.9900665283203" y="196.03711700439453" type="line"/>
      <point x="841.5360641479492" y="464.2496795654297" type="line"/>
      <point x="841.5360641479492" y="196.03711700439453" type="line"/>
    </contour>
    <contour>
      <point x="564.2909317016602" y="138.23004150390625" type="line"/>
      <point x="841.5360641479492" y="138.23004150390625" type="line"/>
      <point x="841.5360641479492" y="0" type="line"/>
      <point x="899.3431396484375" y="0" type="line"/>
      <point x="899.3431396484375" y="138.23004150390625" type="line"/>
      <point x="980.5050888061523" y="138.23004150390625" type="line"/>
      <point x="980.5050888061523" y="196.03711700439453" type="line"/>
      <point x="899.3431396484375" y="196.03711700439453" type="line"/>
      <point x="899.3431396484375" y="559.5769882202148" type="line"/>
      <point x="841.5360641479492" y="559.5769882202148" type="line"/>
      <point x="564.2909317016602" y="196.03711700439453" type="line"/>
    </contour>
  </outline>
</glyph>
<glyph name="invertedquestion" format="2">
  <advance width="1020"/>
  <unicode hex="00BF"/>
  <outline>
    <contour>
      <point x="431.46341463414643" y="710.9756097560975" type="curve" smooth="yes"/>
      <point x="431.46341463414643" y="659.3513633731707"/>
      <point x="473.3757536170733" y="617.4390243902438"/>
      <point x="525.0" y="617.4390243902438" type="curve" smooth="yes"/>
      <point x="576.6242463829269" y="617.4390243902438"/>
      <point x="618.5365853658537" y="659.3513633731707"/>
      <point x="618.5365853658537" y="710.9756097560975" type="curve" smooth="yes"/>
      <point x="618.5365853658537" y="762.5998561390243"/>
      <point x="576.6242463829269" y="804.5121951219511"/>
      <point x="525.0" y="804.5121951219511" type="curve" smooth="yes"/>
      <point x="473.3757536170733" y="804.5121951219511"/>
      <point x="431.46341463414643" y="762.5998561390243"/>
    </contour>
    <contour>
      <point x="555.1219482421875" y="493.7804870605469" type="line"/>
      <point x="494.8780517578125" y="493.7804870605469" type="line"/>
      <point x="494.8780517578125" y="302.0111999511719" type="line"/>
      <point x="320.25735599801294" y="286.7503754709872"/>
      <point x="183.08943089430895" y="139.97881326956346"/>
      <point x="183.08943089430892" y="-38.57723577235771" type="curve"/>
      <point x="183.08943089430892" y="-227.28281435853657"/>
      <point x="336.29442141382106" y="-380.4878048780488"/>
      <point x="525.0" y="-380.4878048780488" type="curve" smooth="yes"/>
      <point x="713.7055785861788" y="-380.4878048780488"/>
      <point x="866.910569105691" y="-227.28281435853668"/>
      <point x="866.910569105691" y="-38.577235772357724" type="curve"/>
      <point x="806.6666641235352" y="-38.577232360839844" type="line"/>
      <point x="806.6666666666666" y="-194.03329973902447"/>
      <point x="680.4560639666665" y="-320.2439024390244"/>
      <point x="525.0" y="-320.2439024390244" type="curve" smooth="yes"/>
      <point x="369.54393603333324" y="-320.2439024390244"/>
      <point x="243.33333333333331" y="-194.03329973902436"/>
      <point x="243.33333333333331" y="-38.577235772357724" type="curve"/>
      <point x="243.33333333333337" y="116.87882819430885"/>
      <point x="369.54393603333335" y="243.08943089430895"/>
      <point x="525.0" y="243.08943089430895" type="curve"/>
      <point x="555.1219482421875" y="243.0894317626953" type="line"/>
    </contour>
  </outline>
</glyph>
<glyph name="A_with_grave" format="2">
  <advance width="980"/>
  <unicode hex="00C0"/>
  <outline>
    <contour>
      <point x="524.4686662475425" y="1260.0" type="line"/>
      <point x="377.3677439187223" y="1520.0" type="line"/>
      <point x="308.4304114236372" y="1520.0" type="line"/>
      <point x="455.5313337524575" y="1260.0" type="line"/>
    </contour>
    <contour>
      <point x="100" y="30" type="line"/>
      <point x="163.05130767822266" y="30" type="line"/>
      <point x="280.23596954345703" y="392.85713958740234" type="line"/>
      <point x="699.764030456543" y="392.85713958740234" type="line"/>
      <point x="816.9486923217773" y="30" type="line"/>
      <point x="880" y="30" type="line"/>
      <point x="521.5256576538086" y="1140" type="line"/>
      <point x="458.4743423461914" y="1140" type="line"/>
    </contour>
    <contour>
      <point x="299.6129608154297" y="452.85713958740234" type="line"/>
      <point x="490" y="1042.382194519043" type="line"/>
      <point x="680.3870391845703" y="452.85713958740234" type="line"/>
    </contour>
  </outline>
</glyph>
<glyph name="A_with_acute" format="2">
  <advance width="1020"/>
  <unicode hex="00C1"/>
  <outline>
    <contour>
      <point x="475.2263013077889" y="1303.0088495575224" type="line"/>
      <point x="544.773698692211" y="1303.0088495575224" type="line"/>
      <point x="700.9870675369757" y="1579.1150442477879" type="line"/>
      <point x="631.4396701525538" y="1579.1150442477879" type="line"/>
    </contour>
    <contour>
      <point x="65.5752182006836" y="0" type="line"/>
      <point x="129.72196197509766" y="0" type="line"/>
      <point x="265.5760269165039" y="387.3072052001953" type="line"/>
      <point x="754.4239730834961" y="387.3072052001953" type="line"/>
      <point x="890.2780380249023" y="0" type="line"/>
      <point x="954.4247817993164" y="0" type="line"/>
      <point x="542.073371887207" y="1175.5752182006836" type="line"/>
      <point x="477.92662811279297" y="1175.5752182006836" type="line"/>
    </contour>
    <contour>
      <point x="286.80821228027344" y="447.8381805419922" type="line"/>
      <point x="510" y="1084.1370391845703" type="line"/>
      <point x="733.1917877197266" y="447.8381805419922" type="line"/>
    </contour>
  </outline>
</glyph>
<glyph name="A_with_circumflex" format="2">
  <advance width="1020"/>
  <unicode hex="00C2"/>
  <outline>
    <contour>
      <point x="246.8292694091797" y="1296.8292694091797" type="line"/>
      <point x="328.91602325439453" y="1296.8292694091797" type="line"/>
      <point x="510" y="1492.4834899902344" type="line"/>
      <point x="691.0839767456055" y="1296.8292694091797" type="line"/>
      <point x="773.1707305908203" y="1296.8292694091797" type="line"/>
      <point x="551.0433807373047" y="1536.8292694091797" type="line"/>
      <point x="468.9566192626953" y="1536.8292694091797" type="line"/>
    </contour>
    <contour>
      <point x="60.54878234863281" y="0" type="line"/>
      <point x="124.51277923583984" y="0" type="line"/>
      <point x="262.05297088623047" y="385.4703826904297" type="line"/>
      <point x="757.9470291137695" y="385.4703826904297" type="line"/>
      <point x="895.4872207641602" y="0" type="line"/>
      <point x="959.4512176513672" y="0" type="line"/>
      <point x="541.9820022583008" y="1170" type="line"/>
      <point x="478.0179977416992" y="1170" type="line"/>
    </contour>
    <contour>
      <point x="283.5486755371094" y="445.7142868041992" type="line"/>
      <point x="510" y="1080.3671798706055" type="line"/>
      <point x="736.4513244628906" y="445.7142868041992" type="line"/>
    </contour>
  </outline>
</glyph>
<glyph name="A_with_smalltilde" format="2">
  <advance width="980"/>
  <unicode hex="00C3"/>
  <outline>
    <contour>
      <point x="537.7624154466225" y="1335.1977980110682" type="curve"/>
      <point x="476.6521682739258" y="1377.9876556396484" type="line"/>
      <point x="452.43878866881266" y="1394.9420446682825"/>
      <point x="423.59540890779783" y="1404.0363273741073"/>
      <point x="394.03632737410726" y="1404.0363273741073" type="curve"/>
      <point x="314.5405148707003" y="1404.0363273741073"/>
      <point x="250.0" y="1339.495812503407"/>
      <point x="250.0" y="1260.0" type="curve"/>
      <point x="310" y="1260" type="line"/>
      <point x="310.0" y="1306.380911303407"/>
      <point x="347.6554160707003" y="1344.0363273741073"/>
      <point x="394.0363273741072" y="1344.0363273741073" type="curve"/>
      <point x="411.2822312230114" y="1344.0363273741073"/>
      <point x="428.1105671599362" y="1338.7303734343461"/>
      <point x="442.2375845533775" y="1328.8385293630388" type="curve"/>
      <point x="503.3478317260742" y="1286.0486755371094" type="line"/>
      <point x="527.5612113311875" y="1269.0942827058245"/>
      <point x="556.4045910922023" y="1260.0"/>
      <point x="585.9636726258929" y="1260.0" type="curve"/>
      <point x="665.4594851292998" y="1260.0"/>
      <point x="730.0" y="1324.5405148707002"/>
      <point x="730.0" y="1404.0363273741073" type="curve"/>
      <point x="670" y="1404.0363311767578" type="line"/>
      <point x="670.0" y="1357.6554160707003"/>
      <point x="632.3445839292998" y="1320.0"/>
      <point x="585.9636726258927" y="1320.0" type="curve"/>
      <point x="568.7177687769886" y="1320.0"/>
      <point x="551.8894328400638" y="1325.305953939761"/>
    </contour>
    <contour>
      <point x="100" y="30" type="line"/>
      <point x="163.05130767822266" y="30" type="line"/>
      <point x="280.23596954345703" y="392.85713958740234" type="line"/>
      <point x="699.764030456543" y="392.85713958740234" type="line"/>
      <point x="816.9486923217773" y="30" type="line"/>
      <point x="880" y="30" type="line"/>
      <point x="521.5256576538086" y="1140" type="line"/>
      <point x="458.4743423461914" y="1140" type="line"/>
    </contour>
    <contour>
      <point x="299.6129608154297" y="452.85713958740234" type="line"/>
      <point x="490" y="1042.382194519043" type="line"/>
      <point x="680.3870391845703" y="452.85713958740234" type="line"/>
    </contour>
  </outline>
</glyph>
<glyph name="A_with_diaeresis" format="2">
  <advance width="1020"/>
  <unicode hex="00C4"/>
  <outline>
    <contour>
      <point x="459.4585365853659" y="1365.0" type="curve" smooth="yes"/>
      <point x="459.4585365853659" y="1402.6244507536585"/>
      <point x="428.91225563170735" y="1433.1707317073171"/>
      <point x="391.2878048780488" y="1433.1707317073171" type="curve" smooth="yes"/>
      <point x="353.66335412439025" y="1433.1707317073171"/>
      <point x="323.1170731707317" y="1402.6244507536585"/>
      <point x="323.1170731707317" y="1365.0" type="curve" smooth="yes"/>
      <point x="323.1170731707317" y="1327.3755492463413"/>
      <point x="353.66335412439025" y="1296.8292682926829"/>
      <point x="391.2878048780488" y="1296.8292682926829" type="curve" smooth="yes"/>
      <point x="428.91225563170735" y="1296.8292682926829"/>
      <point x="459.4585365853659" y="1327.3755492463413"/>
    </contour>
    <contour>
      <point x="696.8829268292683" y="1365.0" type="curve" smooth="yes"/>
      <point x="696.8829268292683" y="1402.6244507536585"/>
      <point x="666.3366458756097" y="1433.1707317073171"/>
      <point x="628.7121951219511" y="1433.1707317073171" type="curve" smooth="yes"/>
      <point x="591.0877443682926" y="1433.1707317073171"/>
      <point x="560.5414634146341" y="1402.6244507536585"/>
      <point x="560.5414634146341" y="1365.0" type="curve" smooth="yes"/>
      <point x="560.5414634146341" y="1327.3755492463413"/>
      <point x="591.0877443682926" y="1296.8292682926829"/>
      <point x="628.7121951219511" y="1296.8292682926829" type="curve" smooth="yes"/>
      <point x="666.3366458756097" y="1296.8292682926829"/>
      <point x="696.8829268292683" y="1327.3755492463413"/>
    </contour>
    <contour>
      <point x="67.68292999267578" y="0" type="line"/>
      <point x="131.52545166015625" y="0" type="line"/>
      <point x="266.73522186279297" y="385.4703826904297" type="line"/>
      <point x="753.264778137207" y="385.4703826904297" type="line"/>
      <point x="888.4745483398438" y="0" type="line"/>
      <point x="952.3170700073242" y="0" type="line"/>
      <point x="541.9212646484375" y="1170" type="line"/>
      <point x="478.0787353515625" y="1170" type="line"/>
    </contour>
    <contour>
      <point x="287.86671447753906" y="445.7142868041992" type="line"/>
      <point x="510" y="1078.9954681396484" type="line"/>
      <point x="732.1332855224609" y="445.7142868041992" type="line"/>
    </contour>
  </outline>
</glyph>
<glyph name="A_with_ring" format="2">
  <advance width="980"/>
  <unicode hex="00C5"/>
  <outline>
    <contour>
      <point x="610.0" y="1380.0" type="curve" smooth="yes"/>
      <point x="610.0" y="1446.2298024"/>
      <point x="556.2298024" y="1500.0"/>
      <point x="490.0" y="1500.0" type="curve" smooth="yes"/>
      <point x="423.7701976" y="1500.0"/>
      <point x="370.0" y="1446.2298024000002"/>
      <point x="370.0" y="1380.0" type="curve" smooth="yes"/>
      <point x="370.0" y="1313.7701976"/>
      <point x="423.77019759999996" y="1260.0"/>
      <point x="490.0" y="1260.0" type="curve" smooth="yes"/>
      <point x="556.2298023999999" y="1260.0"/>
      <point x="610.0" y="1313.7701975999998"/>
    </contour>
    <contour>
      <point x="550.0" y="1380.0" type="curve" smooth="yes"/>
      <point x="550.0" y="1346.8850988"/>
      <point x="523.1149012" y="1320.0"/>
      <point x="490.0" y="1320.0" type="curve" smooth="yes"/>
      <point x="456.8850988" y="1320.0"/>
      <point x="430.0" y="1346.8850988"/>
      <point x="430.0" y="1380.0" type="curve" smooth="yes"/>
      <point x="430.0" y="1413.1149012"/>
      <point x="456.88509880000004" y="1440.0"/>
      <point x="490.0" y="1440.0" type="curve" smooth="yes"/>
      <point x="523.1149012000001" y="1440.0"/>
      <point x="550.0" y="1413.1149012"/>
    </contour>
    <contour>
      <point x="100" y="30" type="line"/>
      <point x="163.05130767822266" y="30" type="line"/>
      <point x="280.23596954345703" y="392.85713958740234" type="line"/>
      <point x="699.764030456543" y="392.85713958740234" type="line"/>
      <point x="816.9486923217773" y="30" type="line"/>
      <point x="880" y="30" type="line"/>
      <point x="521.5256576538086" y="1140" type="line"/>
      <point x="458.4743423461914" y="1140" type="line"/>
    </contour>
    <contour>
      <point x="299.6129608154297" y="452.85713958740234" type="line"/>
      <point x="490" y="1042.382194519043" type="line"/>
      <point x="680.3870391845703" y="452.85713958740234" type="line"/>
    </contour>
  </outline>
</glyph>
<glyph name="AE" format="2">
  <advance width="1020"/>
  <unicode hex="00C6"/>
  <outline>
    <contour>
      <point x="94.34007263183594" y="0" type="line"/>
      <point x="158.73792266845703" y="0" type="line"/>
      <point x="299.3716125488281" y="387.3072052001953" type="line"/>
      <point x="525.0657424926758" y="387.3072052001953" type="line"/>
      <point x="525.0657424926758" y="0" type="line"/>
      <point x="875.6599273681641" y="0" type="line"/>
      <point x="875.6599273681641" y="60.530975341796875" type="line"/>
      <point x="585.5967102050781" y="60.530975341796875" type="line"/>
      <point x="585.5967102050781" y="557.5221252441406" type="line"/>
      <point x="843.801513671875" y="557.5221252441406" type="line"/>
      <point x="843.801513671875" y="618.0531005859375" type="line"/>
      <point x="585.5967102050781" y="618.0531005859375" type="line"/>
      <point x="585.5967102050781" y="1115.0442504882812" type="line"/>
      <point x="875.6599273681641" y="1115.0442504882812" type="line"/>
      <point x="875.6599273681641" y="1175.5752182006836" type="line"/>
      <point x="521.198860168457" y="1175.5752182006836" type="line"/>
    </contour>
    <contour>
      <point x="321.35079193115234" y="447.8381805419922" type="line"/>
      <point x="525.0657424926758" y="1008.8720626831055" type="line"/>
      <point x="525.0657424926758" y="447.8381805419922" type="line"/>
    </contour>
  </outline>
</glyph>
<glyph name="C_with_cedilla" format="2">
  <advance width="1020"/>
  <unicode hex="00C7"/>
  <outline>
    <contour>
      <point x="115.24390411376953" y="379.75609588623047" type="line"/>
      <point x="115.2439024390244" y="172.0181500199838"/>
      <point x="276.0560255800618" y="1.5435117249720918"/>
      <point x="479.8780517578125" y="-13.856185913085938" type="curve"/>
      <point x="479.8780517578125" y="-140.24390411376953" type="line"/>
      <point x="510" y="-140.24390411376953" type="line"/>
      <point x="545.8744763" y="-140.24390243902437"/>
      <point x="575.0" y="-169.36942613902437"/>
      <point x="575.0" y="-205.24390243902437" type="curve" smooth="yes"/>
      <point x="575.0" y="-241.11837873902437"/>
      <point x="545.8744763" y="-270.2439024390244"/>
      <point x="510.0" y="-270.2439024390244" type="curve"/>
      <point x="426.50406646728516" y="-270.24390411376953" type="line"/>
      <point x="426.50406646728516" y="-330.48780822753906" type="line"/>
      <point x="510" y="-330.48780822753906" type="line"/>
      <point x="579.1239909195122" y="-330.48780487804873"/>
      <point x="635.2439024390244" y="-274.36789335853655"/>
      <point x="635.2439024390244" y="-205.24390243902437" type="curve" smooth="yes"/>
      <point x="635.2439024390244" y="-146.50268057557753"/>
      <point x="594.7168217969021" y="-97.15237470345619"/>
      <point x="540.1219482421875" y="-83.68201446533203" type="curve"/>
      <point x="540.1219482421875" y="-13.856224060058594" type="line"/>
      <point x="743.9439744199381" y="1.5435117249720598"/>
      <point x="904.7560975609756" y="172.0181500199836"/>
      <point x="904.7560975609755" y="379.7560975609755" type="curve"/>
      <point x="844.5121917724609" y="379.75609588623047" type="line"/>
      <point x="844.5121951219512" y="195.13379269999993"/>
      <point x="694.6223048609755" y="45.2439024390244"/>
      <point x="509.99999999999994" y="45.2439024390244" type="curve" smooth="yes"/>
      <point x="325.37769513902435" y="45.2439024390244"/>
      <point x="175.4878048780488" y="195.13379270000001"/>
      <point x="175.4878048780488" y="379.75609756097566" type="curve"/>
      <point x="175.48780822753906" y="790.2439041137695" type="line"/>
      <point x="175.4878048780488" y="974.8662073000002"/>
      <point x="325.3776951390244" y="1124.7560975609756"/>
      <point x="510.0" y="1124.7560975609756" type="curve" smooth="yes"/>
      <point x="694.6223048609755" y="1124.7560975609756"/>
      <point x="844.5121951219512" y="974.8662073"/>
      <point x="844.5121951219512" y="790.2439024390244" type="curve"/>
      <point x="904.7560958862305" y="790.2439041137695" type="line"/>
      <point x="904.7560975609756" y="1008.1157219195122"/>
      <point x="727.8718194804878" y="1185.0"/>
      <point x="510.0" y="1185.0" type="curve" smooth="yes"/>
      <point x="292.12818051951217" y="1185.0"/>
      <point x="115.2439024390244" y="1008.1157219195123"/>
      <point x="115.2439024390244" y="790.2439024390244" type="curve"/>
    </contour>
  </outline>
</glyph>
<glyph name="E_with_grave" format="2">
  <advance width="1020"/>
  <unicode hex="00C8"/>
  <outline>
    <contour>
      <point x="549.60878" y="1296.82927" type="line"/>
      <point x="402.50786" y="1556.82927" type="line"/>
      <point x="333.29029" y="1556.82927" type="line"/>
      <point x="480.39122" y="1296.82927" type="line"/>
    </contour>
    <contour>
      <point x="166.43089294433594" y="0" type="line"/>
      <point x="863.5691070556641" y="0" type="line"/>
      <point x="863.5691070556641" y="60.243896484375" type="line"/>
      <point x="226.67479705810547" y="60.243896484375" type="line"/>
      <point x="226.67479705810547" y="554.8780517578125" type="line"/>
      <point x="800.1544723510742" y="554.8780517578125" type="line"/>
      <point x="800.1544723510742" y="615.1219482421875" type="line"/>
      <point x="226.67479705810547" y="615.1219482421875" type="line"/>
      <point x="226.67479705810547" y="1109.756103515625" type="line"/>
      <point x="858.284553527832" y="1109.756103515625" type="line"/>
      <point x="858.284553527832" y="1170" type="line"/>
      <point x="166.43089294433594" y="1170" type="line"/>
    </contour>
  </outline>
</glyph>
<glyph name="E_with_acute" format="2">
  <advance width="1020"/>
  <unicode hex="00C9"/>
  <outline>
    <contour>
      <point x="477.72630130778896" y="1303.0088495575224" type="line"/>
      <point x="547.2736986922112" y="1303.0088495575224" type="line"/>
      <point x="703.4870675369759" y="1579.1150442477879" type="line"/>
      <point x="633.9396701525538" y="1579.1150442477879" type="line"/>
    </contour>
    <contour>
      <point x="147.7212371826172" y="0" type="line"/>
      <point x="877.2787628173828" y="0" type="line"/>
      <point x="877.2787628173828" y="60.530975341796875" type="line"/>
      <point x="208.25221252441406" y="60.530975341796875" type="line"/>
      <point x="208.25221252441406" y="557.5221252441406" type="line"/>
      <point x="813.5619506835938" y="557.5221252441406" type="line"/>
      <point x="813.5619506835938" y="618.0531005859375" type="line"/>
      <point x="208.25221252441406" y="618.0531005859375" type="line"/>
      <point x="208.25221252441406" y="1115.0442504882812" type="line"/>
      <point x="877.2787628173828" y="1115.0442504882812" type="line"/>
      <point x="877.2787628173828" y="1175.5752182006836" type="line"/>
      <point x="147.7212371826172" y="1175.5752182006836" type="line"/>
    </contour>
  </outline>
</glyph>
<glyph name="E_with_circumflex" format="2">
  <advance width="1020"/>
  <unicode hex="00CA"/>
  <outline>
    <contour>
      <point x="248.0752182006836" y="1303.0088500976562" type="line"/>
      <point x="328.68115997314453" y="1303.0088500976562" type="line"/>
      <point x="512.5" y="1512.0442962646484" type="line"/>
      <point x="696.3188400268555" y="1303.0088500976562" type="line"/>
      <point x="776.9247817993164" y="1303.0088500976562" type="line"/>
      <point x="552.8029708862305" y="1557.876106262207" type="line"/>
      <point x="472.19702911376953" y="1557.876106262207" type="line"/>
    </contour>
    <contour>
      <point x="147.7212371826172" y="0" type="line"/>
      <point x="877.2787628173828" y="0" type="line"/>
      <point x="877.2787628173828" y="60.530975341796875" type="line"/>
      <point x="208.25221252441406" y="60.530975341796875" type="line"/>
      <point x="208.25221252441406" y="557.5221252441406" type="line"/>
      <point x="813.5619506835938" y="557.5221252441406" type="line"/>
      <point x="813.5619506835938" y="618.0531005859375" type="line"/>
      <point x="208.25221252441406" y="618.0531005859375" type="line"/>
      <point x="208.25221252441406" y="1115.0442504882812" type="line"/>
      <point x="877.2787628173828" y="1115.0442504882812" type="line"/>
      <point x="877.2787628173828" y="1175.5752182006836" type="line"/>
      <point x="147.7212371826172" y="1175.5752182006836" type="line"/>
    </contour>
  </outline>
</glyph>
<glyph name="E_with_diaeresis" format="2">
  <advance width="1020"/>
  <unicode hex="00CB"/>
  <outline>
    <contour>
      <point x="461.95853658536583" y="1365.0" type="curve" smooth="yes"/>
      <point x="461.95853658536583" y="1402.6244507536585"/>
      <point x="431.4122556317073" y="1433.1707317073171"/>
      <point x="393.78780487804875" y="1433.1707317073171" type="curve" smooth="yes"/>
      <point x="356.16335412439025" y="1433.1707317073171"/>
      <point x="325.6170731707317" y="1402.6244507536585"/>
      <point x="325.6170731707317" y="1365.0" type="curve" smooth="yes"/>
      <point x="325.6170731707317" y="1327.3755492463413"/>
      <point x="356.16335412439025" y="1296.8292682926829"/>
      <point x="393.78780487804875" y="1296.8292682926829" type="curve" smooth="yes"/>
      <point x="431.4122556317073" y="1296.8292682926829"/>
      <point x="461.95853658536583" y="1327.3755492463413"/>
    </contour>
    <contour>
      <point x="699.3829268292682" y="1365.0" type="curve" smooth="yes"/>
      <point x="699.3829268292682" y="1402.6244507536585"/>
      <point x="668.8366458756097" y="1433.1707317073171"/>
      <point x="631.2121951219513" y="1433.1707317073171" type="curve" smooth="yes"/>
      <point x="593.5877443682926" y="1433.1707317073171"/>
      <point x="563.0414634146341" y="1402.6244507536585"/>
      <point x="563.0414634146341" y="1365.0" type="curve" smooth="yes"/>
      <point x="563.0414634146341" y="1327.3755492463413"/>
      <point x="593.5877443682926" y="1296.8292682926829"/>
      <point x="631.2121951219513" y="1296.8292682926829" type="curve" smooth="yes"/>
      <point x="668.8366458756097" y="1296.8292682926829"/>
      <point x="699.3829268292682" y="1327.3755492463413"/>
    </contour>
    <contour>
      <point x="149.4512176513672" y="0" type="line"/>
      <point x="875.5487823486328" y="0" type="line"/>
      <point x="875.5487823486328" y="60.24390411376953" type="line"/>
      <point x="209.69512176513672" y="60.24390411376953" type="line"/>
      <point x="209.69512176513672" y="554.8780517578125" type="line"/>
      <point x="812.134147644043" y="554.8780517578125" type="line"/>
      <point x="812.134147644043" y="615.1219482421875" type="line"/>
      <point x="209.69512176513672" y="615.1219482421875" type="line"/>
      <point x="209.69512176513672" y="1109.7560958862305" type="line"/>
      <point x="875.5487823486328" y="1109.7560958862305" type="line"/>
      <point x="875.5487823486328" y="1170" type="line"/>
      <point x="149.4512176513672" y="1170" type="line"/>
    </contour>
  </outline>
</glyph>
